<?xml version="1.0" encoding="utf-8"?>
<!-- Generator: Adobe Illustrator 19.2.1, SVG Export Plug-In . SVG Version: 6.00 Build 0)  -->
<svg version="1.1" id="Ebene_1" xmlns="http://www.w3.org/2000/svg" xmlns:xlink="http://www.w3.org/1999/xlink" x="0px" y="0px"
	 viewBox="0 0 150 150" style="enable-background:new 0 0 150 150;" xml:space="preserve">
<style type="text/css">
	.st0{fill:#3C3C3C;}
	.st1{fill-rule:evenodd;clip-rule:evenodd;fill:#3C3C3C;}
</style>
<g>
	<polygon class="st0" points="-10.1,-459.9 -15.4,-454.6 28.8,-410.4 -15.4,-366.3 -10.1,-361 39.5,-410.4 	"/>
	<rect x="-60.3" y="-414.3" class="st0" width="92.5" height="7.7"/>
</g>
<path class="st0" d="M944.1-379.9c8.6,8,20,13,32.6,13c26.4,0,47.9-21.5,47.9-47.9c0-26.4-21.5-47.9-47.9-47.9
	c-14.1,0-26.8,6.2-35.6,16h-7.7c9.8-13.3,25.5-21.9,43.3-21.9c29.7,0,53.8,24.1,53.8,53.8c0,29.7-24.1,53.8-53.8,53.8
	c-16.4,0-31-7.4-40.9-18.9H944.1z"/>
<path class="st0" d="M940.3-431.2h-25.6v-4.9h25.6V-431.2z M940.3-416.5h-37v4.9h37V-416.5z M940.3-396.9h-25.6v4.9h25.6V-396.9z"/>
<path class="st0" d="M974.1-406.1v4.8h-18.7v-4.8h7v-17.1c-0.3,0.4-0.8,0.8-1.4,1.2c-0.6,0.4-1.3,0.8-2.1,1.2
	c-0.8,0.4-1.5,0.7-2.3,0.9c-0.8,0.2-1.5,0.4-2.2,0.4v-5c0.7,0,1.4-0.2,2.3-0.6c0.9-0.4,1.7-0.8,2.5-1.4c0.8-0.5,1.5-1,2.1-1.6
	c0.6-0.5,1-0.9,1.1-1.1h5.5v23.1H974.1z"/>
<path class="st0" d="M977.2-401.3c0-1.4,0.1-2.6,0.3-3.8c0.2-1.2,0.6-2.3,1.2-3.3c0.6-1,1.4-2,2.4-2.9c1-0.9,2.3-1.8,3.9-2.7
	c1.1-0.6,2.2-1.2,3.2-1.7c1-0.5,1.9-1,2.7-1.5c0.8-0.5,1.4-1,1.8-1.6c0.5-0.6,0.7-1.2,0.7-2c0-1-0.4-2-1.3-2.8
	c-0.9-0.8-2.2-1.2-3.9-1.2c-0.9,0-1.7,0.1-2.4,0.4c-0.7,0.2-1.4,0.6-2,0.9c-0.6,0.4-1.1,0.8-1.6,1.2c-0.5,0.5-0.9,0.9-1.2,1.3
	l-3.4-4c0.3-0.4,0.8-0.8,1.5-1.3c0.7-0.5,1.5-1.1,2.5-1.5c1-0.5,2.1-0.9,3.4-1.2c1.3-0.3,2.7-0.5,4.2-0.5c1.6,0,3,0.2,4.2,0.6
	c1.3,0.4,2.3,1,3.2,1.7c0.9,0.7,1.5,1.6,2,2.6c0.5,1,0.7,2.1,0.7,3.2c0,1.2-0.2,2.3-0.7,3.2c-0.5,0.9-1.1,1.8-1.8,2.5
	c-0.7,0.7-1.5,1.3-2.3,1.8c-0.8,0.5-1.6,0.9-2.3,1.3c-0.7,0.3-1.5,0.7-2.3,1.2c-0.9,0.4-1.7,0.9-2.5,1.5c-0.8,0.6-1.6,1.2-2.2,1.8
	c-0.7,0.7-1.1,1.4-1.4,2.2h16.2v4.8H977.2z"/>
<g>
	<path class="st0" d="M750.1-381.6c8.6,8,20,13,32.6,13c26.4,0,47.9-21.5,47.9-47.9c0-26.4-21.5-47.9-47.9-47.9
		c-14.1,0-26.8,6.2-35.6,16h-7.7c9.8-13.3,25.5-21.9,43.3-21.9c29.7,0,53.8,24.1,53.8,53.8c0,29.7-24.1,53.8-53.8,53.8
		c-16.4,0-31-7.4-40.9-18.9H750.1z"/>
	<path class="st0" d="M746.4-432.9h-25.6v-4.9h25.6V-432.9z M746.4-418.2h-37v4.9h37V-418.2z M746.4-398.6h-25.6v4.9h25.6V-398.6z"
		/>
	<path class="st0" d="M779.8-407.9v4.8h-18.7v-4.8h7v-17.1c-0.3,0.4-0.8,0.8-1.4,1.2c-0.6,0.4-1.3,0.8-2.1,1.2
		c-0.8,0.4-1.5,0.7-2.3,0.9c-0.8,0.2-1.5,0.4-2.2,0.4v-5c0.7,0,1.4-0.2,2.3-0.6c0.9-0.4,1.7-0.8,2.5-1.4c0.8-0.5,1.5-1,2.1-1.6
		c0.6-0.5,1-0.9,1.1-1.1h5.5v23.1H779.8z"/>
	<path class="st0" d="M808.5-417.4c0,2.2-0.3,4.1-1,5.9c-0.6,1.8-1.5,3.4-2.6,4.7c-1.1,1.3-2.4,2.4-4,3.1c-1.5,0.7-3.2,1.1-5,1.1
		c-1.8,0-3.5-0.4-5-1.1c-1.5-0.7-2.9-1.8-4-3.1c-1.1-1.3-2-2.9-2.6-4.7c-0.6-1.8-1-3.8-1-5.9c0-2.2,0.3-4.1,1-5.9
		c0.6-1.8,1.5-3.4,2.6-4.7c1.1-1.3,2.4-2.4,4-3.1c1.5-0.8,3.2-1.1,5-1.1c1.8,0,3.5,0.4,5,1.1c1.5,0.8,2.8,1.8,4,3.1
		c1.1,1.3,2,2.9,2.6,4.7C808.2-421.5,808.5-419.5,808.5-417.4z M803-417.4c0-1.5-0.2-2.8-0.5-4c-0.3-1.2-0.8-2.3-1.5-3.1
		c-0.6-0.9-1.4-1.6-2.3-2c-0.9-0.5-1.8-0.7-2.8-0.7c-1.1,0-2,0.2-2.9,0.7c-0.9,0.5-1.6,1.2-2.3,2c-0.6,0.9-1.1,1.9-1.5,3.1
		c-0.3,1.2-0.5,2.5-0.5,4s0.2,2.8,0.5,4c0.3,1.2,0.8,2.2,1.5,3.1c0.6,0.9,1.4,1.5,2.3,2c0.9,0.5,1.8,0.7,2.9,0.7c1,0,2-0.2,2.8-0.7
		c0.9-0.5,1.6-1.1,2.3-2c0.6-0.9,1.1-1.9,1.5-3.1C802.9-414.5,803-415.9,803-417.4z"/>
</g>
<path class="st0" d="M257.3-414.5c0.8-5.8,2.5-11.4,5.1-16.9c2.6-5.5,6-10.3,10.2-14.6c4.2-4.2,9.2-7.6,15-10.2
	c5.8-2.5,12.3-3.8,19.4-3.8c9.5,0,17.5,2.2,24.2,6.5c6.7,4.3,11.7,9.9,15,16.7l-6.3,3.6c-1.9-3.7-4.1-6.8-6.7-9.3
	c-2.5-2.5-5.3-4.5-8.2-6.1c-2.9-1.5-6-2.7-9.2-3.4c-3.2-0.7-6.3-1-9.4-1c-6,0-11.3,1.1-16.1,3.2c-4.7,2.1-8.9,5-12.4,8.6
	c-3.5,3.6-6.4,7.7-8.6,12.3c-2.2,4.6-3.6,9.4-4.3,14.3h53.7l-2.2,5.1h-52v2.8c0,2.4,0.1,4.7,0.4,6.9h48.3l-2.4,5.1h-45
	c1.2,5,3.1,9.6,5.6,13.9c2.5,4.3,5.6,8,9.2,11.1c3.6,3.1,7.6,5.6,12.1,7.5c4.5,1.8,9.2,2.8,14.2,2.8c3.2,0,6.5-0.4,9.9-1.2
	c3.4-0.8,6.6-2,9.7-3.7c3.1-1.7,6-3.9,8.7-6.5c2.7-2.6,4.9-5.8,6.7-9.3l6.6,3.1c-1.8,4-4.2,7.5-7.3,10.6c-3.1,3.1-6.5,5.7-10.3,7.8
	c-3.8,2.1-7.8,3.7-12,4.7c-4.2,1-8.4,1.6-12.5,1.6c-6.2,0-11.9-1.1-17.2-3.4c-5.3-2.3-10-5.4-14.2-9.3c-4.2-3.9-7.7-8.4-10.5-13.5
	c-2.8-5.1-4.9-10.5-6.2-16.1h-17.5l2.2-5.1h14.4c-0.3-2.4-0.4-4.8-0.4-7.3v-2.4h-11.2l2.2-5.1H257.3z"/>
<g>
	<path class="st0" d="M468.9-379.9c8.6,8,20,13,32.6,13c26.4,0,47.9-21.5,47.9-47.9c0-26.4-21.5-47.9-47.9-47.9
		c-14.1,0-26.8,6.2-35.6,16h-7.7c9.8-13.3,25.5-21.9,43.3-21.9c29.7,0,53.8,24.1,53.8,53.8c0,29.7-24.1,53.8-53.8,53.8
		c-16.4,0-31-7.4-40.9-18.9H468.9z"/>
	<path class="st0" d="M465.2-431.2h-25.6v-4.9h25.6V-431.2z M465.2-416.5h-37v4.9h37V-416.5z M465.2-396.9h-25.6v4.9h25.6V-396.9z"
		/>
	<path class="st0" d="M515.7-408.1c0,1.6-0.3,3-1,4.3s-1.6,2.4-2.7,3.3c-1.1,0.9-2.5,1.6-4,2.1c-1.5,0.5-3.1,0.7-4.8,0.7
		c-1.7,0-3.4-0.3-4.9-0.8c-1.5-0.5-2.8-1.3-3.9-2.2c-1.1-0.9-2-2.1-2.6-3.4c-0.6-1.3-1-2.7-1-4.3c0-1,0.2-2,0.5-2.8
		c0.4-0.9,0.8-1.7,1.4-2.4c0.6-0.7,1.2-1.3,1.9-1.8c0.7-0.5,1.4-0.9,2.2-1.3c-1.3-0.6-2.5-1.5-3.4-2.7c-0.9-1.2-1.4-2.6-1.4-4.1
		c0-1.5,0.3-2.8,1-4c0.7-1.2,1.6-2.1,2.6-2.9c1.1-0.8,2.3-1.4,3.6-1.8c1.3-0.4,2.7-0.6,4-0.6c1.3,0,2.6,0.2,4,0.6
		c1.4,0.4,2.6,1,3.7,1.8c1.1,0.8,2,1.8,2.7,2.9c0.7,1.2,1,2.5,1,4c0,1.5-0.5,2.9-1.4,4.1c-1,1.2-2.1,2.1-3.5,2.7
		c0.8,0.4,1.5,0.8,2.3,1.3s1.4,1.2,1.9,1.9c0.6,0.7,1,1.5,1.3,2.4C515.6-410.1,515.7-409.1,515.7-408.1z M510.3-408.4
		c0-0.9-0.2-1.8-0.6-2.5c-0.4-0.7-0.9-1.4-1.6-1.9c-0.7-0.5-1.4-0.9-2.3-1.2c-0.8-0.3-1.7-0.4-2.5-0.4c-0.9,0-1.7,0.1-2.6,0.4
		c-0.8,0.3-1.6,0.7-2.2,1.2c-0.6,0.5-1.2,1.2-1.5,1.9c-0.4,0.7-0.6,1.6-0.6,2.5c0,0.9,0.2,1.7,0.6,2.5c0.4,0.7,0.9,1.4,1.6,1.9
		c0.7,0.5,1.4,0.9,2.2,1.2c0.8,0.3,1.7,0.4,2.5,0.4c0.9,0,1.7-0.1,2.6-0.4c0.8-0.3,1.6-0.7,2.2-1.2c0.7-0.5,1.2-1.1,1.6-1.9
		C510.1-406.7,510.3-407.5,510.3-408.4z M497.5-423.2c0,0.8,0.2,1.5,0.5,2.1c0.4,0.6,0.8,1.1,1.4,1.5c0.6,0.4,1.2,0.7,1.9,0.9
		c0.7,0.2,1.4,0.3,2.1,0.3c0.7,0,1.4-0.1,2.1-0.3c0.7-0.2,1.3-0.5,1.9-0.9c0.6-0.4,1-0.9,1.4-1.5c0.4-0.6,0.5-1.3,0.5-2.1
		c0-0.7-0.2-1.4-0.5-1.9c-0.3-0.6-0.8-1.1-1.3-1.5c-0.5-0.4-1.2-0.7-1.9-0.9c-0.7-0.2-1.4-0.3-2.2-0.3c-0.8,0-1.5,0.1-2.2,0.3
		c-0.7,0.2-1.3,0.5-1.9,1c-0.5,0.4-1,0.9-1.3,1.5C497.6-424.6,497.5-423.9,497.5-423.2z"/>
</g>
<path class="st0" d="M110.9-454.2l50.1,92.6H55.1L110.9-454.2z M111.1-464.5l-4.6,7.7l-55.8,92.6l-4.7,7.7h9H161h8.6l-4.1-7.5
	l-50.1-92.6L111.1-464.5z"/>
<path class="st0" d="M106.4-418h5.6v23.7h-5.6V-418z M106.4-388.4h5.6v7h-5.6V-388.4z"/>
<polygon class="st0" points="155.5,-181.1 159.7,-185.3 194.6,-150.4 263.9,-219.9 268.1,-215.7 194.6,-141.9 "/>
<path class="st1" d="M-60.3-64.4H60.3v-91.7H-60.3V-64.4z M50.7-151.2L0-100.6l-50.7-50.7H50.7z M55.5-69.2h-111v-79.6L0-93.3
	l55.5-55.5V-69.2z"/>
<path class="st1" d="M656.6-401.7h-4.8v-21.7c0-14.7-11.9-26.5-26.5-26.5c-14.7,0-26.5,11.9-26.5,26.5v21.7h-4.8
	c-2.7,0-4.8,2.2-4.8,4.8v48.3c0,2.7,2.2,4.8,4.8,4.8h62.7c2.7,0,4.8-2.2,4.8-4.8v-48.3C661.4-399.6,659.2-401.7,656.6-401.7
	 M603.5-423.5c0-12,9.7-21.7,21.7-21.7s21.7,9.7,21.7,21.7v21.7h-43.4V-423.5z M656.6-351.1c0,1.3-1.1,2.4-2.4,2.4h-57.9
	c-1.3,0-2.4-1.1-2.4-2.4v-43.4c0-1.3,1.1-2.4,2.4-2.4h57.9c1.3,0,2.4,1.1,2.4,2.4V-351.1z"/>
<g>
	<polygon class="st0" points="402.1,-121 407.4,-126.3 363.2,-170.4 407.4,-214.5 402.1,-219.9 352.5,-170.4 	"/>
	<line class="st0" x1="482.6" y1="-170.4" x2="359.8" y2="-170.4"/>
	<rect x="359.8" y="-174.3" class="st0" width="92.5" height="7.7"/>
</g>
<path class="st0" d="M1201.4-438.1h-84.7v-7.1h84.7V-438.1z M1171.1-414.6h-54.5v7.1h54.5V-414.6z M1201.4-384h-84.7v7.1h84.7V-384z
	"/>
<g>
	<path class="st0" d="M52.4,111.1c8.5,7.9,19.8,12.8,32.3,12.8c26.1,0,47.3-21.2,47.3-47.3s-21.2-47.3-47.3-47.3
		c-14,0-26.5,6.1-35.1,15.8h-7.6c9.7-13.1,25.2-21.7,42.8-21.7c29.3,0,53.2,23.9,53.2,53.2s-23.9,53.2-53.2,53.2
		c-16.2,0-30.7-7.3-40.4-18.7H52.4z"/>
	<path id="Hamburger_Menu_Icon_3_" class="st0" d="M48.7,60.4H23.4v-4.8h25.3V60.4z M48.7,74.9H12.2v4.8h36.6V74.9z M48.7,94.2H23.4
		v4.8h25.3V94.2z"/>
	<g>
		<path class="st0" d="M82.5,85.1v4.8H64v-4.8h6.9V68.2c-0.3,0.4-0.7,0.8-1.4,1.2c-0.6,0.4-1.3,0.8-2,1.2c-0.7,0.4-1.5,0.7-2.3,0.9
			c-0.8,0.2-1.5,0.4-2.1,0.4v-5c0.6,0,1.4-0.2,2.3-0.6c0.9-0.4,1.7-0.8,2.5-1.4c0.8-0.5,1.5-1,2.1-1.5c0.6-0.5,0.9-0.9,1-1.1h5.5
			v22.8H82.5z"/>
		<path class="st0" d="M100.8,66.6H84.2v-4.9h25.1L92,96.1h-6L100.8,66.6z"/>
	</g>
</g>
<g>
	<path class="st0" d="M813.9-723.5c8.5,7.9,19.8,12.8,32.3,12.8c26.1,0,47.3-21.2,47.3-47.3c0-26.1-21.2-47.3-47.3-47.3
		c-14,0-26.5,6.1-35.1,15.8h-7.6c9.7-13.1,25.2-21.7,42.8-21.7c29.3,0,53.2,23.9,53.2,53.2c0,29.3-23.9,53.2-53.2,53.2
		c-16.2,0-30.7-7.3-40.4-18.7H813.9z"/>
	<path id="Hamburger_Menu_Icon_1_" class="st0" d="M810.3-774.2H785v-4.8h25.3V-774.2z M810.3-759.7h-36.6v4.8h36.6V-759.7z
		 M810.3-740.4H785v4.8h25.3V-740.4z"/>
	<g>
		<rect x="793.9" y="-780" style="fill:none;" width="105.5" height="65.3"/>
		<text transform="matrix(1 0 0 1 821.9898 -744.6777)" class="st0" style="font-family:'Raleway-SemiBold'; font-size:48.3811px;">17</text>
	</g>
</g>
</svg>
