<?xml version="1.0" encoding="UTF-8" standalone="no"?>
<!-- Generator: Adobe Illustrator 19.2.1, SVG Export Plug-In . SVG Version: 6.00 Build 0)  -->

<svg
   xmlns:dc="http://purl.org/dc/elements/1.1/"
   xmlns:cc="http://creativecommons.org/ns#"
   xmlns:rdf="http://www.w3.org/1999/02/22-rdf-syntax-ns#"
   xmlns:svg="http://www.w3.org/2000/svg"
   xmlns="http://www.w3.org/2000/svg"
   xmlns:sodipodi="http://sodipodi.sourceforge.net/DTD/sodipodi-0.dtd"
   xmlns:inkscape="http://www.inkscape.org/namespaces/inkscape"
   version="1.1"
   id="Ebene_1"
   x="0px"
   y="0px"
   viewBox="0 0 150 150"
   style="enable-background:new 0 0 150 150;"
   xml:space="preserve"
   sodipodi:docname="9.svg"
   inkscape:version="0.92.2 (5c3e80d, 2017-08-06)"><metadata
     id="metadata67"><rdf:RDF><cc:Work
         rdf:about=""><dc:format>image/svg+xml</dc:format><dc:type
           rdf:resource="http://purl.org/dc/dcmitype/StillImage" /></cc:Work></rdf:RDF></metadata><defs
     id="defs65" /><sodipodi:namedview
     pagecolor="#ffffff"
     bordercolor="#666666"
     borderopacity="1"
     objecttolerance="10"
     gridtolerance="10"
     guidetolerance="10"
     inkscape:pageopacity="0"
     inkscape:pageshadow="2"
     inkscape:window-width="1920"
     inkscape:window-height="1138"
     id="namedview63"
     showgrid="false"
     inkscape:zoom="1.5733333"
     inkscape:cx="177.64831"
     inkscape:cy="176.69492"
     inkscape:window-x="-8"
     inkscape:window-y="-8"
     inkscape:window-maximized="1"
     inkscape:current-layer="Ebene_1" /><style
     type="text/css"
     id="style2">
	.st0{fill:#3C3C3C;}
	.st1{fill-rule:evenodd;clip-rule:evenodd;fill:#3C3C3C;}
</style><path
     d="m 75.477757,83.549111 6.253,-0.68967 q 0.22989,1.90808 1.19543,2.82764 0.96553,0.91956 2.55177,0.91956 2.00005,0 3.40237,-1.83912 1.40233,-1.83912 1.79314,-7.63234 -2.43683,2.82765 -6.09208,2.82765 -3.97709,0 -6.8737,-3.05754 -2.87363,-3.080523 -2.87363,-8.000165 0,-5.126543 3.03455,-8.253045 3.05753,-3.149491 7.77028,-3.149491 5.12654,0 8.41396,3.977094 3.28743,3.954105 3.28743,13.034753 0,9.241574 -3.42536,13.333614 -3.42536,4.09204 -8.91973,4.09204 -3.9541,0 -6.39093,-2.092 -2.43683,-2.11499 -3.1265,-6.29898 z m 14.62099,-14.115239 q 0,-3.126501 -1.44831,-4.850675 -1.42531,-1.724174 -3.31041,-1.724174 -1.79314,0 -2.98857,1.425317 -1.17244,1.402328 -1.17244,4.620786 0,3.264435 1.28739,4.804697 1.28738,1.517273 3.21845,1.517273 1.86211,0 3.12651,-1.471295 1.28738,-1.471295 1.28738,-4.321929 z"
     style="font-style:normal;font-variant:normal;font-weight:bold;font-stretch:normal;font-family:Arial;-inkscape-font-specification:'Arial Bold';fill:#3c3c3c;fill-opacity:1;stroke-width:1.17703593"
     id="path884"
     inkscape:connector-curvature="0" /><path
     style="fill:#3c3c3c"
     inkscape:connector-curvature="0"
     id="path34"
     d="m 52.1,109.9 c 8.6,8 20,13 32.6,13 26.4,0 47.9,-21.5 47.9,-47.9 0,-26.4 -21.5,-47.9 -47.9,-47.9 -14.1,0 -26.8,6.2 -35.6,16 H 41.4 C 51.3,29.8 67,21.2 84.8,21.2 c 29.7,0 53.8,24.1 53.8,53.8 0,29.7 -24.1,53.8 -53.8,53.8 -16.4,0 -31,-7.4 -40.9,-18.9 z"
     class="st0" /><path
     style="fill:#3c3c3c"
     inkscape:connector-curvature="0"
     id="path36"
     d="M 48.4,58.6 H 22.8 v -4.9 h 25.6 z m 0,14.7 h -37 v 4.9 h 37 z m 0,19.6 H 22.8 v 4.9 h 25.6 z"
     class="st0" /></svg>