<?xml version="1.0" encoding="UTF-8" standalone="no"?>
<svg
   xmlns:dc="http://purl.org/dc/elements/1.1/"
   xmlns:cc="http://creativecommons.org/ns#"
   xmlns:rdf="http://www.w3.org/1999/02/22-rdf-syntax-ns#"
   xmlns:svg="http://www.w3.org/2000/svg"
   xmlns="http://www.w3.org/2000/svg"
   xmlns:sodipodi="http://sodipodi.sourceforge.net/DTD/sodipodi-0.dtd"
   xmlns:inkscape="http://www.inkscape.org/namespaces/inkscape"
   width="24"
   height="24"
   viewportBox="0 0 24 24"
   version="1.1"
   id="svg4"
   sodipodi:docname="ambient_24dp.svg"
   inkscape:version="0.92.4 (5da689c313, 2019-01-14)"
   inkscape:export-filename="C:\Projekte\Android\!IconLibSrc\ambient_24dp.png"
   inkscape:export-xdpi="1920"
   inkscape:export-ydpi="1920">
  <metadata
     id="metadata10">
    <rdf:RDF>
      <cc:Work
         rdf:about="">
        <dc:format>image/svg+xml</dc:format>
        <dc:type
           rdf:resource="http://purl.org/dc/dcmitype/StillImage" />
      </cc:Work>
    </rdf:RDF>
  </metadata>
  <defs
     id="defs8" />
  <sodipodi:namedview
     pagecolor="#ffffff"
     bordercolor="#666666"
     borderopacity="1"
     objecttolerance="10"
     gridtolerance="10"
     guidetolerance="10"
     inkscape:pageopacity="0"
     inkscape:pageshadow="2"
     inkscape:window-width="1920"
     inkscape:window-height="1137"
     id="namedview6"
     showgrid="false"
     inkscape:zoom="9.8333333"
     inkscape:cx="12"
     inkscape:cy="12"
     inkscape:window-x="-8"
     inkscape:window-y="-8"
     inkscape:window-maximized="1"
     inkscape:current-layer="svg4" />
  <path
     fillColor="#FFFFA619"
     d="M22,11h-4.17l3.24,-3.24 -1.41,-1.42L15,11h-2V9l4.66,-4.66 -1.42,-1.41L13,6.17V2h-2v4.17L7.76,2.93 6.34,4.34 11,9v2H9L4.34,6.34 2.93,7.76 6.17,11H2v2h4.17l-3.24,3.24 1.41,1.42L9,13h2v2l-4.66,4.66 1.42,1.41L11,17.83V22h2v-4.17l3.24,3.24 1.42,-1.41L13,15v-2h2l4.66,4.66 1.41,-1.42L17.83,13H22z"
     id="path2"
     style="fill:#ffa619;fill-opacity:1" />
</svg>
