<?xml version="1.0" encoding="utf-8"?>
<!-- Generator: Adobe Illustrator 19.2.1, SVG Export Plug-In . SVG Version: 6.00 Build 0)  -->
<svg version="1.1" id="Ebene_1" xmlns="http://www.w3.org/2000/svg" xmlns:xlink="http://www.w3.org/1999/xlink" x="0px" y="0px"
	 viewBox="0 0 150 150" style="enable-background:new 0 0 150 150;" xml:space="preserve">
<style type="text/css">
	.st0{fill:#3C3C3C;}
	.st1{fill-rule:evenodd;clip-rule:evenodd;fill:#3C3C3C;}
</style>
<g>
	<polygon class="st0" points="238.6,-219.9 233.2,-214.5 277.5,-170.4 233.2,-126.3 238.6,-121 288.2,-170.4 	"/>
	<line class="st0" x1="158.1" y1="-170.4" x2="280.9" y2="-170.4"/>
	<rect x="188.3" y="-174.3" class="st0" width="92.5" height="7.7"/>
</g>
<g>
	<path class="st0" d="M-139.4-135c8.6,8,20,13,32.6,13c26.4,0,47.9-21.5,47.9-47.9s-21.5-47.9-47.9-47.9c-14.1,0-26.8,6.2-35.6,16
		h-7.7c9.8-13.3,25.5-21.9,43.3-21.9c29.7,0,53.8,24.1,53.8,53.8c0,29.7-24.1,53.8-53.8,53.8c-16.4,0-31-7.4-40.9-18.9H-139.4z"/>
	<path class="st0" d="M-143.1-186.4h-25.6v-4.9h25.6V-186.4z M-143.1-171.7h-37v4.9h37V-171.7z M-143.1-152.1h-25.6v4.9h25.6V-152.1
		z"/>
	<path class="st0" d="M-109.4-161.3v4.8h-18.7v-4.8h7v-17.1c-0.3,0.4-0.8,0.8-1.4,1.2c-0.6,0.4-1.3,0.8-2.1,1.2
		c-0.8,0.4-1.5,0.7-2.3,0.9c-0.8,0.2-1.5,0.4-2.2,0.4v-5c0.7,0,1.4-0.2,2.3-0.6c0.9-0.4,1.7-0.8,2.5-1.4c0.8-0.5,1.5-1,2.1-1.6
		c0.6-0.5,1-0.9,1.1-1.1h5.5v23.1H-109.4z"/>
	<path class="st0" d="M-106.2-156.5c0-1.4,0.1-2.6,0.3-3.8c0.2-1.2,0.6-2.3,1.2-3.3c0.6-1,1.4-2,2.4-2.9c1-0.9,2.3-1.8,3.9-2.7
		c1.1-0.6,2.2-1.2,3.2-1.7c1-0.5,1.9-1,2.7-1.5c0.8-0.5,1.4-1,1.8-1.6c0.5-0.6,0.7-1.2,0.7-2c0-1-0.4-2-1.3-2.8
		c-0.9-0.8-2.2-1.2-3.9-1.2c-0.9,0-1.7,0.1-2.4,0.4c-0.7,0.2-1.4,0.6-2,0.9c-0.6,0.4-1.1,0.8-1.6,1.2c-0.5,0.5-0.9,0.9-1.2,1.3
		l-3.4-4c0.3-0.4,0.8-0.8,1.5-1.3c0.7-0.5,1.5-1.1,2.5-1.5c1-0.5,2.1-0.9,3.4-1.2c1.3-0.3,2.7-0.5,4.2-0.5c1.6,0,3,0.2,4.2,0.6
		c1.3,0.4,2.3,1,3.2,1.7c0.9,0.7,1.5,1.6,2,2.6c0.5,1,0.7,2.1,0.7,3.2c0,1.2-0.2,2.3-0.7,3.2c-0.5,0.9-1.1,1.8-1.8,2.5
		c-0.7,0.7-1.5,1.3-2.3,1.8c-0.8,0.5-1.6,0.9-2.3,1.3c-0.7,0.3-1.5,0.7-2.3,1.2c-0.9,0.4-1.7,0.9-2.5,1.5c-0.8,0.6-1.6,1.2-2.2,1.8
		c-0.7,0.7-1.1,1.4-1.4,2.2h16.2v4.8H-106.2z"/>
</g>
<g>
	<path class="st0" d="M-290.5-135c8.6,8,20,13,32.6,13c26.4,0,47.9-21.5,47.9-47.9s-21.5-47.9-47.9-47.9c-14.1,0-26.8,6.2-35.6,16
		h-7.7c9.8-13.3,25.5-21.9,43.3-21.9c29.7,0,53.8,24.1,53.8,53.8c0,29.7-24.1,53.8-53.8,53.8c-16.4,0-31-7.4-40.9-18.9H-290.5z"/>
	<path class="st0" d="M-294.2-186.4h-25.6v-4.9h25.6V-186.4z M-294.2-171.7h-37v4.9h37V-171.7z M-294.2-152.1h-25.6v4.9h25.6V-152.1
		z"/>
	<path class="st0" d="M-260.8-161.3v4.8h-18.7v-4.8h7v-17.1c-0.3,0.4-0.8,0.8-1.4,1.2c-0.6,0.4-1.3,0.8-2.1,1.2
		c-0.8,0.4-1.5,0.7-2.3,0.9c-0.8,0.2-1.5,0.4-2.2,0.4v-5c0.7,0,1.4-0.2,2.3-0.6c0.9-0.4,1.7-0.8,2.5-1.4c0.8-0.5,1.5-1,2.1-1.6
		c0.6-0.5,1-0.9,1.1-1.1h5.5v23.1H-260.8z"/>
	<path class="st0" d="M-232-170.8c0,2.2-0.3,4.1-1,5.9c-0.6,1.8-1.5,3.4-2.6,4.7c-1.1,1.3-2.4,2.4-4,3.1c-1.5,0.7-3.2,1.1-5,1.1
		c-1.8,0-3.5-0.4-5-1.1c-1.5-0.7-2.9-1.8-4-3.1c-1.1-1.3-2-2.9-2.6-4.7c-0.6-1.8-1-3.8-1-5.9c0-2.2,0.3-4.1,1-5.9
		c0.6-1.8,1.5-3.4,2.6-4.7c1.1-1.3,2.4-2.4,4-3.1c1.5-0.8,3.2-1.1,5-1.1c1.8,0,3.5,0.4,5,1.1c1.5,0.8,2.8,1.8,4,3.1
		c1.1,1.3,2,2.9,2.6,4.7C-232.3-174.9-232-173-232-170.8z M-237.5-170.8c0-1.5-0.2-2.8-0.5-4c-0.3-1.2-0.8-2.3-1.5-3.1
		c-0.6-0.9-1.4-1.6-2.3-2c-0.9-0.5-1.8-0.7-2.8-0.7c-1.1,0-2,0.2-2.9,0.7c-0.9,0.5-1.6,1.2-2.3,2c-0.6,0.9-1.1,1.9-1.5,3.1
		c-0.3,1.2-0.5,2.5-0.5,4c0,1.5,0.2,2.8,0.5,4c0.3,1.2,0.8,2.2,1.5,3.1c0.6,0.9,1.4,1.5,2.3,2c0.9,0.5,1.8,0.7,2.9,0.7
		c1,0,2-0.2,2.8-0.7c0.9-0.5,1.6-1.1,2.3-2c0.6-0.9,1.1-1.9,1.5-3.1C-237.7-168-237.5-169.3-237.5-170.8z"/>
</g>
<path class="st0" d="M-607.1-178.3c0.8-5.8,2.5-11.4,5.1-16.9c2.6-5.5,6-10.3,10.2-14.6c4.2-4.2,9.2-7.6,15-10.2
	c5.8-2.5,12.3-3.8,19.4-3.8c9.5,0,17.5,2.2,24.2,6.5c6.7,4.3,11.7,9.9,15,16.7l-6.3,3.6c-1.9-3.7-4.1-6.8-6.7-9.3
	c-2.5-2.5-5.3-4.5-8.2-6.1c-2.9-1.5-6-2.7-9.2-3.4c-3.2-0.7-6.3-1-9.4-1c-6,0-11.3,1.1-16.1,3.2c-4.7,2.1-8.9,5-12.4,8.6
	c-3.5,3.6-6.4,7.7-8.6,12.3c-2.2,4.6-3.6,9.4-4.3,14.3h53.7l-2.2,5.1h-52v2.8c0,2.4,0.1,4.7,0.4,6.9h48.3l-2.4,5.1h-45
	c1.2,5,3.1,9.6,5.6,13.9c2.5,4.3,5.6,8,9.2,11.1c3.6,3.1,7.6,5.6,12.1,7.5c4.5,1.8,9.2,2.8,14.2,2.8c3.2,0,6.5-0.4,9.9-1.2
	c3.4-0.8,6.6-2,9.7-3.7c3.1-1.7,6-3.9,8.7-6.5c2.7-2.6,4.9-5.8,6.7-9.3l6.6,3.1c-1.8,4-4.2,7.5-7.3,10.6c-3.1,3.1-6.5,5.7-10.3,7.8
	c-3.8,2.1-7.8,3.7-12,4.7c-4.2,1-8.4,1.6-12.5,1.6c-6.2,0-11.9-1.1-17.2-3.4c-5.3-2.3-10-5.4-14.2-9.3c-4.2-3.9-7.7-8.4-10.5-13.5
	c-2.8-5.1-4.9-10.5-6.2-16.1h-17.5l2.2-5.1h14.4c-0.3-2.4-0.4-4.8-0.4-7.3v-2.4h-11.2l2.2-5.1H-607.1z"/>
<g>
	<path class="st0" d="M-441.6-135c8.6,8,20,13,32.6,13c26.4,0,47.9-21.5,47.9-47.9s-21.5-47.9-47.9-47.9c-14.1,0-26.8,6.2-35.6,16
		h-7.7c9.8-13.3,25.5-21.9,43.3-21.9c29.7,0,53.8,24.1,53.8,53.8c0,29.7-24.1,53.8-53.8,53.8c-16.4,0-31-7.4-40.9-18.9H-441.6z"/>
	<path class="st0" d="M-445.3-186.4h-25.6v-4.9h25.6V-186.4z M-445.3-171.7h-37v4.9h37V-171.7z M-445.3-152.1h-25.6v4.9h25.6V-152.1
		z"/>
	<path class="st0" d="M-394.8-163.2c0,1.6-0.3,3-1,4.3c-0.7,1.3-1.6,2.4-2.7,3.3c-1.1,0.9-2.5,1.6-4,2.1c-1.5,0.5-3.1,0.7-4.8,0.7
		c-1.7,0-3.4-0.3-4.9-0.8c-1.5-0.5-2.8-1.3-3.9-2.2c-1.1-0.9-2-2.1-2.6-3.4c-0.6-1.3-1-2.7-1-4.3c0-1,0.2-2,0.5-2.8
		c0.4-0.9,0.8-1.7,1.4-2.4c0.6-0.7,1.2-1.3,1.9-1.8c0.7-0.5,1.4-0.9,2.2-1.3c-1.3-0.6-2.5-1.5-3.4-2.7c-0.9-1.2-1.4-2.6-1.4-4.1
		c0-1.5,0.3-2.8,1-4c0.7-1.2,1.6-2.1,2.6-2.9c1.1-0.8,2.3-1.4,3.6-1.8c1.3-0.4,2.7-0.6,4-0.6c1.3,0,2.6,0.2,4,0.6
		c1.4,0.4,2.6,1,3.7,1.8c1.1,0.8,2,1.8,2.7,2.9c0.7,1.2,1,2.5,1,4c0,1.5-0.5,2.9-1.4,4.1c-1,1.2-2.1,2.1-3.5,2.7
		c0.8,0.4,1.5,0.8,2.3,1.3c0.7,0.5,1.4,1.2,1.9,1.9c0.6,0.7,1,1.5,1.3,2.4C-394.9-165.2-394.8-164.3-394.8-163.2z M-400.2-163.6
		c0-0.9-0.2-1.8-0.6-2.5c-0.4-0.7-0.9-1.4-1.6-1.9c-0.7-0.5-1.4-0.9-2.3-1.2c-0.8-0.3-1.7-0.4-2.5-0.4c-0.9,0-1.7,0.1-2.6,0.4
		c-0.8,0.3-1.6,0.7-2.2,1.2c-0.6,0.5-1.2,1.2-1.5,1.9c-0.4,0.7-0.6,1.6-0.6,2.5c0,0.9,0.2,1.7,0.6,2.5c0.4,0.7,0.9,1.4,1.6,1.9
		c0.7,0.5,1.4,0.9,2.2,1.2c0.8,0.3,1.7,0.4,2.5,0.4c0.9,0,1.7-0.1,2.6-0.4c0.8-0.3,1.6-0.7,2.2-1.2c0.7-0.5,1.2-1.1,1.6-1.9
		C-400.4-161.9-400.2-162.7-400.2-163.6z M-413-178.4c0,0.8,0.2,1.5,0.5,2.1c0.4,0.6,0.8,1.1,1.4,1.5c0.6,0.4,1.2,0.7,1.9,0.9
		c0.7,0.2,1.4,0.3,2.1,0.3c0.7,0,1.4-0.1,2.1-0.3c0.7-0.2,1.3-0.5,1.9-0.9c0.6-0.4,1-0.9,1.4-1.5c0.4-0.6,0.5-1.3,0.5-2.1
		c0-0.7-0.2-1.4-0.5-1.9c-0.3-0.6-0.8-1.1-1.3-1.5c-0.5-0.4-1.2-0.7-1.9-0.9c-0.7-0.2-1.4-0.3-2.2-0.3c-0.8,0-1.5,0.1-2.2,0.3
		c-0.7,0.2-1.3,0.5-1.9,1c-0.5,0.4-1,0.9-1.3,1.5C-412.9-179.8-413-179.1-413-178.4z"/>
</g>
<path class="st0" d="M78.1,31.3l50.1,92.6H22.3L78.1,31.3z M78.3,21l-4.6,7.7l-55.8,92.6l-4.7,7.7h9h105.9h8.6l-4.1-7.5L82.6,28.8
	L78.3,21z"/>
<path class="st0" d="M73.6,67.4h5.6v23.7h-5.6V67.4z M73.6,97.1h5.6v7h-5.6V97.1z"/>
<polygon class="st0" points="555.5,-170.6 559.8,-174.8 594.6,-139.9 663.9,-209.4 668.1,-205.2 594.6,-131.4 "/>
<path class="st1" d="M745.9-124.6h120.6v-91.7H745.9V-124.6z M856.9-211.4l-50.7,50.7l-50.7-50.7H856.9z M861.7-129.4h-111V-209
	l55.5,55.5l55.5-55.5V-129.4z"/>
<path class="st1" d="M1031.9-175.2h-4.8V-197c0-14.7-11.9-26.5-26.5-26.5c-14.7,0-26.5,11.9-26.5,26.5v21.7h-4.8
	c-2.7,0-4.8,2.2-4.8,4.8v48.3c0,2.7,2.2,4.8,4.8,4.8h62.7c2.7,0,4.8-2.2,4.8-4.8v-48.3C1036.7-173.1,1034.6-175.2,1031.9-175.2
	 M978.8-197c0-12,9.7-21.7,21.7-21.7c12,0,21.7,9.7,21.7,21.7v21.7h-43.4V-197z M1031.9-124.6c0,1.3-1.1,2.4-2.4,2.4h-57.9
	c-1.3,0-2.4-1.1-2.4-2.4V-168c0-1.3,1.1-2.4,2.4-2.4h57.9c1.3,0,2.4,1.1,2.4,2.4V-124.6z"/>
<g>
	<polygon class="st0" points="402.1,-121 407.4,-126.3 363.2,-170.4 407.4,-214.5 402.1,-219.9 352.5,-170.4 	"/>
	<line class="st0" x1="482.6" y1="-170.4" x2="359.8" y2="-170.4"/>
	<rect x="359.8" y="-174.3" class="st0" width="92.5" height="7.7"/>
</g>
<path class="st0" d="M71.2-197.5h-84.7v-7.1h84.7V-197.5z M41-174h-54.5v7.1H41V-174z M71.2-143.4h-84.7v7.1h84.7V-143.4z"/>
</svg>
