<?xml version="1.0" encoding="UTF-8" standalone="no"?>
<!-- Created with Inkscape (http://www.inkscape.org/) -->

<svg
   xmlns:dc="http://purl.org/dc/elements/1.1/"
   xmlns:cc="http://creativecommons.org/ns#"
   xmlns:rdf="http://www.w3.org/1999/02/22-rdf-syntax-ns#"
   xmlns:svg="http://www.w3.org/2000/svg"
   xmlns="http://www.w3.org/2000/svg"
   xmlns:sodipodi="http://sodipodi.sourceforge.net/DTD/sodipodi-0.dtd"
   xmlns:inkscape="http://www.inkscape.org/namespaces/inkscape"
   width="150"
   height="150"
   viewBox="0 0 39.6875 39.6875"
   version="1.1"
   id="svg196"
   inkscape:version="0.92.2 (5c3e80d, 2017-08-06)"
   sodipodi:docname="collo.svg">
  <defs
     id="defs190" />
  <sodipodi:namedview
     id="base"
     pagecolor="#ffffff"
     bordercolor="#666666"
     borderopacity="1.0"
     inkscape:pageopacity="0.0"
     inkscape:pageshadow="2"
     inkscape:zoom="2.8"
     inkscape:cx="175.45717"
     inkscape:cy="50.626772"
     inkscape:document-units="mm"
     inkscape:current-layer="layer1"
     showgrid="false"
     fit-margin-top="0"
     fit-margin-left="0"
     fit-margin-right="0"
     fit-margin-bottom="0"
     inkscape:window-width="1920"
     inkscape:window-height="1138"
     inkscape:window-x="-8"
     inkscape:window-y="-8"
     inkscape:window-maximized="1"
     units="px" />
  <metadata
     id="metadata193">
    <rdf:RDF>
      <cc:Work
         rdf:about="">
        <dc:format>image/svg+xml</dc:format>
        <dc:type
           rdf:resource="http://purl.org/dc/dcmitype/StillImage" />
        <dc:title></dc:title>
      </cc:Work>
    </rdf:RDF>
  </metadata>
  <g
     inkscape:label="Ebene 1"
     inkscape:groupmode="layer"
     id="layer1"
     transform="translate(-83.442024,5.7305777)">
    <g
       transform="matrix(0.26458333,0,0,0.26458333,83.442024,-5.9819316)"
       id="g118">
      <g
         id="g104">
        <path
           inkscape:connector-curvature="0"
           class="st0"
           d="M 66.1,83.4 1.8,65.3 23.4,35.5 68.7,18.7 l 58.4,8 21.1,30.6 L 98,81.7 84.4,55.7 Z M 10.1,62.4 64,77.6 80.6,52.4 26,40.4 Z M 33.8,37 86.3,48.5 100.2,75 l 40.6,-19.7 -16.5,-24 -55,-7.6 z"
           id="path102" />
      </g>
      <g
         id="g108">
        <rect
           x="82"
           y="37.400002"
           transform="matrix(0.8847,-0.4663,0.4663,0.8847,-6.4855,53.6388)"
           class="st0"
           width="46.400002"
           height="5"
           id="rect106" />
      </g>
      <g
         id="g112">
        <polygon
           class="st0"
           points="125.7,64.3 130.7,64.3 130.7,107.9 84.9,133.2 22.5,114.3 22.5,69.2 27.5,69.2 27.5,110.6 84.4,127.8 125.7,104.9 "
           id="polygon110" />
      </g>
      <g
         id="g116">
        <rect
           x="82.199997"
           y="50.700001"
           class="st0"
           width="5"
           height="79.800003"
           id="rect114" />
      </g>
    </g>
  </g>
</svg>
