<?xml version="1.0" standalone="no"?>
<!DOCTYPE svg PUBLIC "-//W3C//DTD SVG 1.1//EN" "http://www.w3.org/Graphics/SVG/1.1/DTD/svg11.dtd" >
<svg xmlns="http://www.w3.org/2000/svg" xmlns:xlink="http://www.w3.org/1999/xlink" version="1.1">
<metadata>
Created by FontForge 20170731 at Wed Aug  7 15:01:31 2019
 By Aleksey,,,
Copyright (c) 2019 by __Designer__.
</metadata>
<defs>
<font id="DaysOne-Italic" horiz-adv-x="1397" >
  <font-face 
    font-family="Days One"
    font-weight="400"
    font-style="italic"
    font-stretch="normal"
    units-per-em="2048"
    panose-1="2 0 5 5 0 0 0 2 0 4"
    ascent="1638"
    descent="-410"
    x-height="1095"
    cap-height="1434"
    bbox="-204.446 -567.052 2558.55 2030"
    underline-thickness="50"
    underline-position="-200"
    unicode-range="U+0020-E000"
  />
<missing-glyph horiz-adv-x="717" 
 />
    <glyph glyph-name=".notdef" horiz-adv-x="717" 
 />
    <glyph glyph-name=".null" horiz-adv-x="0" 
 />
    <glyph glyph-name="nonmarkingreturn" horiz-adv-x="682" 
 />
    <glyph glyph-name="space" unicode=" " horiz-adv-x="717" 
 />
    <glyph glyph-name="exclam" unicode="!" horiz-adv-x="755" 
d="M226 1338l-43 -821q-1 -38 23 -65q23 -26 63 -26h158q39 0 68 26q30 28 34 65l100 821q6 40 -21 67q-25 28 -65 28h-215q-40 0 -69 -28q-31 -27 -33 -67zM401 324h-123q-63 0 -103 -35q-38 -37 -44 -101l-5 -63q-6 -62 26 -99q32 -36 97 -36h123q66 0 104 36q37 35 43 99
l5 63q12 136 -123 136z" />
    <glyph glyph-name="quotedbl" unicode="&#x22;" horiz-adv-x="804" 
d="M69 1352l-6 -426q0 -36 21 -59t56 -23h62q33 0 58 23q24 23 33 59l67 426q4 34 -15 58q-21 24 -58 24h-131q-37 0 -61 -24q-24 -23 -26 -58zM459 1352l-7 -426q0 -36 21 -59t55 -23h62q35 0 60 23t32 59l67 426q5 35 -16 58q-19 24 -56 24h-132q-35 0 -61 -24
q-24 -24 -25 -58z" />
    <glyph glyph-name="numbersign" unicode="#" horiz-adv-x="1771" 
d="M208 0h114q138 0 172 94l87 234h297l-87 -234q-6 -22 -6 -31q-6 -63 53 -63h115q138 0 172 94l87 234h280q28 0 44 17q17 15 20 44l10 119q3 27 -13 44q-15 17 -42 17h-211l110 295h244q27 0 44 17t22 45l10 118q1 26 -14 44q-14 18 -41 18h-176l87 233q7 18 8 32
q3 63 -55 63h-115q-136 -1 -172 -95l-87 -233h-297l87 233q6 14 8 32q3 63 -54 63h-115q-136 -1 -172 -95l-88 -233h-278q-26 0 -46 -18t-21 -44l-11 -118q-2 -28 14 -45q14 -17 43 -17h210l-110 -295h-217q-25 0 -44 -17q-18 -18 -22 -44l-11 -119q-2 -28 13 -44
q16 -17 43 -17h150l-87 -234q-5 -17 -6 -31q-6 -63 54 -63zM660 563l113 307h309l-113 -307h-309z" />
    <glyph glyph-name="dollar" unicode="$" horiz-adv-x="1622" 
d="M62 360q-14 -158 142 -263t360 -105h43l-8 -92q-2 -27 14 -44q15 -18 42 -18h74l13 154h55l-13 -154h74q26 0 46 18t21 44l9 94q313 11 450 118q138 108 155 302t-157 294q-140 84 -374 136l27 313q132 -11 168 -102q36 -92 126 -92h119q32 0 70 26q36 25 42 84
q13 156 -142 262q-155 105 -358 107l8 92q3 26 -13 44q-17 17 -43 17h-74l-14 -153h-55l14 153h-74q-26 0 -45 -17q-19 -16 -22 -44l-8 -94q-312 -14 -447 -119q-137 -106 -154 -297q-14 -151 96 -253q115 -110 431 -179l-28 -318h-8q-165 2 -202 99q-39 98 -129 98h-119
q-34 0 -70 -26q-38 -26 -42 -85zM512 1044q9 115 186 115h12l-22 -246q-91 25 -135.5 58t-40.5 73zM820 883l25 276h55l-26 -287zM767 274l25 287l54 -10l-24 -277h-55zM958 274l22 246q94 -26 139 -58.5t41 -72.5q-11 -115 -186 -115h-16z" />
    <glyph glyph-name="percent" unicode="%" horiz-adv-x="1642" 
d="M159 880q90 -89 241 -89q152 0 257 89q107 88 121 242q14 153 -78 243q-94 89 -242 89q-149 0 -256 -89q-107 -90 -121 -243t78 -242zM62 56q-6 -56 48 -56h160q100 0 182 94l1107 1245q19 23 21 39q2 17 -1 25q-8 31 -47 31h-160q-99 -1 -182 -95l-1106 -1245
q-20 -22 -22 -38zM355 1229q33 39 87 39t81 -39t21 -107t-40 -106q-33 -39 -87 -39t-81 39t-21 106q6 69 40 107zM942 71q92 -89 242 -89q149 0 256 89q107 88 121 242q13 153 -78 243q-92 89 -241 89q-150 0 -257 -89q-108 -90 -121 -243q-14 -153 78 -242zM1138 420
q33 39 87 39t81 -39t21 -107t-40 -106q-33 -39 -87 -39t-81 39t-21 106q6 69 40 107z" />
    <glyph glyph-name="ampersand" unicode="&#x26;" horiz-adv-x="1510" 
d="M63 424q-18 -208 116 -326q132 -117 387 -119q251 0 459 125q32 -34 56 -54q61 -50 138 -50h228q56 0 62 58q0 16 -18 36l-236 230l135 172q16 20 17 41q3 22 -26 45l-102 73q-45 30 -83 -16l-111 -141l-320 301q-78 72 -116 132t-32 133q6 72 58 109q53 39 141 39
q171 0 223 -94q40 -74 109 -74h133q25 0 45 17q20 20 21 45q15 171 -123 260q-138 88 -390 88q-254 0 -402 -117q-150 -115 -165 -290q-12 -137 70 -234q-250 -111 -274 -389zM399 424q10 128 116 178l328 -321q-93 -60 -216 -60q-246 0 -228 203z" />
    <glyph glyph-name="quotesingle" unicode="'" horiz-adv-x="425" 
d="M70 1352l-7 -426q1 -37 22 -59q20 -23 55 -23h62q33 0 59 23q25 23 32 59l67 426q6 34 -15 58t-57 24h-131q-38 0 -62 -24q-25 -25 -25 -58z" />
    <glyph glyph-name="parenleft" unicode="(" horiz-adv-x="736" 
d="M580 1510q-231 -146 -360 -380q-130 -234 -154 -505q-23 -271 66 -505q91 -240 294 -381q12 -11 24 -9q18 2 27 5q16 4 33 26l65 95q6 9 8 28q3 19 -26 54q-213 296 -179 687q34 392 299 687q34 34 36 53q1 18 -4 29l-48 94q-15 23 -28 27q-15 6 -26 6t-27 -11z" />
    <glyph glyph-name="parenright" unicode=")" horiz-adv-x="735" 
d="M26 -143l49 -95q12 -22 37 -28q4 -4 17 -4q12 0 26 10q230 143 360 380q131 237 153 505q24 267 -65 505q-89 236 -293 379q-12 11 -37 11q-23 0 -47 -33l-65 -94q-7 -10 -9 -29q-1 -16 26 -53q213 -293 180 -686q-35 -394 -300 -686q-34 -37 -35 -54q-2 -19 3 -28z" />
    <glyph glyph-name="asterisk" unicode="*" horiz-adv-x="895" 
d="M63 914q0 -16 7 -29l34 -76q10 -23 33 -30q22 -7 49 7l140 82l-15 -157q-3 -24 13 -40q15 -16 43 -16h94q27 0 46 16q18 15 21 40l11 157l126 -82q24 -14 47 -7q26 7 39 30l48 76q10 14 11 41q3 27 -27 43l-136 75l149 76q33 17 36 58q1 12 -5 26l-35 76q-9 22 -33 30
q-21 7 -49 -7l-140 -82l16 157q2 26 -14 40q-16 16 -43 16h-94q-27 0 -46 -16q-19 -15 -20 -40l-12 -157l-126 82q-24 14 -47 7q-24 -7 -39 -30l-47 -76q-11 -14 -11 -25q0 -18 1 -29q3 -18 24 -30l138 -76l-151 -75q-27 -13 -36 -55z" />
    <glyph glyph-name="plus" unicode="+" horiz-adv-x="968" 
d="M41 569q-1 -27 13 -44q17 -17 43 -17h250l-23 -262q-3 -26 13 -44q17 -18 43 -18h118q28 0 46 18q19 16 22 44l23 262h262q26 0 46 17q18 18 21 44l10 119q3 26 -13 45q-17 17 -43 17h-262l22 249q2 28 -14 45q-17 17 -43 17h-118q-26 0 -46 -17q-19 -18 -21 -45
l-22 -249h-250q-25 0 -45 -17q-19 -18 -21 -45z" />
    <glyph glyph-name="comma" unicode="," horiz-adv-x="586" 
d="M383 324h-82q-51 0 -100 -34q-48 -32 -62 -81l-87 -322q-6 -25 -9 -54q-3 -27 12 -54q13 -27 77 -27h39q53 0 98 33q43 32 70 82l145 301q17 34 20 61q4 48 -26 71.5t-95 23.5z" />
    <glyph glyph-name="hyphen" unicode="-" horiz-adv-x="968" 
d="M41 569q-3 -27 13 -44q15 -17 42 -17h754q26 0 46 17q20 18 21 44l11 119q2 28 -14 45q-14 17 -43 17h-754q-27 0 -45 -17q-18 -18 -21 -45z" />
    <glyph glyph-name="period" unicode="." horiz-adv-x="564" 
d="M358 324h-123q-63 0 -103 -35q-38 -35 -44 -101l-5 -63q-6 -62 26 -99q31 -36 97 -36h123q67 0 104 36q37 35 43 99l5 63q12 136 -123 136z" />
    <glyph glyph-name="slash" unicode="/" horiz-adv-x="1172" 
d="M45 0h168q126 0 182 94l758 1245q16 25 19 47q3 48 -45 48h-168q-128 0 -182 -95l-759 -1245q-17 -24 -18 -47q-5 -47 45 -47z" />
    <glyph glyph-name="zero" unicode="0" horiz-adv-x="1640" 
d="M66 717q-36 -402 163 -571q179 -154 492 -154h70q312 0 520 154q227 168 263 571q35 400 -164 570q-181 155 -492 155h-70q-311 0 -519 -155q-109 -80 -178 -225q-67 -143 -85 -345zM858 1159q377 0 339 -443q-39 -442 -416 -442t-338 442q39 443 415 443z" />
    <glyph glyph-name="one" unicode="1" horiz-adv-x="832" 
d="M10 1085l68 -96q16 -19 40 -23q26 -5 47 9l122 84l-84 -967q-4 -38 21 -65q26 -27 64 -27h186q40 0 71 28q30 26 35 66l109 1245q3 38 -23 67q-25 28 -66 28h-147q-94 -1 -151 -48l-263 -210q-36 -29 -37 -51q-2 -25 8 -40z" />
    <glyph glyph-name="two" unicode="2" horiz-adv-x="1518" 
d="M62 94q-4 -38 23 -67q25 -27 65 -27h1110q38 0 70 27q31 28 34 67l9 94q3 39 -22 67q-26 28 -66 28h-830q8 83 199 135q152 38 186 46q103 24 206 63q102 37 190 90t146 142q61 89 71 216q12 126 -26 223q-96 244 -535 244h-135q-137 0 -275 -46q-133 -46 -229 -138
q-96 -91 -106 -205q-3 -42 21 -76q23 -35 73 -35h119q89 0 143 94q72 123 265 123h71q137 0 192 -41q54 -42 45 -153q-9 -103 -200 -159q-79 -23 -187 -48q-107 -25 -206 -61q-104 -39 -190 -91q-89 -56 -147 -146q-60 -93 -72 -220z" />
    <glyph glyph-name="three" unicode="3" horiz-adv-x="1517" 
d="M52 391q-17 -177 150 -288q166 -111 391 -111h213q285 0 440 103q156 102 177 333q16 190 -132 289q145 103 162 287q19 219 -121.5 328.5t-441.5 109.5h-138q-143 0 -275 -46q-136 -47 -229 -137q-96 -91 -105 -206q-5 -41 20 -76q24 -35 72 -35h119q91 0 143 94
q73 123 265 123h74q134 0 190 -34q58 -34 50 -119t-71 -119q-64 -35 -196 -35h-147q-38 0 -67 -28q-29 -29 -32 -66l-7 -82q-4 -38 22 -66q25 -28 64 -28h180q124 0 177 -35q55 -35 47 -119q-7 -83 -68 -119q-61 -35 -183 -35h-143q-190 0 -234 114q-42 114 -136 114h-118
q-33 0 -70 -25t-42 -86z" />
    <glyph glyph-name="four" unicode="4" horiz-adv-x="1545" 
d="M21 346q-4 -39 23 -66q27 -28 66 -28h814l-14 -160q-3 -40 22 -65q26 -27 64 -27h186q40 0 71 28q30 26 35 66l13 158h110q40 0 71 28q30 26 35 66l8 94q3 39 -22 67t-67 28h-110l70 804q4 38 -22 67q-25 28 -66 28h-313q-101 -1 -162 -62l-726 -751q-69 -69 -76 -156z
M439 535l561 579l-51 -579h-510z" />
    <glyph glyph-name="five" unicode="5" horiz-adv-x="1502" 
d="M83 346q-13 -151 133 -253q144 -101 370 -101h228q284 0 441 106q157 107 178 348q21 242 -117 348q-137 106 -422 106h-334l22 250h746q41 0 71 27q29 27 33 67l8 94q3 41 -21 68q-25 27 -66 27h-1030q-39 0 -69 -27q-30 -29 -33 -68l-55 -627q-3 -39 22 -66t64 -27h582
q123 0 177 -39q53 -39 46 -133q-9 -94 -69 -133q-62 -39 -184 -39h-158q-164 0 -206 91q-42 92 -126 92h-119q-32 0 -69 -26q-37 -25 -43 -85z" />
    <glyph glyph-name="six" unicode="6" horiz-adv-x="1558" 
d="M86 483q-24 -269 112 -381q137 -110 425 -110h219q285 0 440 103q157 103 178 345t-117 345q-140 104 -423 104h-422l4 37q12 135 71 184q60 49 182 49h185q155 0 201 -88q45 -88 124 -88h118q33 0 70 25t42 86q14 149 -128 248q-142 100 -368 100h-254q-286 0 -441 -116
q-155 -117 -179 -400zM463 483l11 123h387q123 0 177 -36q54 -35 45 -130q-7 -94 -68 -130q-60 -36 -183 -36h-150q-127 0 -179 43q-50 43 -40 166z" />
    <glyph glyph-name="seven" unicode="7" horiz-adv-x="1314" 
d="M20 1245q-3 -38 23 -67q25 -27 66 -27h766l-671 -1067q-19 -30 -5 -58q15 -26 55 -26h204q80 0 140 94l610 971q70 111 76 182l8 92q4 38 -22 67q-28 28 -65 28h-1071q-39 0 -70 -28q-32 -29 -35 -67z" />
    <glyph glyph-name="eight" unicode="8" horiz-adv-x="1552" 
d="M194 106q150 -114 402 -114h282q252 0 422 114q169 112 189 334q19 220 -164 322q145 110 159 264q9 113 -29 194q-38 83 -113 130q-149 92 -384 92h-188q-233 0 -399 -92q-82 -46 -136 -130q-53 -83 -62 -194q-14 -153 112 -264q-203 -104 -222 -323q-18 -221 131 -333z
M603 1126q60 33 183 33h102q123 0 178 -33q54 -35 47 -114q-6 -79 -67 -114q-59 -34 -183 -34h-102q-125 0 -178 34q-54 35 -47 114q6 79 67 114zM508 555q61 35 184 35h196q122 0 177 -35q54 -35 47 -123q-8 -87 -69 -123q-61 -35 -183 -35h-196q-122 0 -177 35t-47 123
q7 88 68 123z" />
    <glyph glyph-name="nine" unicode="9" horiz-adv-x="1557" 
d="M715 1442q-284 0 -442 -104q-156 -104 -177 -345t117 -345q137 -103 423 -103h422l-3 -37q-12 -136 -72 -185q-58 -49 -182 -49h-184q-156 0 -202 88q-45 89 -123 89h-119q-31 0 -69 -26q-37 -25 -42 -85q-13 -150 128 -249q142 -99 367 -99h254q287 0 442 115
q153 115 179 401l39 442q24 271 -112 381q-137 111 -425 111h-219zM696 827q-123 0 -177 36q-55 37 -46 130q7 94 68 130q62 36 184 36h149q125 0 179 -43q51 -44 41 -166l-11 -123h-387z" />
    <glyph glyph-name="colon" unicode=":" horiz-adv-x="634" 
d="M275 782h123q135 0 147 136l6 63q5 64 -26 99q-31 36 -98 36h-123q-64 0 -103 -36q-39 -37 -43 -99l-6 -63q-12 -136 123 -136zM358 324h-123q-67 0 -103 -35q-38 -35 -44 -101l-5 -63q-6 -62 26 -99q30 -36 97 -36h123q65 0 103 36q38 35 44 99l5 63q12 136 -123 136z
" />
    <glyph glyph-name="semicolon" unicode=";" horiz-adv-x="663" 
d="M304 782h123q135 0 147 136l6 63q5 64 -26 99q-32 36 -97 36h-123q-65 0 -104 -36q-37 -35 -43 -99l-6 -63q-12 -136 123 -136zM52 -113q-7 -23 -10 -54q-2 -29 13 -54q13 -27 77 -27h39q53 0 99 33q44 32 69 82l146 301q34 73 7 114q-29 42 -109 42h-82q-51 0 -100 -34
q-50 -35 -62 -81z" />
    <glyph glyph-name="less" unicode="&#x3c;" horiz-adv-x="866" 
d="M21 522q-6 -66 51 -108l533 -404q33 -23 61 -9q28 13 31 50l15 172q6 74 -76 135l-250 189l283 188q92 61 100 135l15 172q3 36 -22 50q-26 14 -63 -9l-604 -403q-65 -45 -69 -109z" />
    <glyph glyph-name="equal" unicode="=" horiz-adv-x="1046" 
d="M98 776q-3 -27 14 -44q14 -17 43 -17h753q28 0 45 17q19 16 22 44l10 119q3 25 -13 44q-15 17 -42 17h-754q-27 0 -46 -17q-19 -18 -22 -44zM61 354q-3 -27 14 -44q14 -17 43 -17h754q27 0 45 17q18 16 21 44l10 119q3 25 -13 44q-15 18 -42 18h-754q-28 0 -46 -18
q-19 -18 -22 -44z" />
    <glyph glyph-name="greater" unicode="&#x3e;" horiz-adv-x="865" 
d="M82 51q-3 -36 23 -50q8 -5 23 -5q14 0 39 14l604 404q63 42 69 108l5 49q4 66 -51 109l-534 403q-20 15 -35 15q-13 0 -25 -5q-28 -14 -31 -51l-15 -172q-6 -74 76 -135l250 -188l-283 -189q-92 -61 -100 -135z" />
    <glyph glyph-name="question" unicode="?" horiz-adv-x="1318" 
d="M20 1053q-3 -43 20 -76q24 -35 73 -35h119q90 0 144 94q70 123 237 123h51q119 0 170 -39q52 -39 44 -119q-6 -81 -126 -133q-56 -25 -111 -55q-55 -29 -113 -71q-52 -37 -91 -103q-38 -65 -46 -152q-3 -25 13 -44q17 -17 43 -17h225q61 0 67 72q4 37 55 73q50 35 124 68
q82 36 145 70q75 40 128 112q55 73 64 174q39 447 -537 447h-115q-204 0 -386 -110t-197 -279zM339 125q-6 -65 27 -99q33 -36 96 -36h123q63 0 102 36q39 34 45 99l5 63q6 66 -27 101t-96 35h-123q-62 0 -102 -35q-39 -34 -45 -101z" />
    <glyph glyph-name="at" unicode="@" horiz-adv-x="1718" 
d="M66 655q-33 -374 167 -586t572 -212q195 0 352 30q25 5 45 21q19 18 21 41l8 94q3 25 -13 46q-17 20 -42 20h-29q-24 0 -104 -16q-83 -15 -219 -15q-257 0 -391 158q-133 159 -111 419q23 260 183 419q161 159 411 159q252 0 376 -114q125 -112 104 -353
q-26 -297 -164 -297l23 268q13 151 -80 225q-94 74 -254 74q-372 0 -390 -196q-2 -20 10 -30q11 -11 28 -11h101q55 0 82 37q45 45 128 45t113 -32q30 -33 23 -112h-226q-143 0 -238 -62q-96 -61 -106 -175q-9 -113 75 -176q85 -62 227 -62q143 0 255 76l-2 -23
q-1 -16 10 -29q12 -12 29 -12h96q239 0 368 137q130 139 148 355q31 353 -158 521q-191 167 -556 167q-364 0 -602 -212q-237 -213 -270 -587zM716 560q30 24 80 24h207l-10 -107q-100 -61 -206 -61q-52 0 -81 23q-28 24 -25 61t35 60z" />
    <glyph glyph-name="A" unicode="A" horiz-adv-x="1729" 
d="M821 1434h462q137 0 225.5 -97t76.5 -234l-88 -1011q-5 -40 -34 -65q-30 -27 -69 -27h-188q-40 0 -66 27q-25 26 -20 67l22 252h-689l-45 -252q-6 -42 -39 -67q-33 -27 -72 -27h-197q-39 0 -57 23q-20 23 -20 39q-1 16 0 30l168 952q67 388 630 390zM1167 629l37 431
q4 37 -20 64t-62 27h-313q-98 0 -163 -55q-66 -52 -84 -146l-60 -321h665z" />
    <glyph glyph-name="B" unicode="B" horiz-adv-x="1690" 
d="M222 1339l-109 -1245q-4 -38 22 -66q25 -28 64 -28h860q224 0 387 112q163 113 182 330q18 217 -164 320q145 110 157 257q13 147 -57 243q-128 172 -426 172h-813q-37 0 -70 -28q-30 -29 -33 -67zM558 877l25 286h535q63 0 98 -38q34 -37 28 -106q-6 -68 -47 -105
q-40 -37 -104 -37h-535zM505 270l30 344h572q77 0 114 -46t30 -126q-8 -80 -52 -126q-45 -46 -122 -46h-572z" />
    <glyph glyph-name="C" unicode="C" horiz-adv-x="1705" 
d="M203 169q171 -177 541 -177h244q229 0 411 118q185 117 203 322q3 42 -21 76q-23 35 -72 35h-119q-93 0 -153 -111q-87 -158 -259 -158h-199q-218 0 -289 95q-69 95 -47 348t108 348q87 94 305 94h178q172 0 232 -158q42 -110 134 -110h119q32 0 70 26q37 25 42 84
q18 205 -146 323q-163 118 -391 118h-223q-371 0 -572 -177q-202 -179 -233 -548q-33 -370 137 -548z" />
    <glyph glyph-name="D" unicode="D" horiz-adv-x="1748" 
d="M144 92q-4 -37 22 -65q26 -27 65 -27h558q433 0 647 173q212 173 245 544q33 370 -150 544q-182 173 -616 173h-559q-40 0 -69 -28q-31 -27 -34 -69zM537 283l76 868h266q270 0 357 -98q89 -100 68 -336q-21 -237 -126 -336q-107 -98 -375 -98h-266z" />
    <glyph glyph-name="E" unicode="E" horiz-adv-x="1635" 
d="M144 96q-4 -40 22 -68q25 -28 64 -28h1148q40 0 69 28q31 27 34 66l9 96q3 39 -22 66q-24 27 -62 27h-869l26 295h750q39 0 69 27q30 30 33 67l8 94q3 39 -22 66q-24 28 -64 28h-750l26 291h871q39 0 69 27q30 29 33 67l8 94q3 39 -21 67q-26 28 -64 28h-1153
q-38 0 -70 -27q-30 -27 -33 -66z" />
    <glyph glyph-name="F" unicode="F" horiz-adv-x="1615" 
d="M144 96q-4 -40 22 -69q26 -27 64 -27h188q39 0 69 27q30 28 34 69l36 420h709q39 0 69 27q29 26 34 67l8 95q3 38 -22 66q-26 28 -64 28h-709l31 352h871q39 0 69 27t33 67l8 94q4 37 -21 67q-26 28 -64 28h-1153q-38 0 -70 -27q-30 -27 -33 -66z" />
    <glyph glyph-name="G" unicode="G" horiz-adv-x="1701" 
d="M196 171q162 -179 494 -179h225q325 0 506 150q181 152 205 431l10 111q3 39 -22 66q-24 28 -64 28h-502q-40 0 -68 -28q-31 -28 -34 -66l-7 -78q-3 -39 22 -67q25 -27 64 -27h226q-12 -115 -86 -177q-74 -61 -236 -61h-205q-180 0 -241 96q-61 97 -40 349
q23 252 109 346t305 94h178q201 0 243 -98t129 -98h119q33 0 70 25q38 26 42 85q14 158 -154 263q-167 106 -390 106h-222q-372 0 -572 -178q-201 -177 -234 -546q-32 -369 130 -547z" />
    <glyph glyph-name="H" unicode="H" horiz-adv-x="1838" 
d="M143 94q-3 -38 23 -67q27 -27 66 -27h186q38 0 69 26q30 29 33 66l45 514h688l-45 -514q-4 -38 22 -66q26 -26 65 -26h186q39 0 70 27q31 30 34 67l109 1244q3 40 -22 67q-25 28 -66 28h-186q-40 0 -69 -28q-31 -26 -34 -67l-40 -449h-687l39 449q3 40 -22 67
q-24 28 -64 28h-186q-42 0 -71 -28q-31 -28 -34 -67z" />
    <glyph glyph-name="I" unicode="I" horiz-adv-x="773" 
d="M143 92q-3 -39 22 -65q25 -27 65 -27h186q37 0 70 28q31 28 34 66l109 1245q3 40 -22 67q-24 28 -66 28h-186q-40 0 -69 -28q-31 -28 -34 -67z" />
    <glyph glyph-name="J" unicode="J" horiz-adv-x="1239" 
d="M145 301h-33q-40 0 -70 -27q-29 -29 -32 -67l-10 -113q-3 -39 22 -66q25 -28 64 -28h283q291 0 473 140q182 139 205 395l70 804q3 39 -22 67t-67 28h-186q-40 0 -69 -28q-30 -29 -33 -67l-70 -807q-12 -135 -80 -192t-206 -57h-72z" />
    <glyph glyph-name="K" unicode="K" horiz-adv-x="1741" 
d="M1622 42q2 22 -13 50l-215 398q-43 78 -109 150q-63 69 -128 83q94 22 159 79q64 56 118 142l251 393q21 33 22 55q2 21 -9 31.5t-35 10.5h-231q-92 -2 -153 -97l-179 -276q-69 -107 -140 -155q-70 -48 -158 -48h-215l41 479q5 39 -21 68t-64 29h-188q-38 0 -70 -29
q-30 -28 -33 -68l-109 -1243q-3 -39 22 -67q26 -29 64 -29h188q39 0 69 27q30 25 33 65l43 486h215q91 0 149 -51q60 -53 114 -154l151 -279q23 -40 65 -66q41 -28 81 -28h229q51 0 56 44z" />
    <glyph glyph-name="L" unicode="L" horiz-adv-x="1513" 
d="M143 92q-3 -40 22 -65q25 -27 65 -27h1153q40 0 69 28q30 27 33 66l8 94q3 40 -21 67q-25 28 -65 28h-870l92 1054q3 41 -22 69q-24 28 -64 28h-188q-40 0 -69 -28q-31 -30 -34 -69z" />
    <glyph glyph-name="M" unicode="M" horiz-adv-x="2227" 
d="M144 96q-4 -40 22 -68q25 -28 64 -28h180q40 0 69 28q29 26 34 68l85 977l266 -983q12 -38 44 -63q32 -27 71 -27h143q40 0 76 27q38 26 55 63l439 983l-85 -977q-5 -41 21 -68q25 -28 64 -28h180q40 0 69 28q30 27 33 68l109 1241q3 42 -20 69q-24 28 -63 28h-407
q-40 0 -77 -28q-36 -28 -53 -67l-369 -854l-221 854q-7 38 -41 67q-31 28 -71 28h-407q-40 0 -69 -28t-33 -69z" />
    <glyph glyph-name="N" unicode="N" horiz-adv-x="1885" 
d="M143 94q-3 -39 22 -66q25 -28 65 -28h176q40 0 69 28q30 27 33 66l75 858l478 -858q22 -40 59 -66q38 -28 78 -28h332q40 0 69 28q30 29 33 66l109 1245q3 41 -22 68q-26 27 -64 27h-172q-39 0 -69 -27t-33 -66l-81 -931l-523 929q-20 37 -58 67q-37 28 -72 28h-294
q-40 0 -68 -28q-30 -29 -33 -67z" />
    <glyph glyph-name="O" unicode="O" horiz-adv-x="1743" 
d="M1422 149q220 180 254 568q33 390 -155 568q-188 179 -584 179q-397 0 -616 -179q-221 -179 -255 -568q-34 -388 155 -568q188 -179 585 -179t616 179zM1229 1074q91 -121 70 -357q-21 -237 -132 -357q-113 -120 -337 -120q-226 0 -317 120q-91 119 -70 357t133 357
q111 120 337 120t316 -120z" />
    <glyph glyph-name="P" unicode="P" horiz-adv-x="1718" 
d="M143 94q-3 -39 22 -66q28 -28 65 -28h188q38 0 69 28q30 27 33 66l20 225h479q605 0 654 558q48 557 -557 557h-763q-39 0 -68 -28q-30 -27 -33 -67zM565 602l48 549h365q167 0 250 -56q82 -57 68 -218q-15 -161 -106 -218q-93 -57 -260 -57h-365z" />
    <glyph glyph-name="Q" unicode="Q" horiz-adv-x="1730" 
d="M66 727q-33 -381 156 -559q192 -178 585 -178h768q39 0 70 28q30 27 33 66l7 82q3 40 -21 67q-26 27 -66 27h-159q69 72 132 162q89 124 107 326q33 379 -155 547q-187 169 -585 169t-618 -178q-219 -176 -254 -559zM830 260q-222 0 -315 119q-91 120 -72 348
q21 230 133 348q112 119 338 119q224 0 315 -109t72 -337q-44 -488 -471 -488z" />
    <glyph glyph-name="R" unicode="R" horiz-adv-x="1728" 
d="M1628 43q2 23 -12 51l-157 289q-58 104 -103 156q-46 52 -104 75q383 74 409 365q18 209 -118 332q-135 123 -365 123h-824q-40 0 -69 -28q-29 -29 -33 -67l-109 -1245q-3 -39 23 -66q25 -28 64 -28h188q40 0 69 28q30 27 33 66l38 430h244q148 0 240 -164l146 -266
q21 -39 64 -66q43 -28 81 -28h240q51 0 55 43zM583 807l30 344h426q102 0 178 -41q75 -40 67 -131q-9 -91 -90 -131q-84 -41 -185 -41h-426z" />
    <glyph glyph-name="S" unicode="S" horiz-adv-x="1660" 
d="M62 368q-14 -158 142 -263q157 -106 360 -106l303 -6q347 0 501 109q154 108 170 309q14 147 -90 246t-259 141q-143 40 -312 74q-150 29 -264 70q-108 40 -102 103q10 115 186 115l300 -6q164 0 203 -98q38 -99 128 -99h119q32 0 69 26q37 27 43 85q13 158 -142 264
q-155 105 -360 105l-253 6q-349 0 -502 -108q-152 -110 -170 -310q-9 -110 43 -189q52 -81 145 -127t203 -80q114 -34 226 -56q121 -24 208 -46q105 -25 156 -59t47 -78q-11 -115 -186 -115l-350 7q-164 0 -202 98q-39 98 -129 98h-119q-33 0 -70 -25q-38 -26 -42 -85z" />
    <glyph glyph-name="T" unicode="T" horiz-adv-x="1508" 
d="M21 1244q-4 -40 21 -67q24 -27 65 -27h446l-92 -1058q-4 -38 22 -66q23 -26 64 -26h189q41 0 68 26q29 26 34 66l92 1058h446q41 0 71 27q29 28 32 67l9 94q3 41 -21 68q-25 27 -66 27h-1269q-42 0 -70 -27q-30 -27 -33 -68z" />
    <glyph glyph-name="U" unicode="U" horiz-adv-x="1759" 
d="M126 567q-24 -273 124 -424q147 -151 457 -151h180q310 0 483 151q174 150 198 424l68 772q3 39 -22 67q-26 28 -67 28h-186q-38 0 -69 -28q-30 -29 -33 -67l-68 -774q-12 -147 -84 -219q-71 -72 -205 -72h-160q-136 0 -193 72q-58 71 -46 219l68 774q3 39 -22 67
q-26 28 -64 28h-187q-40 0 -71 -28q-30 -29 -33 -67z" />
    <glyph glyph-name="V" unicode="V" horiz-adv-x="1633" 
d="M24 1350l466 -1248q39 -102 134 -102h144q96 0 152 102l685 1248q7 14 7 26q1 14 -14 36q-16 22 -52 22h-218q-78 -1 -128 -95l-462 -862l-312 862q-32 95 -110 95h-219q-34 0 -55 -22q-20 -21 -21 -36q-2 -14 3 -26z" />
    <glyph glyph-name="W" unicode="W" horiz-adv-x="2293" 
d="M22 1350l337 -1248q29 -102 134 -102h146q110 0 152 102l311 770l177 -770q23 -102 134 -102h145q106 0 153 102l555 1248q4 12 6 27q1 16 -14 36q-16 21 -50 21h-219q-38 0 -74 -27q-34 -26 -53 -68l-333 -792l-175 792q-21 95 -111 95h-184q-89 0 -127 -95l-313 -792
l-195 792q-11 42 -41 68q-30 27 -69 27h-219q-36 0 -55 -21q-18 -18 -20 -36q-1 -14 2 -27z" />
    <glyph glyph-name="X" unicode="X" horiz-adv-x="1649" 
d="M72 0h213q100 0 182 94l339 389l271 -389q66 -94 166 -94h213q40 0 54 29q5 8 6 23q1 16 -17 42l-448 643l528 602q24 28 25 49q2 23 -10.5 34.5t-40.5 11.5h-215q-100 -1 -183 -95l-305 -348l-243 348q-68 95 -167 95h-215q-54 0 -59 -46q-2 -25 17 -49l422 -602
l-560 -643q-23 -26 -25 -49q2 -45 52 -45z" />
    <glyph glyph-name="Y" unicode="Y" horiz-adv-x="1520" 
d="M20 1386q-2 -24 13 -47l462 -827l-37 -420q-3 -39 22 -66q26 -26 65 -26h188q38 0 69 26q30 29 33 66l37 420l607 827q19 25 20 47q5 48 -47 48h-191q-111 0 -182 -95l-367 -499l-280 499q-53 95 -166 95h-190q-52 0 -56 -48z" />
    <glyph glyph-name="Z" unicode="Z" horiz-adv-x="1551" 
d="M135 1245q-3 -42 22 -68q26 -26 64 -26h779l-828 -756q-102 -95 -111 -190l-9 -111q-4 -39 21 -68q26 -26 65 -26h1160q41 0 70 26q28 27 33 68l8 94q3 41 -21 68t-65 27h-797l854 766l48 45q16 14 37 54q20 37 25 79l9 112q5 41 -21 68t-64 27h-1168q-39 0 -69 -27
t-33 -68z" />
    <glyph glyph-name="bracketleft" unicode="[" horiz-adv-x="942" 
d="M143 -205q-2 -27 14 -44t43 -17h510q27 0 45 17q20 20 21 44l10 109q2 26 -14 43q-16 18 -42 18h-246l115 1318h246q27 0 45 18q19 16 22 44l9 108q3 26 -13 45q-17 17 -42 17h-510q-27 0 -46 -17t-22 -45z" />
    <glyph glyph-name="backslash" unicode="\" horiz-adv-x="938" 
d="M0 1386q-2 -22 10 -47l541 -1245q39 -94 166 -94h168q48 0 53 47q2 25 -11 47l-540 1245q-39 95 -165 95h-168q-50 0 -54 -48z" />
    <glyph glyph-name="bracketright" unicode="]" horiz-adv-x="942" 
d="M30 -96l-10 -109q-2 -27 14 -43q17 -18 43 -18h510q25 0 45 18t21 43l145 1659q3 26 -13 45q-17 17 -42 17h-510q-27 0 -46 -17t-22 -45l-9 -108q-3 -26 13 -44t43 -18h246l-115 -1319h-246q-26 0 -46 -17q-20 -18 -21 -44z" />
    <glyph glyph-name="asciicircum" unicode="^" horiz-adv-x="1089" 
d="M0 826q-4 -54 50 -54h158q78 0 140 84l225 299l172 -299q49 -84 127 -84h157q37 0 51 29q9 11 9 25q1 15 -12 34l-278 486q-52 88 -128 88h-147q-76 0 -143 -88l-364 -486q-17 -20 -17 -34z" />
    <glyph glyph-name="underscore" unicode="_" horiz-adv-x="829" 
d="M10 -61l-10 -119q-3 -26 13 -44q15 -18 42 -18h697q27 0 45 18q19 16 22 44l10 119q3 25 -13 44q-15 17 -42 17h-697q-26 0 -45 -17q-19 -16 -22 -44z" />
    <glyph glyph-name="grave" unicode="`" horiz-adv-x="528" 
d="M62 1391q-18 -21 -21 -50t12 -63l138 -303q51 -115 148 -115h39q102 0 109 78q1 22 -5 57l-76 324q-14 48 -53 81q-40 34 -89 34h-82q-83 0 -120 -43z" />
    <glyph glyph-name="a" unicode="a" horiz-adv-x="1369" 
d="M173 72q122 -91 330 -93q208 0 375 113l-3 -31q-1 -27 13 -44q16 -17 43 -17h193q28 0 45 17q18 16 21 44l54 619q20 223 -115 329q-134 106 -373 106q-545 0 -570 -286q-2 -27 14 -44t43 -17h149q72 0 127 60q55 61 177 61q121 0 167 -46q45 -47 35 -163h-331
q-209 0 -349 -90q-140 -89 -155 -258q-15 -168 110 -260zM458 419q45 34 113 34h307l-13 -156q-151 -90 -305 -90q-78 0 -116 35q-39 34 -34 89q4 53 48 88z" />
    <glyph glyph-name="b" unicode="b" horiz-adv-x="1400" 
d="M235 1372l-112 -1280q74 -46 228 -80q155 -32 298 -32q634 0 685 567q24 276 -109 422q-132 147 -378 147q-127 0 -293 -51l27 307q2 27 -14 44q-15 18 -42 18h-224q-25 0 -45 -18q-20 -20 -21 -44zM534 834q135 40 220 40q137 0 188 -78t36 -249q-15 -173 -81 -249
q-64 -77 -198 -77q-137 0 -217 23z" />
    <glyph glyph-name="c" unicode="c" horiz-adv-x="1286" 
d="M607 -20q279 0 437 88q156 89 171 260q3 25 -14 44q-15 17 -43 17h-149q-67 0 -121 -74q-67 -94 -220 -94q-151 0 -207 77q-55 78 -40 250t82 250q66 76 215 76q150 0 201 -94q40 -73 108 -73h149q27 0 46 17q19 16 22 44q15 172 -126 260q-140 88 -417 88t-445 -144
q-167 -146 -192 -424q-24 -280 119 -424q144 -144 424 -144z" />
    <glyph glyph-name="d" unicode="d" horiz-adv-x="1356" 
d="M549 -20q210 0 377 112l-3 -31q-2 -27 13 -44q17 -17 43 -17h192q26 0 46 17q18 18 21 44l115 1311q2 27 -14 44q-17 18 -43 18h-223q-25 0 -45 -18t-21 -44l-27 -307q-158 51 -285 51q-245 0 -404 -147q-158 -146 -182 -421t103 -421q128 -147 337 -147zM544 796
q64 78 202 78q85 0 214 -40l-46 -523q-152 -90 -260 -90q-110 0 -156 78q-47 77 -32 249t78 248z" />
    <glyph glyph-name="e" unicode="e" horiz-adv-x="1297" 
d="M181 126q143 -146 418 -146q547 0 571 286q3 26 -13 45q-17 17 -43 17h-149q-71 0 -126 -61q-55 -60 -188 -60q-132 0 -188 56q-56 58 -55 179h753q27 0 46 18q19 16 21 44l5 57q24 269 -118 412q-141 143 -416 143t-443 -147q-168 -149 -192 -422q-24 -274 117 -421z
M424 653q33 236 255 236q220 0 210 -236h-465z" />
    <glyph glyph-name="f" unicode="f" horiz-adv-x="1097" 
d="M1025 1200h37q25 0 45 17q19 18 21 45l10 110q2 24 -13 40q-17 18 -80 30t-228 12q-318 0 -456 -117q-137 -116 -161 -395l-77 -881q-3 -28 13 -44q15 -17 42 -17h224q25 0 45 17q19 16 21 44l55 623h362q26 0 46 17q19 16 21 44l11 119q2 28 -14 44q-17 18 -43 18h-362
l2 16q13 168 79 221q65 54 264 54z" />
    <glyph glyph-name="g" unicode="g" horiz-adv-x="1391" 
d="M188 223q127 -137 355 -137q142 0 302 41l-4 -47q-9 -117 -66 -163q-55 -46 -196 -46t-190 68q-38 53 -110 53h-149q-28 0 -46 -18q-19 -18 -22 -44q-14 -154 125 -220q137 -66 403 -66t421 106q156 106 176 330l81 925q-73 46 -228 80q-148 32 -298 32q-298 0 -468 -136
q-171 -135 -192 -379q-21 -243 106 -379zM700 875q127 2 209 -22l-43 -495q-124 -30 -220 -30q-231 0 -207 274t261 273z" />
    <glyph glyph-name="h" unicode="h" horiz-adv-x="1450" 
d="M123 61q-3 -25 13 -43t42 -18h224q27 0 45 18q19 16 22 43l58 670q157 143 281 143q191 0 170 -239l-50 -574q-3 -25 13 -43q17 -18 42 -18h223q28 0 46 18q19 16 22 43l50 574q21 244 -90 362q-113 119 -307 119q-193 0 -379 -145l35 401q3 26 -13 44t-42 18h-224
q-27 0 -45 -18q-19 -16 -22 -44z" />
    <glyph glyph-name="i" unicode="i" horiz-adv-x="709" 
d="M228 1305q-4 -54 24 -84q27 -31 81 -31h124q55 0 87 31q34 30 38 84l3 34q5 54 -24 84q-28 31 -81 31h-124q-53 0 -87 -31q-34 -32 -38 -84zM123 61q-2 -28 13 -44q17 -17 43 -17h224q25 0 45 17q18 16 21 44l83 949q3 25 -13 43q-15 18 -43 18h-224q-25 0 -45 -17
q-18 -16 -21 -44z" />
    <glyph glyph-name="j" unicode="j" horiz-adv-x="758" 
d="M277 1305q-4 -52 23 -84q28 -31 82 -31h125q54 0 86 31q35 32 39 84l3 34q5 54 -24 84q-28 31 -81 31h-125q-51 0 -87 -31q-34 -32 -38 -84zM-78 -106h-31q-26 0 -45 -17q-18 -18 -21 -45l-9 -108q-5 -49 55 -62q89 -20 223 -20q387 0 429 471l78 897q2 27 -13 43
q-16 18 -43 18h-223q-26 0 -46 -17q-18 -16 -21 -44l-78 -897q-12 -123 -55 -178q-44 -56 -99 -56z" />
    <glyph glyph-name="k" unicode="k" horiz-adv-x="1337" 
d="M1227 44q0 23 -14 50l-146 275q-76 144 -197 180q68 15 129 63q62 51 100 117l153 272q19 36 20 56q2 19 -9.5 29t-36.5 10h-189q-47 0 -86 -26q-43 -26 -65 -69l-114 -204q-76 -135 -250 -135l62 710q3 26 -13 45q-15 17 -42 17h-224q-26 0 -45 -17t-22 -45l-115 -1311
q-2 -27 14 -44q15 -17 42 -17h224q25 0 45 17q20 18 21 44l33 373q156 0 226 -133l109 -207q50 -94 145 -94h189q51 0 56 44z" />
    <glyph glyph-name="l" unicode="l" horiz-adv-x="707" 
d="M123 61q-2 -27 14 -43q17 -18 42 -18h224q25 0 45 18q19 16 21 43l115 1311q3 27 -14 44q-15 18 -42 18h-224q-26 0 -45 -18q-18 -16 -21 -44z" />
    <glyph glyph-name="m" unicode="m" horiz-adv-x="2111" 
d="M123 61q-3 -27 13 -44q15 -17 42 -17h224q25 0 45 17q20 18 21 44l59 670q113 143 226 143q87 1 125.5 -59t27.5 -180l-51 -574q-2 -27 14 -43q17 -18 43 -18h223q25 0 45 17q20 18 21 44l51 574q4 51 1 86q126 153 232 153q88 1 126.5 -59t27.5 -180l-51 -574
q-2 -27 14 -43q16 -18 43 -18h223q26 0 45 17q20 18 21 44l50 574q22 246 -81 364q-103 116 -299 118q-196 0 -398 -193q-104 192 -336 192q-100 0 -171 -37q-72 -37 -151 -108l6 63q2 28 -14 45q-15 17 -42 17h-224q-25 0 -45 -17q-19 -18 -21 -45z" />
    <glyph glyph-name="n" unicode="n" horiz-adv-x="1450" 
d="M123 61q-3 -25 13 -43t42 -18h224q26 0 45 18q19 16 21 43l59 670q157 143 281 143q191 0 170 -239l-51 -574q-2 -27 14 -43q17 -18 42 -18h223q26 0 46 18q19 16 21 43l51 574q21 245 -91 363t-306 118q-195 0 -379 -145l6 63q2 28 -14 44q-16 18 -42 18h-224
q-26 0 -45 -18q-19 -16 -21 -44z" />
    <glyph glyph-name="o" unicode="o" horiz-adv-x="1337" 
d="M183 124q144 -144 436 -144q291 0 461 144q169 145 193 425q24 281 -119 424q-145 143 -436 143q-292 0 -461 -143q-169 -145 -193 -424q-24 -282 119 -425zM496 808q69 81 202 81q134 0 189 -81q55 -80 40 -259q-15 -176 -85 -260q-71 -82 -203 -82q-133 0 -189 82
q-54 83 -39 260t85 259z" />
    <glyph glyph-name="p" unicode="p" horiz-adv-x="1432" 
d="M123 -276q-3 -26 13 -44t42 -18h224q27 0 45 18q19 16 22 44l27 307q158 -51 284 -51q246 0 404 146t182 421q24 273 -104 422q-126 147 -336 147q-209 0 -376 -112l2 30q3 26 -13 44q-17 18 -42 18h-193q-27 0 -45 -18q-19 -16 -22 -44zM516 262l45 522q151 90 260 90
q108 0 156 -77q48 -78 33 -249q-15 -170 -80 -249q-63 -78 -201 -78q-87 0 -213 41z" />
    <glyph glyph-name="q" unicode="q" horiz-adv-x="1399" 
d="M65 548q-24 -276 108 -422q133 -146 379 -146q126 0 293 51l-27 -307q-2 -28 14 -45t42 -17h223q28 0 46 17q19 18 21 45l112 1279q-73 46 -228 80q-148 32 -299 32q-635 0 -684 -567zM645 221q-138 0 -188 77t-35 250q15 174 80 249q64 76 198 76q135 0 217 -22
l-52 -590q-130 -40 -220 -40z" />
    <glyph glyph-name="r" unicode="r" horiz-adv-x="1082" 
d="M950 842h32q26 0 46 17q18 16 21 44l13 152q3 26 -14 43q-15 18 -43 18q-153 0 -250 -36q-95 -34 -206 -109l5 63q3 28 -13 44q-15 18 -42 18h-224q-27 0 -45 -18q-19 -16 -22 -44l-85 -973q-2 -28 13 -44q17 -17 43 -17h224q25 0 45 17q19 16 21 44l56 639
q136 148 271 148z" />
    <glyph glyph-name="s" unicode="s" horiz-adv-x="1241" 
d="M106 793q-11 -116 61 -192q70 -76 179 -111q113 -37 217 -58q111 -24 185 -54t71 -75q-9 -96 -238 -96q-144 0 -187 61q-44 60 -116 60h-149q-26 0 -46 -17q-19 -18 -21 -45q-13 -143 118.5 -214.5t406.5 -71.5q549 0 578 323q9 118 -61 194t-179 111q-118 38 -217 58
q-114 23 -184 52q-75 30 -71 75q7 96 206 96q145 0 188 -60q43 -61 115 -61h149q28 0 46 18q18 16 21 43q12 143 -118.5 215t-404.5 72q-520 0 -549 -323z" />
    <glyph glyph-name="t" unicode="t" horiz-adv-x="902" 
d="M629 217q-79 0 -123 56q-43 55 -34 157l32 367h279q25 0 45 17q19 16 21 44l11 119q2 28 -14 44q-17 17 -42 17h-279l29 334q3 26 -13 44q-17 18 -42 18h-224q-27 0 -45 -18q-19 -16 -22 -44l-82 -942q-39 -450 391 -450q161 0 267 20q28 5 47 22q18 16 21 39l9 107
q3 27 -14 44q-15 17 -43 17h-37z" />
    <glyph glyph-name="u" unicode="u" horiz-adv-x="1450" 
d="M126 461q-21 -245 90 -363q112 -118 306 -118q195 0 380 145l-6 -64q-3 -26 14 -44q14 -17 42 -17h223q28 0 46 17q18 18 21 44l85 972q3 27 -14 45q-14 17 -43 17h-223q-27 0 -45 -17q-18 -18 -21 -45l-58 -668q-157 -144 -282 -144q-190 0 -169 240l50 572q3 26 -13 45
q-16 17 -42 17h-224q-28 0 -45 -17q-19 -17 -22 -45z" />
    <glyph glyph-name="v" unicode="v" horiz-adv-x="1343" 
d="M76 1096q-50 0 -55 -51q-2 -16 7 -37l351 -920q15 -39 51 -63q36 -25 76 -25h147q40 0 82 25q41 24 62 63l512 920q11 20 13 37t-2 25q-9 26 -44 26h-193q-43 0 -83 -24q-42 -26 -59 -64l-327 -623l-218 623q-13 39 -49 64q-36 24 -79 24h-192z" />
    <glyph glyph-name="w" unicode="w" horiz-adv-x="1838" 
d="M25 1008l222 -920q11 -42 45 -64q33 -24 75 -24h141q41 0 80 24q39 26 54 64l245 596l140 -596q9 -39 44 -64q35 -24 75 -24h141q41 0 79 24q37 21 56 64l384 920q11 26 12 43q2 23 -9.5 34t-36.5 11h-186q-47 0 -86 -24q-39 -23 -56 -64l-212 -539l-114 539
q-19 88 -107 88h-177q-87 0 -121 -88l-209 -539l-117 539q-11 42 -46 64q-35 24 -82 24h-186q-50 -2 -53 -45q-1 -16 5 -43z" />
    <glyph glyph-name="x" unicode="x" horiz-adv-x="1343" 
d="M33 31q6 -31 41 -31h213q92 0 162 88l216 260l169 -260q57 -88 148 -88h213q36 0 46 31q4 7 6 23q2 17 -13 34l-308 461l366 459q35 43 10 74q-11 14 -33 14h-217q-97 0 -163 -88l-188 -252l-144 252q-52 88 -149 88h-217q-21 0 -35 -14q-30 -32 -2 -74l285 -459
l-389 -461q-18 -19 -19 -33q0 -17 2 -24z" />
    <glyph glyph-name="y" unicode="y" horiz-adv-x="1294" 
d="M235 -104h-37q-29 0 -46 -17q-18 -18 -21 -45l-9 -109q-3 -22 13 -41q14 -17 82 -29q66 -12 229 -12q164 0 276 106q112 105 204 353l344 934q2 6 4 18q0 12 -10 26q-10 16 -36 16h-211q-29 0 -54 -19q-24 -18 -36 -49l-260 -700q-69 0 -114 60t-81 216l-93 424
q-6 30 -31 49q-23 19 -53 19h-209q-25 0 -39 -16q-13 -13 -15 -25q-1 -7 1 -19l107 -483q59 -262 164 -364q106 -103 275 -103q-73 -207 -215 -207z" />
    <glyph glyph-name="z" unicode="z" horiz-adv-x="1221" 
d="M125 915q-2 -27 14 -44q17 -17 43 -17h536l-574 -551q-79 -73 -85 -145l-8 -97q-3 -25 13 -43t43 -18h919q28 0 46 18q19 16 22 43l10 119q2 28 -14 44q-15 18 -43 18h-563l594 551q77 71 83 145l9 96q2 28 -13 44q-17 18 -43 18h-911q-27 0 -46 -18q-19 -16 -21 -44z
" />
    <glyph glyph-name="braceleft" unicode="{" horiz-adv-x="920" 
d="M20 565q-3 -26 14 -44q15 -17 43 -17h41q47 0 77 -36q32 -36 27 -89l-22 -248q-18 -205 90 -301t299 -96h98q25 0 45 17q20 18 21 44l10 109q2 27 -14 43q-15 18 -42 18h-41q-66 0 -108 51t-35 138l17 194q11 114 -46 186t-155 91q104 18 170 89q68 71 79 187l17 195
q7 86 59 137t118 51h41q27 0 45 17q20 20 21 45l10 108q2 27 -14 44q-17 18 -42 18h-98q-190 0 -316 -97q-125 -96 -143 -301l-21 -248q-6 -54 -42 -89q-37 -36 -84 -36h-41q-27 0 -46 -17q-19 -18 -22 -44z" />
    <glyph glyph-name="bar" unicode="|" horiz-adv-x="777" 
d="M143 -276q-3 -26 13 -44t43 -18h223q28 0 46 18q18 16 21 44l144 1648q3 26 -13 44q-15 18 -43 18h-223q-26 0 -46 -18q-18 -16 -21 -44z" />
    <glyph glyph-name="braceright" unicode="}" horiz-adv-x="920" 
d="M29 -96l-9 -109q-3 -26 14 -44q15 -17 43 -17h98q191 0 315 96q125 95 143 301l22 248q5 53 42 89q36 36 84 36h41q27 0 45 17q20 18 21 44l11 119q2 27 -14 44q-17 17 -42 17h-41q-46 0 -78 36q-30 36 -26 89l22 248q18 204 -91 301q-108 96 -299 96h-98q-28 0 -46 -17
q-18 -18 -21 -45l-9 -108q-3 -25 13 -44q16 -18 43 -18h41q65 0 108 -51t36 -136l-17 -195q-11 -116 46 -187q54 -71 154 -89q-102 -20 -170 -91t-79 -186l-17 -194q-7 -86 -59 -138q-53 -51 -117 -51h-41q-28 0 -46 -18q-19 -16 -22 -43z" />
    <glyph glyph-name="asciitilde" unicode="~" horiz-adv-x="1236" 
d="M62 555q-3 -23 11 -37t36 -14h98q48 0 97 38q50 38 124 38t188 -51q111 -52 243 -52q129 0 216 75q88 75 98 210q3 19 -11 36q-13 15 -35 15h-98q-49 0 -98 -38q-50 -38 -123 -38q-75 0 -188 52q-114 51 -244 51q-129 0 -216 -75q-88 -75 -98 -210z" />
    <glyph glyph-name="uni00A0" unicode="&#xa0;" horiz-adv-x="717" 
 />
    <glyph glyph-name="exclamdown" unicode="&#xa1;" horiz-adv-x="757" 
d="M232 907q-5 -64 26 -99q32 -36 97 -36h123q66 0 104 36q39 37 43 99l6 64q6 65 -26 100t-97 35h-123q-64 0 -103 -34q-38 -33 -44 -101zM126 -244q-6 -39 20 -66q27 -28 65 -28h215q41 0 70 28q32 27 32 66l44 822q2 39 -23 65q-24 27 -64 27h-157q-38 0 -67 -26t-35 -66
z" />
    <glyph glyph-name="cent" unicode="&#xa2;" horiz-adv-x="1287" 
d="M65 547q-40 -462 362 -549l-8 -90q-2 -28 14 -45q17 -17 42 -17h224q25 0 45 17q20 18 21 45l7 80q204 23 316 107q114 83 128 233q3 26 -14 43q-15 18 -43 18h-149q-67 0 -121 -74q-67 -94 -220 -94q-154 0 -207 77q-55 76 -40 250q15 171 82 249q66 77 215 77t201 -94
q40 -73 108 -73h149q28 0 46 17q19 16 21 44q13 142 -84 229q-97 85 -290 109l7 82q3 24 -13 43q-16 18 -42 18h-224q-27 0 -45 -18q-19 -18 -22 -43l-8 -90q-202 -42 -320 -182q-117 -139 -138 -369z" />
    <glyph glyph-name="sterling" unicode="&#xa3;" horiz-adv-x="1320" 
d="M1148 1200h36q26 0 46 17q20 18 21 45l10 110q2 24 -14 40q-16 18 -43 22q-102 20 -264 20q-318 0 -456 -117q-137 -116 -161 -395l-42 -471q-10 -122 -54 -178q-43 -55 -99 -55h-31q-27 0 -46 -18q-19 -16 -21 -44l-10 -115q-5 -47 56 -61h1114q40 0 69 28q30 27 33 66
l7 78q3 39 -22 66q-24 28 -64 28h-664l18 27q16 24 36 82q22 59 26 117l13 151h301q26 0 46 17q18 18 21 45l10 118q3 26 -13 44q-15 18 -43 18h-300l4 57q15 168 80 221q66 54 264 54z" />
    <glyph glyph-name="currency" unicode="&#xa4;" horiz-adv-x="1672" 
d="M27 672h1215q175 29 284 113q111 86 124 235q15 187 -122 300q-137 114 -364 114h-826q-40 0 -68 -28q-29 -29 -32 -67l-50 -571h-90q-27 0 -46 -17q-19 -16 -22 -44zM568 807l30 344h426q101 0 178 -41q75 -40 67 -131t-90 -131q-84 -41 -185 -41h-426zM1614 44
q2 21 -12 50l-147 268q-60 110 -110 176q-49 64 -107 87h-1215l-3 -35q-2 -28 14 -44q15 -18 43 -18h90l-38 -434q-3 -39 21 -66q25 -28 65 -28h189q39 0 68 28q29 26 34 66l37 430h244q150 0 240 -164l147 -266q20 -39 63 -66q41 -28 81 -28h240q53 0 56 44z" />
    <glyph glyph-name="yen" unicode="&#xa5;" horiz-adv-x="1520" 
d="M20 1386q-2 -22 13 -47l370 -663h-125q-26 0 -45 -17q-19 -18 -21 -45l-4 -47h256l31 -55h-292l-4 -47q-3 -26 13 -44q15 -18 42 -18h231l-27 -311q-3 -39 22 -65q27 -27 65 -27h188q39 0 69 27t33 65l27 311h232q27 0 45 18q19 16 22 44l4 47h-293l40 55h258l4 47
q2 28 -14 45q-17 17 -42 17h-127l488 663q19 26 20 47q5 48 -47 48h-191q-112 0 -182 -95l-366 -499l-281 499q-52 95 -165 95h-190q-53 0 -57 -48z" />
    <glyph glyph-name="brokenbar" unicode="&#xa6;" horiz-adv-x="736" 
d="M206 675q-2 -27 14 -44q15 -18 42 -18h224q26 0 45 18q20 20 21 44l61 696q3 27 -14 45q-15 17 -41 17h-224q-26 0 -45 -17t-22 -45zM123 -276q-3 -27 14 -45q14 -17 42 -17h224q27 0 45 17q18 18 21 45l61 696q2 26 -14 43q-16 18 -42 18h-224q-26 0 -45 -18
q-20 -18 -21 -43z" />
    <glyph glyph-name="section" unicode="&#xa7;" horiz-adv-x="1352" 
d="M118 588q-9 -109 40 -188q52 -80 130 -118q74 -38 175 -73q93 -32 176 -54q80 -19 136 -58q53 -39 47 -102q-4 -63 -57 -95q-52 -31 -180 -31q-126 0 -170 60q-43 61 -116 61h-149q-26 0 -46 -18q-19 -16 -21 -44q-13 -143 115.5 -214.5t398.5 -72.5q540 0 573 375
q10 132 -81 226q129 97 144 266q9 108 -39 187q-50 79 -130 119q-90 43 -175 73q-84 29 -177 53q-85 22 -135 59q-53 38 -47 101q6 62 57 95q53 32 179 32q127 0 171 -61q43 -60 116 -60h149q28 0 45 17q19 16 22 44q13 143 -116 215t-399 72q-540 0 -573 -375
q-11 -134 81 -227q-129 -96 -144 -264zM464 588q7 83 66 119l153 -51q71 -21 127 -50q24 -14 51 -35q30 -23 26 -63q-8 -89 -67 -119l-105 34q-108 33 -179 69q-76 39 -72 96z" />
    <glyph glyph-name="dieresis" unicode="&#xa8;" horiz-adv-x="832" 
d="M1 1300q-4 -52 23 -84q29 -30 82 -30h96q53 0 86 30q35 32 39 84l3 39q4 53 -23 84q-28 31 -82 31h-96q-53 0 -87 -31q-34 -32 -38 -84zM503 1300q-4 -54 23 -84t81 -30h97q53 0 86 30q34 32 38 84l3 39q4 53 -23 84q-28 31 -81 31h-97q-52 0 -86 -31q-34 -32 -38 -84z
" />
    <glyph glyph-name="copyright" unicode="&#xa9;" horiz-adv-x="1751" 
d="M233 68q201 -211 573 -211q371 0 609 212q236 212 269 586q33 375 -167 587t-571 212q-372 0 -610 -212q-237 -211 -270 -587q-33 -373 167 -587zM1326 1081q133 -159 109 -426q-24 -269 -184 -426q-158 -157 -426 -157q-267 0 -400 157q-132 157 -109 426
q24 269 184 426q161 158 427 158q265 0 399 -158zM1232 512q1 16 -9 28q-10 13 -27 13h-98q-45 0 -84 -56q-39 -55 -137 -55q-100 0 -134 49q-35 51 -25 162q11 114 52 163q42 50 140 50q99 0 130 -61q27 -47 70 -47h96q16 0 30 11q13 10 15 28q9 112 -82 169
q-91 58 -271 58t-287 -94q-108 -94 -125 -276q-15 -182 77 -274q91 -93 282 -93q366 0 387 225z" />
    <glyph glyph-name="ordfeminine" unicode="&#xaa;" horiz-adv-x="752" 
d="M42 991q-9 -103 59 -148q70 -44 170 -44h30q111 0 192 71l-3 -28q-2 -18 10 -30q13 -11 28 -11h104q17 0 32 13q12 12 14 28l32 360q9 103 -61 170q-69 66 -206 66h-61q-98 0 -190 -51q-93 -51 -99 -121q-1 -26 12 -38q16 -11 29 -11h61q30 0 75 40q41 35 108 35h60
q43 0 65 -25t18 -67l-1 -16h-195q-267 0 -283 -193zM239 992q6 57 68 57h201l-5 -56q-61 -59 -159 -59h-47q-63 0 -58 58z" />
    <glyph glyph-name="guillemotleft" unicode="&#xab;" horiz-adv-x="1057" 
d="M42 537q-4 -41 30 -93l182 -262q32 -45 79 -45h121q31 0 40 24q8 23 -11 58l-179 342l238 342q25 34 22 58q-4 24 -35 24h-122q-49 0 -86 -45l-228 -262q-44 -52 -47 -92zM980 985h-123q-47 0 -86 -45l-228 -262q-43 -50 -46 -92l-5 -49q-3 -41 30 -93l182 -262
q32 -45 78 -45h123q31 0 40 25q1 4 3 18q1 13 -14 39l-179 342l238 342q20 27 23 47q3 35 -36 35z" />
    <glyph glyph-name="logicalnot" unicode="&#xac;" horiz-adv-x="1162" 
d="M41 795q-3 -39 22 -67q26 -28 64 -28h707l-17 -198q-5 -41 21 -68q26 -28 64 -28h86q38 0 69 28q29 26 34 68l30 348q3 39 -22 66q-24 26 -64 26h-887q-39 0 -69 -27q-30 -29 -33 -67z" />
    <glyph glyph-name="uni00AD" unicode="&#xad;" horiz-adv-x="958" 
 />
    <glyph glyph-name="registered" unicode="&#xae;" horiz-adv-x="1751" 
d="M232 68q202 -211 573 -211q373 0 609 212q237 213 270 587t-167 586t-572 212q-371 0 -609 -212q-237 -211 -270 -586q-33 -374 166 -588zM1325 1082q133 -156 110 -426q-24 -269 -184 -426q-161 -158 -427 -158q-265 0 -399 158q-133 159 -109 426q24 269 184 426
q158 157 426 157q267 0 399 -157zM491 336q-2 -21 11 -35q14 -14 34 -14h99q19 0 35 14q17 15 18 35l19 221h129q78 0 126 -84l76 -137q28 -49 78 -49h124q28 0 30 18q1 11 -7 31l-83 149q-57 99 -109 119q200 37 214 189q9 105 -62 170q-72 63 -191 63h-432q-21 0 -35 -13
q-17 -14 -18 -34zM720 702l16 179h223q54 0 94 -20q40 -21 35 -68q-4 -48 -47 -69q-43 -22 -98 -22h-223z" />
    <glyph glyph-name="degree" unicode="&#xb0;" horiz-adv-x="823" 
d="M142 880q90 -89 241 -89q150 0 257 89q106 88 120 242q13 153 -78 243q-92 89 -241 89q-148 0 -257 -89q-108 -91 -121 -243q-13 -153 79 -242zM324 1244q41 44 102 44q62 0 95 -44q33 -45 26 -122q-6 -78 -47 -122t-103 -44t-94 44q-33 44 -27 122q7 77 48 122z" />
    <glyph glyph-name="plusminus" unicode="&#xb1;" horiz-adv-x="1006" 
d="M78 657q-1 -27 13 -44q17 -17 43 -17h250l-16 -182h-250q-25 0 -45 -17q-19 -18 -21 -45l-11 -119q-2 -26 13 -43q16 -18 43 -18h754q26 0 46 17q18 18 21 44l10 119q3 26 -13 45q-17 17 -43 17h-262l16 182h262q26 0 46 17q20 20 21 44l11 119q2 28 -14 45
q-17 17 -43 17h-262l22 249q2 28 -14 45q-15 17 -43 17h-118q-26 0 -46 -17q-20 -18 -21 -45l-22 -249h-250q-25 0 -45 -17q-20 -18 -21 -45z" />
    <glyph glyph-name="uni00B2" unicode="&#xb2;" horiz-adv-x="740" 
d="M41 842q-1 -18 10 -29q12 -12 29 -12h530q20 0 32 12q14 12 15 29l5 61q2 19 -9 31t-30 12h-366q3 33 69 54q69 23 147 36q80 15 149 63t76 128q18 211 -269 211h-60q-103 0 -194 -53q-91 -52 -99 -140q-1 -26 12 -38q14 -11 29 -11h74q39 0 67 48q27 48 113 48h33
q55 0 81 -16.5t24 -48.5q-5 -45 -119 -68q-56 -11 -107 -29q-57 -18 -108 -42q-50 -22 -87 -70q-37 -49 -41 -113z" />
    <glyph glyph-name="uni00B3" unicode="&#xb3;" horiz-adv-x="733" 
d="M41 979q-6 -76 77 -129t181 -53h74q287 0 304 192q7 86 -71 127q78 48 85 127q17 195 -270 195h-62q-97 0 -191 -53q-92 -54 -99 -130q-2 -26 12 -37q15 -12 29 -12h62q19 0 35 12q6 5 18 17l22 22q35 35 108 35h59q47 0 68.5 -13t19.5 -40q-5 -53 -97 -53h-84
q-17 0 -30 -13t-15 -30l-4 -53q-2 -19 9 -31q12 -12 28 -12h80q59 0 80 -10q24 -11 21 -48q-5 -47 -98 -47h-71q-75 0 -102 35q0 1 -2.5 4t-7.5 9.5t-10 13.5q-20 24 -48 24h-61q-15 0 -30 -11q-16 -10 -19 -38z" />
    <glyph glyph-name="acute" unicode="&#xb4;" horiz-adv-x="397" 
d="M12 1661q-11 -30 -12 -49q-6 -66 68 -66h47q67 0 131 94l125 189q23 31 25 54q3 21 -4 38q-18 43 -82 43h-91q-92 0 -142 -115z" />
    <glyph glyph-name="uni00B5" unicode="&#xb5;" horiz-adv-x="1511" 
d="M123 -276q-3 -26 13 -44t42 -18h224q26 0 45 18q19 16 22 44l28 327q68 -71 201 -71q76 0 133 33q55 30 132 112l-6 -64q-3 -26 14 -43q15 -18 42 -18h223q26 0 46 18q18 16 21 43l85 973q3 27 -14 45q-15 17 -43 17h-223q-25 0 -45 -17q-18 -18 -21 -45l-55 -628
q-128 -185 -274 -185q-82 0 -135 71q-54 70 -42 200l47 542q3 26 -13 45q-17 17 -42 17h-224q-26 0 -45 -17t-22 -45z" />
    <glyph glyph-name="paragraph" unicode="&#xb6;" horiz-adv-x="1467" 
d="M526 1434q-183 0 -316 -98q-132 -98 -147 -271q-15 -174 99 -274q114 -99 299 -99l-81 -936q-4 -38 21 -66t64 -28h231l135 1544h103l-135 -1544h229q41 0 70 28q31 27 34 66l127 1450h90q27 0 46 17t22 45l9 104q2 28 -14 44q-15 18 -43 18h-843z" />
    <glyph glyph-name="periodcentered" unicode="&#xb7;" horiz-adv-x="810" 
d="M211 659l-6 -63q-5 -65 26 -99q31 -36 98 -36h123q64 0 103 36q38 35 43 99l6 63q6 66 -26 101q-33 35 -97 35h-123q-135 0 -147 -136z" />
    <glyph glyph-name="cedilla" unicode="&#xb8;" horiz-adv-x="789" 
d="M46 1005l-5 -53q-1 -16 11 -29q12 -12 28 -12h381l-6 -69q-2 -20 10 -30q11 -11 28 -11h104q17 0 30 12q13 13 14 29l6 69h49q20 0 32 12q13 12 15 29l5 63q2 17 -10 29q-10 12 -29 12h-49l29 336q2 17 -10 29q-11 12 -27 12h-159q-43 0 -72 -27l-340 -332
q-32 -30 -35 -69zM271 1056l222 215l-19 -215h-203z" />
    <glyph glyph-name="uni00B9" unicode="&#xb9;" horiz-adv-x="417" 
d="M45 1274l38 -57q15 -21 39 -7l54 37l-35 -405q-3 -18 9 -30q13 -11 28 -11h103q17 0 31 12q15 13 15 29l49 551q1 14 -10 29q-12 12 -30 12h-86q-42 0 -66 -21l-125 -98q-15 -12 -16 -22t2 -19z" />
    <glyph glyph-name="ordmasculine" unicode="&#xba;" horiz-adv-x="752" 
d="M332 797h31q317 0 346 320q27 321 -290 321h-31q-318 0 -345 -321q-29 -320 289 -320zM283 1249q48 43 108 43q62 0 100 -43q39 -43 31 -133q-9 -90 -54 -132t-107 -42t-101 42q-40 43 -31 132q7 89 54 133z" />
    <glyph glyph-name="guillemotright" unicode="&#xbb;" horiz-adv-x="1056" 
d="M42 162q3 -25 35 -25h123q47 0 86 45l226 262q44 52 48 93l4 49q3 42 -31 92l-181 262q-32 45 -78 45h-123q-32 0 -39 -22q0 -7 -3 -20q-2 -14 14 -40l179 -342l-239 -342q-18 -27 -20 -41q0 -5 -0.5 -10t-0.5 -6zM560 950q-2 -21 14 -47l179 -342l-239 -342
q-21 -29 -21 -41v-16q3 -25 34 -25h123q47 0 86 45l227 262q43 52 48 93l4 49q3 42 -31 92l-182 262q-32 45 -78 45h-123q-38 0 -41 -35z" />
    <glyph glyph-name="onequarter" unicode="&#xbc;" horiz-adv-x="1392" 
d="M79 66q-16 -23 -17 -38q-1 -14 10 -21t34 -7h139q73 0 120 66l944 1302q17 23 19 39q2 27 -46 27h-139q-75 0 -121 -66zM187 1274l38 -57q14 -22 38 -7l55 37l-36 -405q-2 -20 10 -30q13 -11 27 -11h102q19 0 33 12q13 14 14 29l48 551q2 16 -10 28q-10 13 -29 13h-86
q-42 -1 -65 -21l-126 -98q-15 -14 -17 -23q0 -11 4 -18zM627 205l-4 -53q-2 -18 11 -29q12 -12 28 -12h381l-6 -70q-2 -19 10 -29q11 -12 27 -12h105q17 0 30 12q14 14 15 29l6 70h49q17 0 32 12q14 14 15 29l5 63q1 16 -10 28q-12 13 -29 13h-49l29 336q2 16 -10 28
q-12 13 -27 13h-160q-43 0 -73 -27l-340 -332q-32 -32 -35 -69zM854 256l220 215l-18 -215h-202z" />
    <glyph glyph-name="onehalf" unicode="&#xbd;" horiz-adv-x="1429" 
d="M80 66q-17 -22 -19 -37q0 -29 46 -29h139q74 0 120 66l943 1302q19 25 20 39q0 27 -47 27h-139q-73 0 -121 -66zM187 1274l38 -57q15 -22 39 -7l54 37l-35 -405q-3 -18 9 -30q13 -11 28 -11h102q18 0 32 12q12 11 14 29l49 551q1 15 -10 28q-10 13 -30 13h-86
q-43 0 -65 -21l-125 -98q-14 -11 -16 -23q-1 -10 2 -18zM710 41q-1 -14 10 -29q10 -12 30 -12h530q18 0 31 12q14 14 15 29l6 61q1 18 -10 31q-12 12 -30 12h-367q3 33 70 54q66 22 146 36q80 15 149 63q68 48 76 128q9 106 -58 158.5t-211 52.5h-59q-103 0 -194 -53
t-98 -140q-3 -26 11 -38q16 -11 29 -11h73q38 0 64 41q30 56 117 56h33q111 0 105 -66q-4 -43 -119 -68q-59 -12 -107 -29q-57 -18 -108 -42q-50 -22 -87 -70q-35 -47 -41 -113z" />
    <glyph glyph-name="threequarters" unicode="&#xbe;" horiz-adv-x="1489" 
d="M61 979q-6 -77 78 -129q85 -53 181 -53h74q286 -1 303 192q8 86 -71 127q79 47 85 127q18 195 -269 195h-61q-98 0 -191 -54q-93 -52 -99 -129q-3 -26 12 -38q14 -11 28 -11h61q21 0 36 12q6 4 16 14q6 7 25 25q33 35 107 35h60q46 0 67.5 -13.5t19.5 -39.5
q-4 -53 -96 -53h-84q-17 0 -31 -14q-13 -14 -14 -29l-5 -53q-1 -20 10 -31q12 -12 27 -12h79q57 0 82 -11q23 -10 20 -47q-3 -47 -98 -47h-72q-72 0 -101 35l-20 26q-19 25 -47 25h-62q-14 0 -31 -11q-16 -12 -19 -38zM177 66q-16 -22 -18 -38q-1 -14 10.5 -21t34.5 -7h139
q73 0 121 66l942 1302q19 25 20 39q2 27 -47 27h-139q-74 0 -121 -66zM726 205l-5 -53q-1 -16 11 -29q12 -12 28 -12h381l-6 -70q-2 -19 10 -29q11 -12 27 -12h105q15 0 29 12q14 14 15 29l6 70h49q18 0 32 12q14 14 15 29l5 63q2 16 -10 28q-10 13 -29 13h-49l29 336
q1 16 -10 28q-10 13 -27 13h-160q-42 0 -71 -27l-341 -332q-31 -31 -34 -69zM951 256l222 215l-19 -215h-203z" />
    <glyph glyph-name="questiondown" unicode="&#xbf;" horiz-adv-x="1338" 
d="M606 971l-6 -64q-6 -62 26 -99q33 -36 98 -36h122q66 0 104 36q38 35 44 99l6 64q5 67 -27 100q-32 35 -97 35h-122q-136 0 -148 -135zM84 100q-20 -223 114 -334.5t422 -111.5h115q204 0 386 110q183 110 196 279q4 41 -20 76q-25 35 -72 35h-119q-90 0 -143 -95
q-74 -122 -239 -122h-51q-119 0 -169 39q-52 38 -44 119t127 133q56 25 111 55q57 31 112 70q55 41 91 104q38 63 46 151q3 26 -13 45q-15 17 -43 17h-226q-25 0 -45 -17q-19 -19 -22 -55q-3 -37 -54 -74q-53 -37 -124 -67q-73 -31 -146 -70q-75 -41 -127 -113
q-56 -76 -63 -174z" />
    <glyph glyph-name="Agrave" unicode="&#xc0;" horiz-adv-x="1708" 
 />
    <glyph glyph-name="Aacute" unicode="&#xc1;" horiz-adv-x="1708" 
 />
    <glyph glyph-name="Acircumflex" unicode="&#xc2;" horiz-adv-x="1708" 
 />
    <glyph glyph-name="Atilde" unicode="&#xc3;" horiz-adv-x="1708" 
 />
    <glyph glyph-name="Adieresis" unicode="&#xc4;" horiz-adv-x="1728" 
d="M583 1693q-10 -115 112 -115h102q122 0 132 115l3 40q11 115 -112 115h-102q-122 0 -132 -115zM1103 1693q-10 -115 111 -115h103q122 0 132 115l3 40q11 115 -111 115h-104q-121 0 -131 -115zM1288 1434q137 0 225.5 -97t76.5 -234l-88 -1011q-3 -37 -34 -65
q-30 -27 -69 -27h-188q-41 0 -65 27t-21 67l22 252h-688l-45 -252q-7 -40 -40 -67q-32 -27 -71 -27h-197q-38 0 -58 23q-18 21 -20 39q-1 13 1 30l168 952q67 388 629 390h462zM1210 1061q3 37 -21 63.5t-62 26.5h-313q-96 0 -163 -54q-67 -56 -83 -147l-60 -321h664z" />
    <glyph glyph-name="Aring" unicode="&#xc5;" horiz-adv-x="1708" 
 />
    <glyph glyph-name="AE" unicode="&#xc6;" horiz-adv-x="2600" 
d="M2448 1151h-870l-25 -291h748q39 0 65 -27q24 -28 21 -67l-8 -94q-3 -39 -33 -66q-29 -28 -69 -28h-749l-26 -295h868q38 0 64 -27q23 -28 20 -66l-9 -96q-3 -38 -32 -66q-31 -28 -70 -28h-1149q-39 0 -63 28q-27 27 -22 68l22 250h-678l-45 -252q-6 -41 -39 -68
q-34 -26 -71 -26h-197q-40 0 -58 22q-20 23 -20 40q-2 18 1 30l167 952q69 389 630 390h1652q39 0 64 -28t21 -67l-8 -94q-3 -39 -33 -66q-29 -28 -69 -28zM1155 629l46 522h-392q-94 0 -163 -55q-66 -54 -84 -146l-59 -321h652z" />
    <glyph glyph-name="Ccedilla" unicode="&#xc7;" horiz-adv-x="1684" 
d="M182 196q147 -178 477 -200l-15 -172q-5 -41 37 -41h59q68 0 100 -13t30 -39q-5 -53 -137 -53h-84q-41 1 -45 -40l-7 -84q-3 -41 37 -41h84q327 0 345 217q15 172 -206 190l6 72h125q229 0 411 118q185 117 203 322q3 41 -21 76q-26 35 -72 35h-119q-93 0 -153 -111
q-87 -158 -259 -158h-199q-218 0 -289 95q-69 95 -47 348q21 252 108 348q87 94 305 94h178q172 0 232 -158q42 -110 134 -110h119q33 0 70 25t42 85q18 205 -146 323q-163 118 -391 118h-223q-743 0 -804 -712q-32 -358 115 -534z" />
    <glyph glyph-name="Egrave" unicode="&#xc8;" horiz-adv-x="1526" 
 />
    <glyph glyph-name="Eacute" unicode="&#xc9;" horiz-adv-x="1526" 
 />
    <glyph glyph-name="Ecircumflex" unicode="&#xca;" horiz-adv-x="1526" 
 />
    <glyph glyph-name="Edieresis" unicode="&#xcb;" horiz-adv-x="1526" 
 />
    <glyph glyph-name="Igrave" unicode="&#xcc;" horiz-adv-x="664" 
 />
    <glyph glyph-name="Iacute" unicode="&#xcd;" horiz-adv-x="666" 
 />
    <glyph glyph-name="Icircumflex" unicode="&#xce;" horiz-adv-x="686" 
 />
    <glyph glyph-name="Idieresis" unicode="&#xcf;" horiz-adv-x="705" 
 />
    <glyph glyph-name="Eth" unicode="&#xd0;" horiz-adv-x="1739" 
d="M0 655q-2 -27 14 -44q15 -17 42 -17h123l-44 -502q-3 -39 22 -66q26 -26 65 -26h559q434 0 646 173q214 173 245 543q33 371 -150 544q-181 174 -616 174h-559q-38 0 -69 -28q-31 -30 -34 -69l-46 -518h-123q-25 0 -45 -18q-18 -16 -21 -43zM529 283l27 311h176
q26 0 46 17q20 20 21 44l9 103q3 26 -14 43q-15 18 -43 18h-176l29 332h266q270 0 358 -99q88 -97 67 -336q-21 -238 -126 -335q-106 -98 -375 -98h-265z" />
    <glyph glyph-name="Ntilde" unicode="&#xd1;" horiz-adv-x="1776" 
 />
    <glyph glyph-name="Ograve" unicode="&#xd2;" horiz-adv-x="1733" 
 />
    <glyph glyph-name="Oacute" unicode="&#xd3;" horiz-adv-x="1733" 
 />
    <glyph glyph-name="Ocircumflex" unicode="&#xd4;" horiz-adv-x="1733" 
 />
    <glyph glyph-name="Otilde" unicode="&#xd5;" horiz-adv-x="1733" 
 />
    <glyph glyph-name="Odieresis" unicode="&#xd6;" horiz-adv-x="1781" 
d="M549 1700q-11 -116 111 -116h103q121 0 132 116l3 39q12 115 -111 115h-103q-122 2 -132 -115zM1070 1700q-11 -116 111 -116h103q121 0 132 116l4 39q9 115 -113 115h-102q-122 2 -131 -115zM825 -31q823 0 889 748q66 747 -759 747q-823 0 -889 -747
q-32 -374 157.5 -561t601.5 -187zM932 1194q446 0 404 -477q-40 -477 -488 -477q-446 0 -404 477t488 477z" />
    <glyph glyph-name="multiply" unicode="&#xd7;" horiz-adv-x="996" 
d="M106 410q-3 -25 15 -43l77 -84q15 -20 42 -18q26 0 46 18l191 176l170 -187q17 -18 41 -18t45 18l91 86q21 19 22 44q2 25 -14 42l-170 185l202 186q21 19 22 43t-14 43l-77 84q-17 20 -41 18q-26 0 -45 -18l-202 -184l-161 176q-16 18 -42 18t-46 -18l-91 -84
q-21 -19 -22 -44q-2 -25 14 -42l163 -178l-194 -176q-21 -21 -22 -43z" />
    <glyph glyph-name="Oslash" unicode="&#xd8;" horiz-adv-x="1831" 
d="M1714 1434h-168q-57 0 -133 -70q-176 100 -434 100q-395 0 -616 -179t-254 -568q-27 -301 99 -504l-121 -119q-23 -23 -25 -39q-1 -16 0 -22q4 -33 52 -33h168q22 0 43 8l19 10q23 12 38 25l18 12q7 5 15 13q183 -99 433 -99q396 0 616 180q221 179 254 568
q27 298 -101 504l123 118q28 26 29 47q2 24 -12 36t-43 12zM486 717q19 235 132 357q112 120 337 120q126 0 216 -41l-676 -661q-21 88 -9 225zM654 281l677 659q22 -99 10 -223q-21 -239 -132 -357q-111 -120 -337 -120q-128 0 -218 41z" />
    <glyph glyph-name="Ugrave" unicode="&#xd9;" horiz-adv-x="1688" 
 />
    <glyph glyph-name="Uacute" unicode="&#xda;" horiz-adv-x="1688" 
 />
    <glyph glyph-name="Ucircumflex" unicode="&#xdb;" horiz-adv-x="1688" 
 />
    <glyph glyph-name="Udieresis" unicode="&#xdc;" horiz-adv-x="1760" 
d="M534 1656q-9 -116 112 -116h102q123 0 132 116l4 40q11 115 -112 115h-102q-122 0 -132 -115zM1016 1656q-9 -116 112 -116h102q123 0 132 116l4 40q9 115 -112 115h-102q-122 0 -132 -115zM126 567q-24 -273 123 -424q151 -151 458 -151h180q307 -1 487 151
q171 152 195 424l67 771q4 39 -23 68q-24 27 -66 27h-186q-39 0 -67 -27q-32 -29 -35 -68l-68 -773q-26 -290 -289 -290h-160q-264 0 -238 290l67 773q4 39 -23 68q-24 27 -63 27h-187q-40 0 -69 -27q-32 -29 -35 -68z" />
    <glyph glyph-name="Yacute" unicode="&#xdd;" horiz-adv-x="1522" 
 />
    <glyph glyph-name="Thorn" unicode="&#xde;" horiz-adv-x="1615" 
d="M144 31q-5 -39 23 -67q25 -27 65 -27h184q40 0 70 27q31 26 34 67l9 98h197q774 0 825 587q26 294 -154.5 441t-567.5 147h-197l8 98q4 39 -21 67q-25 27 -66 27h-184q-41 0 -72 -27q-30 -29 -33 -67zM543 398l55 635h205q197 0 291 -72q95 -71 80 -245
q-15 -172 -122 -245q-110 -73 -304 -73h-205z" />
    <glyph glyph-name="germandbls" unicode="&#xdf;" horiz-adv-x="1623" 
d="M143 94q-3 -39 23 -67q26 -27 64 -27h157q39 0 69 27t33 67l78 884q8 86 62 134q54 50 135 50h108q78 0 125 -47q46 -46 42 -103q-6 -57 -46 -93q-38 -34 -83 -82q-41 -44 -47 -106q-6 -59 30 -112q35 -50 90 -85l109 -72q129 -84 123 -160q-9 -95 -187 -95
q-92 0 -136 60q-45 60 -115 60h-150q-28 0 -45 -17q-19 -17 -22 -45q-13 -153 110 -219t360 -66q236 0 376 78q140 79 154 244q7 69 -25 134q-32 64 -80 109q-50 47 -98 86q-44 36 -83 75q-33 34 -31 63q5 49 87 123q82 76 89 154q16 194 -134 291q-150 96 -393 96h-102
q-529 0 -569 -449z" />
    <glyph glyph-name="agrave" unicode="&#xe0;" horiz-adv-x="1335" 
 />
    <glyph glyph-name="aacute" unicode="&#xe1;" horiz-adv-x="1335" 
 />
    <glyph glyph-name="acircumflex" unicode="&#xe2;" horiz-adv-x="1335" 
 />
    <glyph glyph-name="atilde" unicode="&#xe3;" horiz-adv-x="1335" 
 />
    <glyph glyph-name="adieresis" unicode="&#xe4;" horiz-adv-x="1380" 
d="M388 1377q-5 -58 23 -87t89 -28h102q123 -1 132 115l4 39q10 116 -112 116h-102q-122 0 -132 -116zM867 1377q-5 -58 23 -87t89 -28h102q121 -1 132 115l4 39q9 116 -112 116h-102q-123 0 -132 -116zM63 332q-15 -168 115 -263q126 -90 335 -90q209 -1 378 113l-3 -31
q-4 -61 55 -61h192q60 0 66 61l54 619q20 222 -122 337q-129 100 -365 100q-558 0 -584 -287q-4 -61 58 -61h151q73 0 121 53q64 67 210 67q108 0 148 -45q47 -45 37 -163h-335q-214 0 -350 -89q-146 -91 -161 -260zM409 332q5 53 47 86q49 35 118 35h315l-14 -156
q-153 -90 -307 -90q-85 0 -124.5 31t-34.5 94z" />
    <glyph glyph-name="aring" unicode="&#xe5;" horiz-adv-x="1335" 
 />
    <glyph glyph-name="ae" unicode="&#xe6;" horiz-adv-x="2114" 
d="M176 71q127 -91 350 -91q349 0 510 151q142 -151 399 -151q528 0 552 286q3 25 -13 44q-16 18 -43 18h-149q-71 0 -127 -61q-54 -60 -187 -60q-134 0 -189 56q-55 55 -55 179h754q28 0 46 17q18 18 21 45l5 57q24 266 -118 411q-141 144 -402 144q-260 0 -426 -127
q-133 127 -388 127q-505 0 -529 -287q-3 -25 13 -44q16 -17 43 -17h149q72 0 127 60q55 61 177 61t168 -46q44 -46 35 -163h-331q-209 0 -350 -90q-140 -90 -155 -259q-15 -170 113 -260zM1242 653l2 23q42 213 251 213q221 0 210 -236h-463zM878 440l-13 -143
q-111 -90 -305 -90q-78 0 -116 34q-39 34 -34 89t48 89q45 34 114 34h305z" />
    <glyph glyph-name="ccedilla" unicode="&#xe7;" horiz-adv-x="1286" 
d="M64 547q-42 -487 423 -555l-15 -168q-3 -41 37 -41h60q68 0 100.5 -13t30.5 -39q-5 -53 -138 -53h-84q-41 0 -44 -40l-8 -84q-3 -41 38 -41h84q325 0 345 217q7 86 -44.5 133.5t-163.5 56.5l6 62q239 12 374 99q136 87 150 247q3 26 -14 44q-15 17 -43 17h-149
q-68 0 -121 -74q-68 -94 -220 -94q-153 0 -207 77q-55 77 -40 250q15 172 82 250q66 76 215 76q150 0 201 -94q41 -73 108 -73h149q26 0 46 17q20 18 21 44q17 173 -125 260q-140 88 -417 88t-445 -144q-167 -146 -192 -425z" />
    <glyph glyph-name="egrave" unicode="&#xe8;" horiz-adv-x="1290" 
 />
    <glyph glyph-name="eacute" unicode="&#xe9;" horiz-adv-x="1290" 
 />
    <glyph glyph-name="ecircumflex" unicode="&#xea;" horiz-adv-x="1290" 
 />
    <glyph glyph-name="edieresis" unicode="&#xeb;" horiz-adv-x="1290" 
 />
    <glyph glyph-name="igrave" unicode="&#xec;" horiz-adv-x="596" 
 />
    <glyph glyph-name="iacute" unicode="&#xed;" horiz-adv-x="596" 
 />
    <glyph glyph-name="icircumflex" unicode="&#xee;" horiz-adv-x="645" 
 />
    <glyph glyph-name="idieresis" unicode="&#xef;" horiz-adv-x="664" 
 />
    <glyph glyph-name="eth" unicode="&#xf0;" horiz-adv-x="1347" 
d="M619 -20q290 0 463 167q172 167 195 426l4 41q24 271 -75 467q-99 195 -309 297l75 107q16 19 12 45q-3 25 -25 39l-47 30q-16 11 -40 11q-25 0 -45 -29l-98 -139q-125 32 -280 43q-4 1 -14 1q-36 0 -45 -28l-21 -84q-28 -51 21 -55q114 -7 222 -39l-84 -121
q-16 -22 -13 -47t25 -39l45 -31q20 -11 42 -11t45 32l104 145q224 -140 225 -399q-98 152 -374 152q-227 0 -385 -129q-158 -130 -179 -364q-19 -235 123 -361q142 -127 433 -127zM689 733q123 0 183 -68q62 -70 50 -195q-11 -127 -84 -194q-72 -69 -195 -69t-183 69
q-61 69 -49 194q10 125 83 195q73 68 195 68z" />
    <glyph glyph-name="ntilde" unicode="&#xf1;" 
 />
    <glyph glyph-name="ograve" unicode="&#xf2;" horiz-adv-x="1331" 
 />
    <glyph glyph-name="oacute" unicode="&#xf3;" horiz-adv-x="1331" 
 />
    <glyph glyph-name="ocircumflex" unicode="&#xf4;" horiz-adv-x="1331" 
 />
    <glyph glyph-name="otilde" unicode="&#xf5;" horiz-adv-x="1331" 
 />
    <glyph glyph-name="odieresis" unicode="&#xf6;" horiz-adv-x="1338" 
d="M341 1348q-10 -116 112 -116h102q122 0 132 116l3 38q11 116 -112 116h-102q-121 0 -132 -116zM843 1348q-10 -116 112 -116h102q122 0 132 116l4 38q9 116 -112 116h-102q-123 0 -132 -116zM64 550q-24 -282 120 -427q140 -143 436 -143t460 143q168 145 193 427
q49 568 -555 568q-605 0 -654 -568zM410 550q30 340 288 340q257 0 229 -340q-30 -342 -289 -342q-258 0 -228 342z" />
    <glyph glyph-name="divide" unicode="&#xf7;" horiz-adv-x="1277" 
d="M862 1008l5 63q6 64 -26 99q-30 36 -97 36h-123q-65 0 -103 -36q-38 -35 -44 -99l-5 -63q-6 -66 26 -101t97 -35h123q135 0 147 136zM41 569q-2 -26 14 -43q17 -18 42 -18h1061q26 0 46 18q19 16 21 43l11 119q2 28 -14 45q-17 17 -43 17h-1061q-25 0 -45 -17
q-20 -20 -21 -45zM397 186q-6 -62 26 -99q31 -36 97 -36h123q67 0 104 36q37 35 43 99l5 64q6 66 -25 100q-32 35 -98 35h-123q-63 0 -103 -35q-38 -35 -44 -100z" />
    <glyph glyph-name="oslash" unicode="&#xf8;" horiz-adv-x="1443" 
d="M1326 1096h-127q-91 0 -138 -58q-137 78 -290 78q-293 0 -461 -144t-192 -423q-21 -223 66 -363l-94 -92q-27 -24 -28 -40q0 -13 2 -21q6 -33 53 -33h127q92 0 138 57q133 -77 290 -77q293 0 461 144t192 425q19 219 -68 358l96 94q25 23 26 48q2 23 -11.5 35t-41.5 12z
M464 549q15 179 85 259q69 81 202 81q75 0 125 -27l-416 -405q0 57 4 92zM567 231l414 408q3 -40 -2 -90q-15 -180 -85 -260q-69 -82 -202 -82q-77 0 -125 24z" />
    <glyph glyph-name="ugrave" unicode="&#xf9;" 
 />
    <glyph glyph-name="uacute" unicode="&#xfa;" 
 />
    <glyph glyph-name="ucircumflex" unicode="&#xfb;" 
 />
    <glyph glyph-name="udieresis" unicode="&#xfc;" horiz-adv-x="1450" 
d="M364 1374q-5 -58 23 -87t89 -28h102q122 -2 132 115l4 39q9 116 -112 116h-102q-122 0 -133 -116zM885 1374q-4 -58 24 -87t89 -28h102q122 -2 131 115l4 39q11 116 -111 116h-103q-121 0 -132 -116zM126 460q-21 -241 95 -369q105 -112 318 -112q175 0 362 146l-6 -64
q-4 -61 56 -61h223q63 0 67 61l86 973q3 62 -57 62h-223q-62 -2 -66 -62l-59 -669q-156 -144 -281 -144q-190 0 -169 240l50 573q6 62 -55 62h-224q-61 -1 -67 -62z" />
    <glyph glyph-name="yacute" unicode="&#xfd;" horiz-adv-x="1294" 
 />
    <glyph glyph-name="thorn" unicode="&#xfe;" horiz-adv-x="1432" 
d="M123 -276q-3 -26 13 -45q17 -17 42 -17h224q26 0 45 17t22 45l27 307q158 -51 284 -51q248 0 404 146q158 146 182 422q24 277 -108 422q-134 146 -379 146q-127 0 -293 -51l27 307q2 27 -14 44q-15 18 -42 18h-224q-25 0 -45 -18q-18 -18 -21 -44zM516 262l50 572
q135 40 220 40q137 0 188 -77t36 -248t-80 -250q-63 -78 -201 -78q-91 0 -213 41z" />
    <glyph glyph-name="ydieresis" unicode="&#xff;" horiz-adv-x="1294" 
 />
    <glyph glyph-name="Ccaron" unicode="&#x10c;" horiz-adv-x="1673" 
 />
    <glyph glyph-name="ccaron" unicode="&#x10d;" horiz-adv-x="1272" 
 />
    <glyph glyph-name="Dcaron" unicode="&#x10e;" horiz-adv-x="1688" 
 />
    <glyph glyph-name="dcaron" unicode="&#x10f;" horiz-adv-x="1630" 
d="M882 92l-3 -31q-5 -61 56 -61h192q62 0 67 61l115 1311q4 62 -57 62h-223q-61 0 -66 -62l-27 -307q-156 51 -285 51q-244 0 -404 -146q-158 -148 -182 -422q-24 -275 103 -421q129 -147 338 -147q210 0 376 112zM1381 981q-5 -52 13 -72q16 -22 60 -22h29q84 0 107 74
l101 360q4 15 5 35q3 22 -20 51q-21 27 -75 27h-80q-41 0 -72 -35q-30 -33 -35 -80zM702 874q85 2 214 -40l-46 -523q-154 -90 -261 -90q-109 0 -155 78q-47 79 -32 250q15 172 80 249q66 76 200 76z" />
    <glyph glyph-name="Ecaron" unicode="&#x11a;" horiz-adv-x="1526" 
 />
    <glyph glyph-name="ecaron" unicode="&#x11b;" horiz-adv-x="1290" 
 />
    <glyph glyph-name="hbar" unicode="&#x126;" horiz-adv-x="1441" 
d="M20 1116q-3 -25 13 -44q17 -17 43 -17h137l-87 -994q-2 -27 14 -43q16 -18 43 -18h223q26 0 45 18q19 16 21 43l46 527q158 143 282 143q190 0 169 -239l-38 -431q-2 -27 14 -43q17 -18 42 -18h224q25 0 45 18q19 16 21 43l38 431q21 243 -90 362q-113 119 -306 119
q-195 0 -380 -146l20 228h158q26 0 46 17q18 18 21 44l9 109q3 25 -13 43q-15 18 -43 18h-158l8 86q3 27 -14 44q-15 18 -42 18h-223q-26 0 -46 -18q-18 -16 -21 -44l-7 -86h-137q-28 0 -46 -18q-19 -16 -22 -43z" />
    <glyph glyph-name="hbar" unicode="&#x127;" horiz-adv-x="1441" 
d="M20 1116q-3 -25 13 -44q17 -17 43 -17h137l-87 -994q-2 -27 14 -43q16 -18 43 -18h223q26 0 45 18q19 16 21 43l46 527q158 143 282 143q190 0 169 -239l-38 -431q-2 -27 14 -43q17 -18 42 -18h224q25 0 45 18q19 16 21 43l38 431q21 243 -90 362q-113 119 -306 119
q-195 0 -380 -146l20 228h158q26 0 46 17q18 18 21 44l9 109q3 25 -13 43q-15 18 -43 18h-158l8 86q3 27 -14 44q-15 18 -42 18h-223q-26 0 -46 -18q-18 -16 -21 -44l-7 -86h-137q-28 0 -46 -18q-19 -16 -22 -43z" />
    <glyph glyph-name="Itilde" unicode="&#x128;" horiz-adv-x="664" 
 />
    <glyph glyph-name="itilde" unicode="&#x129;" horiz-adv-x="643" 
 />
    <glyph glyph-name="dotlessi" unicode="&#x131;" horiz-adv-x="718" 
d="M143 61q-3 -26 14 -43q15 -18 43 -18h223q27 0 45 18q18 16 21 43l85 973q3 26 -13 44q-15 18 -43 18h-223q-27 0 -46 -18q-18 -16 -21 -44z" />
    <glyph glyph-name="ij" unicode="&#x132;" horiz-adv-x="1326" 
d="M228 1305q-4 -53 23 -85q29 -30 82 -30h124q54 0 87 30q34 32 38 85l3 34q4 53 -23 84q-28 31 -82 31h-124q-55 0 -87 -31q-34 -30 -38 -84zM824 1305q-5 -55 23 -85t82 -30h124q54 0 87 30q34 32 38 85l3 34q4 53 -23 84q-28 31 -82 31h-124q-55 0 -87 -31
q-34 -30 -38 -84zM123 61q-2 -27 14 -43q17 -18 42 -18h224q25 0 45 18q19 16 21 43l83 949q3 26 -14 43q-15 18 -41 18h-224q-27 0 -45 -18q-19 -16 -22 -43zM469 -106h-30q-27 0 -46 -17t-22 -45l-9 -108q-5 -48 56 -62q89 -20 223 -20q387 0 429 471l78 897q3 26 -14 43
q-15 18 -42 18h-224q-26 0 -45 -18q-18 -16 -21 -43l-78 -897q-12 -123 -55 -178q-44 -56 -99 -56z" />
    <glyph glyph-name="ij" unicode="&#x133;" horiz-adv-x="1326" 
d="M228 1305q-4 -53 23 -85q29 -30 82 -30h124q54 0 87 30q34 32 38 85l3 34q4 53 -23 84q-28 31 -82 31h-124q-55 0 -87 -31q-34 -30 -38 -84zM824 1305q-5 -55 23 -85t82 -30h124q54 0 87 30q34 32 38 85l3 34q4 53 -23 84q-28 31 -82 31h-124q-55 0 -87 -31
q-34 -30 -38 -84zM123 61q-2 -27 14 -43q17 -18 42 -18h224q25 0 45 18q19 16 21 43l83 949q3 26 -14 43q-15 18 -41 18h-224q-27 0 -45 -18q-19 -16 -22 -43zM469 -106h-30q-27 0 -46 -17t-22 -45l-9 -108q-5 -48 56 -62q89 -20 223 -20q387 0 429 471l78 897q3 26 -14 43
q-15 18 -42 18h-224q-26 0 -45 -18q-18 -16 -21 -43l-78 -897q-12 -123 -55 -178q-44 -56 -99 -56z" />
    <glyph glyph-name="Jcircumflex" unicode="&#x134;" horiz-adv-x="1133" 
 />
    <glyph glyph-name="jcircumflex" unicode="&#x135;" horiz-adv-x="651" 
 />
    <glyph glyph-name="uni0137" unicode="&#x136;" horiz-adv-x="1293" 
d="M1226 44q1 20 -13 50l-146 275q-78 144 -197 180q67 15 128 63q61 49 100 117l153 272q19 34 21 56q2 20 -10 29.5t-37 9.5h-189q-46 0 -86 -26q-41 -26 -65 -69l-114 -204q-75 -135 -249 -135l62 710q2 28 -13 45q-17 17 -43 17h-224q-25 0 -45 -17q-19 -18 -21 -45
l-115 -1311q-1 -27 13 -44q17 -17 43 -17h224q25 0 45 17q18 18 21 44l33 373q156 0 226 -133l109 -207q49 -94 145 -94h189q52 0 55 44zM486 -371q-4 -50 13 -72q19 -22 61 -22h29q83 0 106 74l97 299q12 50 -16 85q-21 27 -75 27h-80q-41 0 -72 -34q-31 -35 -35 -80z" />
    <glyph glyph-name="uni0137" unicode="&#x137;" horiz-adv-x="1293" 
d="M1226 44q1 20 -13 50l-146 275q-78 144 -197 180q67 15 128 63q61 49 100 117l153 272q19 34 21 56q2 20 -10 29.5t-37 9.5h-189q-46 0 -86 -26q-41 -26 -65 -69l-114 -204q-75 -135 -249 -135l62 710q2 28 -13 45q-17 17 -43 17h-224q-25 0 -45 -17q-19 -18 -21 -45
l-115 -1311q-1 -27 13 -44q17 -17 43 -17h224q25 0 45 17q18 18 21 44l33 373q156 0 226 -133l109 -207q49 -94 145 -94h189q52 0 55 44zM486 -371q-4 -50 13 -72q19 -22 61 -22h29q83 0 106 74l97 299q12 50 -16 85q-21 27 -75 27h-80q-41 0 -72 -34q-31 -35 -35 -80z" />
    <glyph glyph-name="kgreenlandic" unicode="&#x138;" horiz-adv-x="1293" 
d="M1226 44q1 20 -13 50l-146 275q-78 142 -197 180q67 14 128 63t100 117l153 272q19 33 21 56q2 20 -10 29.5t-37 9.5h-189q-43 0 -86 -26q-41 -28 -65 -69l-114 -204q-75 -135 -249 -135l32 372q3 26 -13 44q-15 18 -43 18h-223q-27 0 -46 -18q-18 -16 -21 -44l-85 -973
q-3 -26 13 -44q15 -17 43 -17h224q25 0 45 17q18 16 21 44l33 373q156 0 226 -133l109 -207q48 -94 145 -94h188q53 0 56 44z" />
    <glyph glyph-name="Lacute" unicode="&#x139;" horiz-adv-x="1505" 
 />
    <glyph glyph-name="lacute" unicode="&#x13a;" horiz-adv-x="592" 
 />
    <glyph glyph-name="Lcaron" unicode="&#x13d;" horiz-adv-x="1514" 
d="M143 92q-3 -37 23 -64q25 -28 64 -28h1153q38 0 69 28q30 27 33 66l9 94q3 39 -22 67t-64 28h-871l92 1054q5 41 -21 69t-64 28h-188q-37 0 -70 -28q-29 -28 -34 -69zM709 981q-4 -49 13 -73q18 -21 61 -21h28q84 0 107 74l101 360q1 3 5 34q2 25 -20 51q-22 28 -75 28
h-80q-40 0 -72 -35q-31 -37 -34 -80z" />
    <glyph glyph-name="lcaron" unicode="&#x13e;" horiz-adv-x="799" 
 />
    <glyph glyph-name="ldot" unicode="&#x13f;" horiz-adv-x="1019" 
d="M123 61q-2 -26 14 -43q17 -18 42 -18h224q25 0 45 18t21 43l115 1311q3 27 -14 45q-15 17 -42 17h-224q-25 0 -45 -17q-18 -18 -21 -45zM627 649q-11 -114 105 -114h96q114 0 125 114l3 39q10 115 -105 115h-96q-115 0 -125 -115z" />
    <glyph glyph-name="ldot" unicode="&#x140;" horiz-adv-x="1019" 
d="M123 61q-2 -26 14 -43q17 -18 42 -18h224q25 0 45 18t21 43l115 1311q3 27 -14 45q-15 17 -42 17h-224q-25 0 -45 -17q-18 -18 -21 -45zM627 649q-11 -114 105 -114h96q114 0 125 114l3 39q10 115 -105 115h-96q-115 0 -125 -115z" />
    <glyph glyph-name="Lslash" unicode="&#x141;" horiz-adv-x="1541" 
d="M0 487q-2 -26 17 -39q19 -12 41 -2l150 70l-37 -424q-3 -39 22 -66q24 -26 64 -26h1153q40 0 68 28q31 28 34 66l8 94q3 39 -22 67q-24 28 -64 28h-870l37 415l159 76q64 28 70 82l14 160q2 27 -17 38q-18 14 -42 3l-159 -76l31 356q3 41 -22 69q-26 28 -65 28h-188
q-38 0 -69 -28q-30 -28 -33 -69l-47 -538l-150 -70q-64 -28 -69 -82z" />
    <glyph glyph-name="lslash" unicode="&#x142;" horiz-adv-x="821" 
d="M0 497q-1 -26 16 -38q18 -12 42 -2l150 68l-41 -464q-1 -27 13 -44q16 -17 43 -17h223q28 0 46 17q18 16 21 44l55 632l171 80q64 30 68 82l14 160q3 27 -15 39t-42 2l-171 -80l35 395q2 28 -14 45q-17 17 -43 17h-223q-25 0 -45 -17q-19 -18 -21 -45l-50 -563l-150 -70
q-64 -29 -68 -82z" />
    <glyph glyph-name="Nacute" unicode="&#x143;" horiz-adv-x="1776" 
 />
    <glyph glyph-name="nacute" unicode="&#x144;" 
 />
    <glyph glyph-name="Ncaron" unicode="&#x147;" horiz-adv-x="1776" 
 />
    <glyph glyph-name="ncaron" unicode="&#x148;" 
 />
    <glyph glyph-name="OE" unicode="&#x152;" horiz-adv-x="2547" 
d="M216 173q184 -173 617 -173h1458q40 0 69 28q30 27 33 66l9 96q3 39 -21 66t-63 27h-868l26 295h749q39 0 69 27q30 28 34 67l8 94q3 39 -22 66q-25 28 -65 28h-749l26 291h870q39 0 69 27q30 30 33 67l8 94q3 39 -22 67t-64 28h-1461q-434 0 -647 -174
q-213 -171 -246 -544q-33 -369 150 -543zM570 1052q106 99 374 99h205l-76 -868h-205q-268 0 -357 98t-68 335q21 239 127 336z" />
    <glyph glyph-name="oe" unicode="&#x153;" horiz-adv-x="2157" 
d="M183 123q144 -144 430 -144q286 -1 451 167q128 -167 394 -167q547 0 572 286q3 26 -13 45q-15 17 -42 17h-150q-73 -1 -127 -61t-187 -60t-189 56t-54 179h753q27 0 46 18q18 16 21 44l5 57q24 268 -118 411q-141 144 -411 144q-271 0 -430 -170q-135 170 -421 170
q-287 0 -456 -144q-169 -143 -193 -423q-24 -282 119 -425zM496 807q69 81 202 81q134 0 189 -81q55 -80 40 -259q-15 -176 -85 -260q-70 -82 -203 -82q-134 0 -189 82q-54 82 -39 260q15 177 85 259zM1284 652q33 236 254 236q222 0 211 -236h-465z" />
    <glyph glyph-name="Racute" unicode="&#x154;" horiz-adv-x="1655" 
 />
    <glyph glyph-name="racute" unicode="&#x155;" horiz-adv-x="995" 
 />
    <glyph glyph-name="uni0156" unicode="&#x156;" horiz-adv-x="1686" 
d="M1628 43q2 23 -12 51l-156 289q-54 97 -104 155q-46 54 -104 76q383 73 409 365q18 208 -118 331q-135 123 -364 123h-825q-40 0 -69 -28q-29 -27 -32 -67l-109 -1244q-4 -39 22 -67q26 -27 64 -27h188q39 0 69 27q29 26 34 67l37 430h244q148 0 240 -164l147 -266
q20 -40 63 -67q44 -27 81 -27h240q51 0 55 43zM583 807l30 343h426q105 0 178 -41q74 -40 67 -130q-8 -91 -90 -131q-81 -41 -185 -41h-426zM665 -371q-5 -51 13 -73q16 -21 60 -21h29q84 0 106 74l96 299q3 11 5 33q3 22 -16 49q-26 30 -79 30h-80q-41 0 -71 -35
q-30 -33 -35 -79z" />
    <glyph glyph-name="uni0157" unicode="&#x157;" horiz-adv-x="1107" 
d="M975 842h32q26 0 46 17q18 16 21 44l13 152q3 25 -13 43t-43 18q-153 0 -251 -36q-95 -34 -206 -109l6 63q2 28 -14 44q-15 18 -42 18h-224q-26 0 -45 -18q-19 -16 -21 -44l-85 -973q-3 -28 13 -44q15 -17 42 -17h224q25 0 45 17q19 16 21 44l56 639q136 148 271 148z
M124 -473q-5 -52 13 -72q18 -22 61 -22h29q83 -2 106 73l96 299q4 15 5 35q2 24 -20 51t-75 27h-80q-40 0 -72 -35q-29 -34 -34 -80z" />
    <glyph glyph-name="Rcaron" unicode="&#x158;" horiz-adv-x="1655" 
 />
    <glyph glyph-name="rcaron" unicode="&#x159;" horiz-adv-x="995" 
 />
    <glyph glyph-name="Scaron" unicode="&#x160;" horiz-adv-x="1595" 
 />
    <glyph glyph-name="scaron" unicode="&#x161;" horiz-adv-x="1225" 
 />
    <glyph glyph-name="Tcaron" unicode="&#x164;" horiz-adv-x="1499" 
 />
    <glyph glyph-name="tcaron" unicode="&#x165;" horiz-adv-x="1027" 
d="M674 1227q-4 -50 13 -72q18 -22 61 -22h29q83 0 106 73l102 361q4 15 5 35q2 23 -20 50t-76 27h-80q-41 0 -71 -34q-32 -35 -35 -80zM629 217q-177 0 -157 213l32 367h279q60 0 66 61l10 119q6 61 -55 61h-279l29 334q6 62 -56 62h-224q-60 0 -66 -62l-82 -942
q-40 -450 390 -450q168 0 268 20q63 9 67 61l10 107q4 61 -57 61h-37z" />
    <glyph glyph-name="Uring" unicode="&#x16e;" horiz-adv-x="1688" 
 />
    <glyph glyph-name="uring" unicode="&#x16f;" 
 />
    <glyph glyph-name="Ydieresis" unicode="&#x178;" horiz-adv-x="1520" 
 />
    <glyph glyph-name="Zcaron" unicode="&#x17d;" horiz-adv-x="1468" 
 />
    <glyph glyph-name="zcaron" unicode="&#x17e;" horiz-adv-x="1145" 
 />
    <glyph glyph-name="florin" unicode="&#x192;" horiz-adv-x="1360" 
d="M1316 1200h37q25 0 48 18q22 18 28 44l31 110q4 23 -8 41q-14 18 -38 21q-91 20 -261 20q-321 0 -477 -116q-159 -117 -230 -395l-221 -829q-30 -122 -85 -179q-54 -55 -107 -55l-99 15h-31q-25 0 -48 -18q-22 -16 -28 -44l-29 -108q-2 -5 -2 -14q-5 -36 46 -48
q79 -20 220 -20q387 0 510 471l150 571h362q29 0 50 17q23 17 29 44l32 119q6 27 -7 44q-14 18 -40 18h-362l5 16q45 167 118 221q74 53 273 53z" />
    <glyph glyph-name="circumflex" unicode="&#x2c6;" horiz-adv-x="811" 
 />
    <glyph glyph-name="caron" unicode="&#x2c7;" horiz-adv-x="811" 
 />
    <glyph glyph-name="tilde" unicode="&#x2dc;" horiz-adv-x="766" 
 />
    <glyph glyph-name="uni0401" unicode="&#x401;" horiz-adv-x="1526" 
 />
    <glyph glyph-name="uni0402" unicode="&#x402;" horiz-adv-x="1507" 
d="M834 242h-31q-26 0 -46 -17q-20 -20 -21 -45l-11 -129q-2 -25 16 -41t57 -23q41 -7 207 -7q417 0 454 430l4 51q24 261 -126 393q-151 131 -386 131q-236 0 -393 -125l26 295h131q26 0 46 17q18 18 21 45l13 155q3 26 -13 44q-15 18 -42 18h-639q-28 0 -46 -18
q-19 -16 -22 -44l-13 -155q-3 -26 13 -45q17 -17 43 -17h131l-93 -1061q-3 -39 22 -66q25 -28 66 -28h187q40 0 69 28q30 27 33 66l41 465q135 143 318 143q257 0 236 -241l-4 -51q-8 -89 -52 -135q-44 -48 -95 -48z" />
    <glyph glyph-name="uni0403" unicode="&#x403;" horiz-adv-x="1428" 
d="M720 1651q-13 -30 -16 -56q-3 -40 21 -59.5t76 -19.5h39q92 0 166 114l162 244q22 35 23 62q3 26 -11 51q-32 43 -114 43h-81q-48 0 -96 -34q-46 -33 -66 -81zM143 92q-3 -39 22 -66q26 -26 65 -26h188q38 0 69 26q30 27 33 66l93 1059h684q40 0 69 26q28 26 33 68l8 94
q3 42 -21 68q-24 27 -65 27h-966q-40 0 -70 -27q-28 -27 -33 -68z" />
    <glyph glyph-name="uni0404" unicode="&#x404;" horiz-adv-x="1686" 
d="M203 169q171 -177 541 -177h244q141 0 276 47q131 46 229 145q95 98 107 228q3 40 -21 75t-72 35h-119q-90 1 -153 -110q-79 -138 -257 -138h-199q-191 0 -270 69q-80 69 -72 239h537q39 0 69 27q30 29 33 67l7 84q4 38 -21 66t-64 28h-537q26 169 115 236q90 69 280 69
h178q178 0 234 -137q44 -111 133 -111h119q33 0 71 26q37 25 42 85q12 128 -67 227q-78 98 -204 146q-126 47 -268 47h-223q-372 0 -572 -178q-201 -177 -233 -548q-33 -370 137 -547z" />
    <glyph glyph-name="uni0405" unicode="&#x405;" horiz-adv-x="1621" 
d="M62 367q-14 -158 142 -263q157 -106 361 -106l302 -6q347 0 501 109q153 108 171 309q12 147 -90 246q-104 99 -259 141q-143 40 -312 74q-150 29 -264 70q-108 40 -102 103q9 115 186 115l300 -6q164 0 202 -98q39 -99 129 -99h119q31 0 69 26q38 27 42 85
q15 157 -141 264q-156 105 -360 105l-254 6q-348 0 -501 -108q-152 -109 -170 -310q-10 -108 43 -189q52 -80 144 -127q94 -46 204 -80q116 -34 225 -56q121 -24 208 -46q105 -25 156 -59t47 -78q-11 -115 -186 -115l-349 7q-164 0 -203 98q-37 98 -128 98h-119
q-33 0 -70 -25t-43 -85z" />
    <glyph glyph-name="uni0406" unicode="&#x406;" horiz-adv-x="774" 
d="M144 92q-4 -38 22 -66q26 -26 65 -26h186q40 0 69 28q30 26 35 66l109 1245q3 39 -22 67q-26 28 -66 28h-186q-38 0 -69 -28t-34 -67z" />
    <glyph glyph-name="uni0407" unicode="&#x407;" horiz-adv-x="664" 
 />
    <glyph glyph-name="uni0408" unicode="&#x408;" horiz-adv-x="1239" 
d="M145 301h-33q-42 0 -70 -28q-29 -28 -32 -66l-10 -113q-3 -39 22 -66q24 -28 64 -28h283q291 0 473 139t204 396l71 804q3 39 -22 67q-26 28 -67 28h-186q-38 0 -69 -28q-30 -29 -33 -67l-71 -807q-12 -135 -79 -192q-68 -57 -207 -57h-72z" />
    <glyph glyph-name="uni0409" unicode="&#x409;" horiz-adv-x="2568" 
d="M28 84q-4 -13 -5 -25q-2 -15 13 -37t50 -22h203q38 0 76 26q37 27 51 68l304 856q33 93 109 146q76 55 172 55h213l-92 -1057q-4 -38 21 -66t64 -28h732q234 0 401 125q166 125 185 348t-124 348t-379 125h-449l34 393q4 34 -18 66q-23 29 -57 29h-469q-560 -1 -697 -390
zM1515 283l33 381h449q168 0 151 -191q-16 -190 -184 -190h-449z" />
    <glyph glyph-name="uni040A" unicode="&#x40a;" horiz-adv-x="2590" 
d="M143 94q-3 -39 24 -66q25 -28 65 -28h186q38 0 69 26q30 27 33 66l47 535h623l-47 -535q-3 -39 22 -66q26 -26 64 -26h733q233 0 400 122q165 121 185 333q18 211 -127 332q-145 122 -379 122h-450l38 430q3 39 -22 67q-26 28 -67 28h-186q-38 0 -69 -28q-30 -30 -33 -67
l-37 -430h-623l37 430q3 39 -21 67q-26 28 -64 28h-186q-41 0 -72 -28q-30 -28 -34 -67zM1537 283l30 344h450q83 0 122 -46q37 -46 31 -126q-7 -79 -53 -126q-46 -46 -130 -46h-450z" />
    <glyph glyph-name="uni040B" unicode="&#x40b;" horiz-adv-x="1527" 
d="M20 1217q-3 -26 13 -45q17 -17 43 -17h131l-92 -1061q-5 -39 21 -66q25 -28 66 -28h187q40 0 69 28q30 27 33 66l41 465q135 143 318 143q129 1 188 -59.5t48 -181.5l-32 -367q-3 -39 22 -66q25 -28 64 -28h187q39 0 70 28q31 27 34 66l32 367q24 261 -126 393
q-151 131 -386 131q-236 0 -393 -125l26 295h131q26 0 46 17q18 18 21 45l13 155q3 26 -13 44q-15 18 -42 18h-639q-28 0 -46 -18q-19 -16 -22 -44z" />
    <glyph glyph-name="uni040C" unicode="&#x40c;" horiz-adv-x="1628" 
 />
    <glyph glyph-name="uni040E" unicode="&#x40e;" horiz-adv-x="1595" 
 />
    <glyph glyph-name="uni040F" unicode="&#x40f;" horiz-adv-x="1881" 
d="M143 94q-3 -39 21 -66q24 -28 64 -28h481l-24 -274q-4 -37 21 -67q25 -28 64 -28h147q40 0 71 28q30 28 35 67l24 274h478q40 0 69 28q29 26 34 66l109 1245q3 38 -23 67q-26 28 -65 28h-186q-37 0 -70 -28q-30 -29 -33 -67l-93 -1056h-731l93 1056q3 39 -22 67
q-26 28 -64 28h-188q-38 0 -69 -28t-34 -67z" />
    <glyph glyph-name="uni0410" unicode="&#x410;" horiz-adv-x="1820" 
d="M28 92q-4 -14 -6 -30q-2 -17 13 -40q15 -22 54 -22h197q39 0 76 26q37 27 51 68l89 252h711l-22 -252q-3 -41 21 -68q24 -26 65 -26h188q38 0 69 26q31 28 34 66l109 1249q3 37 -19 65t-59 28h-539q-562 -2 -698 -390zM601 629l116 321q33 91 109 146t173 55h285
l-46 -522h-637z" />
    <glyph glyph-name="uni0411" unicode="&#x411;" horiz-adv-x="1654" 
d="M144 92q-4 -39 20 -66q24 -26 62 -26h781q243 0 403 114q162 115 181 340q19 226 -121 340q-140 115 -384 115h-494l21 242h846q39 0 68 27q29 29 32 67l9 94q3 39 -22 67q-26 28 -64 28h-1126q-42 0 -70 -27q-30 -27 -33 -68zM537 283l30 344h494q168 0 153 -172
t-183 -172h-494z" />
    <glyph glyph-name="uni0412" unicode="&#x412;" horiz-adv-x="1723" 
d="M252 1339l-108 -1245q-4 -38 22 -66q25 -28 64 -28h860q225 0 386 112q164 112 183 330q18 217 -164 320q145 110 157 257q13 147 -57 243q-128 172 -426 172h-813q-37 0 -70 -28q-30 -28 -34 -67zM589 877l25 286h535q62 0 98 -38q34 -37 28 -106q-6 -68 -47 -105
q-40 -37 -104 -37h-535zM536 270l30 344h572q77 0 114 -46q38 -46 30 -126t-52 -126q-45 -46 -122 -46h-572z" />
    <glyph glyph-name="uni0413" unicode="&#x413;" horiz-adv-x="1428" 
d="M143 92q-3 -39 22 -66q28 -26 65 -26h188q38 0 69 26q30 27 33 66l93 1059h684q40 0 69 26q28 26 33 68l8 94q3 42 -21 68q-24 27 -65 27h-965q-41 0 -71 -27q-28 -27 -33 -68z" />
    <glyph glyph-name="uni0414" unicode="&#x414;" horiz-adv-x="1896" 
d="M1 94q-4 -38 21 -66t64 -28h1454q38 0 69 26q30 27 33 66l109 1249q4 38 -21 66q-25 27 -64 27h-540q-553 0 -685 -394l-252 -757h-78q-39 0 -69 -27t-33 -66zM574 283l227 671q29 91 97 145q67 52 162 52h299l-76 -868h-709z" />
    <glyph glyph-name="uni0415" unicode="&#x415;" horiz-adv-x="1635" 
d="M143 96q-3 -41 22 -68q25 -28 65 -28h1148q40 0 69 28q31 28 34 66l8 96q3 39 -21 66t-63 27h-869l26 295h750q39 0 69 27q30 29 33 67l9 94q3 39 -22 66q-25 28 -64 28h-750l25 291h871q39 0 69 27q30 29 33 67l9 94q3 39 -22 67q-26 28 -64 28h-1153q-39 0 -69 -27
q-31 -28 -34 -66z" />
    <glyph glyph-name="uni0416" unicode="&#x416;" horiz-adv-x="2337" 
d="M153 1395q-3 -25 11 -56l183 -393q39 -86 93 -142q52 -56 145 -79q-67 -15 -142 -83q-73 -67 -136 -150l-285 -398q-21 -28 -22 -44q-1 -14 2 -23q8 -27 47 -27h230q39 0 86 27q49 29 75 67l200 279q74 102 141 153q68 52 158 52h45l-42 -486q-4 -38 21 -66
q26 -26 65 -26h189q39 0 68 26t34 66l42 486h45q91 0 149 -52q59 -52 113 -153l153 -279q18 -37 63 -67q42 -27 82 -27h229q39 0 52 25t-9 69l-214 398q-48 81 -111 150q-62 68 -128 83q98 23 160 79q63 55 118 142l252 393q19 31 20 56l2 14q-6 27 -45 27h-232
q-89 0 -151 -97l-180 -276q-68 -107 -139 -155q-72 -48 -159 -48h-45l42 479q3 39 -22 68q-24 29 -64 29h-189q-38 0 -69 -29q-30 -30 -33 -68l-42 -479h-45q-88 0 -150 48q-64 49 -113 155l-131 276q-45 97 -136 97h-231q-47 0 -50 -41z" />
    <glyph glyph-name="uni0417" unicode="&#x417;" horiz-adv-x="1636" 
d="M52 391q-15 -175 146 -288q160 -111 364 -111h383q269 0 424 102q154 104 173 334q17 192 -133 289q147 104 164 287q19 219 -117 328.5t-427 109.5h-307q-200 0 -382 -110q-182 -109 -197 -279q-3 -43 20 -76q24 -35 72 -35h119q90 0 144 94q72 123 234 123h243
q121 0 175 -36q53 -37 46 -118q-8 -81 -67 -117q-60 -36 -181 -36h-225q-35 0 -66 -29q-29 -29 -32 -65l-7 -82q-3 -39 22 -67q24 -27 64 -27h258q108 0 160 -35q51 -34 43 -119t-64 -119q-58 -35 -166 -35h-313q-72 0 -128 32q-55 31 -77 85q-42 111 -134 111h-118
q-33 0 -70 -26q-37 -25 -43 -85z" />
    <glyph glyph-name="uni0418" unicode="&#x418;" horiz-adv-x="1854" 
d="M143 94q-3 -39 22 -67q25 -27 65 -27h331q39 0 83 27q44 28 71 67l603 928l-81 -928q-3 -39 22 -67q24 -27 64 -27h176q39 0 69 27q30 28 34 67l109 1244q3 40 -21 67q-25 28 -64 28h-295q-35 0 -76 -28q-42 -26 -69 -67l-657 -998l88 1000q3 39 -22 66q-24 27 -64 27
h-176q-41 0 -70 -27q-30 -27 -33 -68z" />
    <glyph glyph-name="uni0419" unicode="&#x419;" horiz-adv-x="1745" 
 />
    <glyph glyph-name="uni041A" unicode="&#x41a;" horiz-adv-x="1745" 
d="M1622 44q3 19 -12 50l-215 398q-46 80 -110 150q-62 68 -128 83q97 23 159 79q64 55 118 142l252 393q20 32 21 55q2 21 -9 31.5t-35 10.5h-231q-91 -1 -152 -97l-179 -276q-71 -108 -141 -155q-70 -48 -158 -48h-215l42 479q3 39 -22 68q-24 29 -64 29h-188
q-38 0 -69 -29q-31 -30 -34 -68l-109 -1243q-3 -40 22 -68t65 -28h188q39 0 68 26t34 66l42 486h215q91 0 150 -52t113 -153l152 -279q20 -37 64 -67q42 -27 81 -27h229q53 0 56 44z" />
    <glyph glyph-name="uni041B" unicode="&#x41b;" horiz-adv-x="1781" 
d="M28 84q-4 -13 -5 -25q-2 -15 13 -37t49 -22h203q39 0 77 26q37 27 51 68l303 856q33 92 110 146q76 55 172 55h244l-93 -1057q-3 -39 22 -67q26 -27 64 -27h191q39 0 68 27q29 29 32 67l109 1245q3 36 -18 66q-23 29 -57 29h-500q-562 -2 -697 -390z" />
    <glyph glyph-name="uni041C" unicode="&#x41c;" horiz-adv-x="2227" 
d="M143 96q-3 -41 22 -69q27 -27 65 -27h180q39 0 69 27q30 29 33 69l86 977l266 -983q12 -38 44 -64t71 -26h143q38 0 76 26q37 27 55 64l439 983l-86 -977q-3 -41 22 -69q24 -27 64 -27h180q39 0 69 27q30 29 33 69l109 1241q3 41 -21 69q-25 28 -63 28h-407
q-37 0 -76 -28q-38 -29 -53 -67l-370 -854l-220 854q-9 39 -41 67q-34 28 -72 28h-407q-37 0 -68 -28q-30 -28 -33 -69z" />
    <glyph glyph-name="uni041D" unicode="&#x41d;" horiz-adv-x="1838" 
d="M143 94q-3 -41 23 -67q27 -27 66 -27h186q41 0 68 26q29 26 34 66l45 514h688l-45 -514q-4 -38 22 -66q25 -26 65 -26h186q39 0 69 27q30 26 35 67l109 1244q3 40 -22 67q-25 28 -66 28h-186q-40 0 -69 -28q-31 -26 -34 -67l-40 -450h-688l40 450q3 40 -22 67
q-25 28 -64 28h-186q-42 0 -71 -28q-31 -26 -34 -67z" />
    <glyph glyph-name="uni041E" unicode="&#x41e;" horiz-adv-x="1743" 
d="M1421 148q221 180 255 569q33 389 -155 568q-188 178 -584 178t-617 -178q-219 -179 -254 -568q-34 -389 155 -569q190 -179 585 -179t615 179zM1229 1074q90 -119 70 -358q-21 -238 -133 -357q-111 -119 -337 -119q-224 0 -316 119q-91 119 -70 357t132 358
q113 120 338 120q226 0 316 -120z" />
    <glyph glyph-name="uni041F" unicode="&#x41f;" horiz-adv-x="1881" 
d="M143 94q-3 -39 22 -67q25 -27 65 -27h188q39 0 69 27q30 29 33 67l93 1057h730l-92 -1057q-3 -39 22 -67q25 -27 65 -27h186q38 0 70 27q31 30 34 67l109 1245q3 39 -22 67q-26 28 -64 28h-1298q-38 0 -68 -28q-30 -29 -33 -67z" />
    <glyph glyph-name="uni0420" unicode="&#x420;" horiz-adv-x="1717" 
d="M143 94q-3 -40 22 -67t65 -27h188q39 0 69 27q30 28 33 67l20 225h478q606 0 654 557q50 557 -556 557h-763q-40 0 -68 -28q-30 -27 -33 -67zM564 601l48 549h365q170 0 250 -56q83 -57 68 -218q-13 -160 -106 -218q-91 -57 -260 -57h-365z" />
    <glyph glyph-name="uni0421" unicode="&#x421;" horiz-adv-x="1685" 
d="M204 169q170 -177 541 -177h244q227 0 411 117q184 118 202 323q3 40 -21 76q-24 35 -71 35h-119q-94 0 -154 -111q-87 -158 -259 -158h-199q-219 0 -288 94q-70 94 -48 349q23 254 109 348t305 94h178q172 0 232 -158q40 -110 133 -110h119q35 0 70 25q37 25 43 85
q18 204 -146 323q-166 118 -392 118h-223q-370 0 -572 -178q-200 -177 -233 -548q-33 -370 138 -547z" />
    <glyph glyph-name="uni0422" unicode="&#x422;" horiz-adv-x="1508" 
d="M20 1245q-3 -41 21 -68q25 -26 66 -26h446l-93 -1059q-3 -39 22 -66q26 -26 64 -26h189q38 0 69 26q30 27 33 66l93 1059h446q43 0 70 26q30 27 33 68l8 94q4 40 -21 67q-24 27 -65 27h-1269q-41 0 -71 -27q-29 -28 -32 -67z" />
    <glyph glyph-name="uni0423" unicode="&#x423;" horiz-adv-x="1596" 
d="M353 301h-32q-41 0 -70 -28q-28 -25 -33 -66l-10 -113q-3 -40 23 -67q25 -27 64 -27h241q247 0 392 106q146 106 232 304l407 933q6 13 8 31q2 17 -12 38q-12 22 -52 22h-202q-39 0 -78 -25q-36 -25 -55 -68l-226 -516h-123q-125 0 -198 59q-72 61 -112 181l-90 278
q-30 91 -125 91h-211q-40 0 -58 -28q-20 -27 -6 -67l126 -360q81 -230 213 -334q132 -102 384 -102h86q-96 -260 -295 -260h-21z" />
    <glyph glyph-name="uni0424" unicode="&#x424;" horiz-adv-x="1955" 
d="M840 1305q-342 0 -556 -141q-213 -140 -240 -447t162 -447q189 -141 531 -141l-8 -98q-4 -39 23 -66q27 -28 65 -28h184q41 0 70 28q30 26 35 66l8 98q343 0 556 141q216 140 241 447q27 307 -162 447q-191 141 -532 141l9 98q3 39 -22 66q-25 28 -66 28h-184
q-41 0 -72 -28q-30 -27 -33 -66zM772 399q-177 0 -271 79q-95 80 -80 239q13 160 122 238q107 79 284 79zM1128 399l55 635q177 0 271 -79q94 -78 81 -238q-15 -159 -123 -239q-107 -79 -284 -79z" />
    <glyph glyph-name="uni0425" unicode="&#x425;" horiz-adv-x="1624" 
d="M72 0h213q100 0 182 94l339 389l271 -389q66 -94 166 -94h213q40 0 54 29q5 8 6 23q1 16 -17 42l-448 643l528 602q24 28 25 49q2 23 -10.5 34.5t-40.5 11.5h-215q-100 -1 -183 -95l-305 -348l-243 348q-68 95 -167 95h-215q-54 0 -59 -46q-1 -23 17 -49l422 -602
l-560 -643q-24 -28 -25 -49q2 -45 52 -45z" />
    <glyph glyph-name="uni0426" unicode="&#x426;" horiz-adv-x="1780" 
d="M143 94q-3 -39 22 -66q25 -28 65 -28h1439q40 0 69 28q31 28 34 66l8 94q3 39 -22 67t-65 28h-108l93 1056q3 39 -22 67q-26 28 -64 28h-189q-39 0 -69 -27t-33 -66l-93 -1058h-671l92 1056q3 39 -22 67t-64 28h-188q-39 0 -69 -27q-31 -28 -34 -66z" />
    <glyph glyph-name="uni0427" unicode="&#x427;" horiz-adv-x="1641" 
d="M85 1004q-22 -265 133 -395t439 -130h387l-34 -387q-3 -39 23 -66q26 -26 64 -26h186q41 0 70 28q30 26 35 66l108 1245q4 39 -21 67q-26 28 -66 28h-186q-37 0 -70 -28q-30 -29 -33 -67l-51 -577h-387q-241 0 -220 242l30 335q3 39 -22 67q-28 28 -64 28h-187
q-37 0 -70 -28q-31 -28 -34 -67z" />
    <glyph glyph-name="uni0428" unicode="&#x428;" horiz-adv-x="2403" 
d="M143 94q-3 -39 22 -66q25 -28 65 -28h1818q40 0 69 28q30 29 33 66l109 1245q3 39 -22 67q-26 28 -64 28h-188q-39 0 -69 -27t-33 -66l-93 -1058h-438l92 1056q3 39 -22 67t-64 28h-188q-39 0 -69 -27q-31 -28 -34 -66l-92 -1058h-438l92 1058q3 39 -22 66q-24 27 -64 27
h-188q-38 0 -69 -28q-31 -30 -34 -67z" />
    <glyph glyph-name="uni0429" unicode="&#x429;" horiz-adv-x="2362" 
d="M144 94q-4 -38 22 -66q25 -28 64 -28h2021q40 0 69 28q30 27 33 66l9 94q3 39 -22 67t-64 28h-109l92 1056q4 37 -21 67q-26 28 -64 28h-188q-39 0 -69 -27t-33 -66l-93 -1058h-439l92 1056q4 39 -21 67q-26 28 -64 28h-188q-39 0 -70 -27q-30 -27 -33 -66l-93 -1058
h-438l93 1058q3 39 -22 66t-64 27h-188q-38 0 -69 -28t-34 -67z" />
    <glyph glyph-name="uni042A" unicode="&#x42a;" horiz-adv-x="1727" 
d="M1 1245q-4 -37 21 -67q25 -27 65 -27h261l-92 -1055q-3 -39 21 -68q24 -28 61 -28h760q235 0 401 125t185 348q20 224 -124 348q-145 125 -380 125h-472l34 393q3 39 -22 67t-64 28h-545q-38 0 -69 -28q-30 -29 -33 -67zM650 283l33 381h473q168 0 151 -191
q-16 -190 -185 -190h-472z" />
    <glyph glyph-name="uni042B" unicode="&#x42b;" horiz-adv-x="2311" 
d="M144 96q-5 -39 21 -68q24 -28 60 -28h699q234 0 401 125t186 348t-125 348q-145 125 -379 125h-412l34 393q4 37 -21 67q-26 28 -64 28h-188q-41 0 -71 -27q-28 -27 -33 -68zM1677 92q-3 -39 22 -66q28 -26 65 -26h190q39 0 70 28q31 27 34 66l109 1245q3 39 -21 67
q-26 28 -67 28h-189q-39 0 -70 -28q-30 -28 -34 -67zM537 283l33 381h412q169 0 152 -191q-16 -190 -185 -190h-412z" />
    <glyph glyph-name="uni042C" unicode="&#x42c;" horiz-adv-x="1634" 
d="M143 96q-3 -39 21 -68q24 -28 61 -28h781q234 0 401 125q166 125 185 348q20 224 -124 348q-145 125 -379 125h-494l34 393q3 39 -22 67t-64 28h-188q-40 0 -70 -27t-33 -68zM537 283l33 381h494q168 0 151 -191q-16 -190 -184 -190h-494z" />
    <glyph glyph-name="uni042D" unicode="&#x42d;" horiz-adv-x="1706" 
d="M52 412q-11 -130 67 -228q81 -99 204 -145q127 -47 268 -47h243q371 0 572 177t234 547q32 371 -138 548q-169 178 -541 178h-223q-141 0 -276 -47q-136 -49 -228 -146q-97 -98 -107 -227q-5 -41 21 -76q24 -35 71 -35h119q90 0 153 111q80 137 258 137h178
q191 0 269 -69q77 -68 73 -236h-537q-40 0 -69 -28q-30 -27 -33 -66l-8 -84q-3 -39 22 -67q26 -27 64 -27h537q-23 -170 -114 -239t-282 -69h-199q-176 1 -233 138q-44 110 -134 110h-118q-32 0 -70 -26q-37 -25 -43 -84z" />
    <glyph glyph-name="uni042E" unicode="&#x42e;" horiz-adv-x="2340" 
d="M143 94q-3 -38 23 -67q27 -27 66 -27h190q38 0 69 26q30 27 33 66l45 514h181q0 -637 699 -637q761 0 825 747q66 748 -694 748q-666 0 -799 -573h-187l39 448q3 39 -21 67q-26 28 -65 28h-189q-41 0 -72 -28q-31 -30 -34 -67zM1556 1194q382 0 342 -477
q-42 -477 -425 -477t-341 477q40 477 424 477z" />
    <glyph glyph-name="uni042F" unicode="&#x42f;" horiz-adv-x="1741" 
d="M64 57q-6 -57 45 -57h251q94 0 154 92l276 416h358l-36 -414q-4 -38 21 -66t64 -28h189q38 0 69 26q30 27 33 66l110 1249q3 39 -21 66t-61 27h-783q-232 0 -398 -122q-166 -123 -185 -345q-27 -295 246 -418l-316 -455q-16 -22 -16 -37zM527 975q15 176 181 176h496
l-31 -352h-496q-167 0 -150 176z" />
    <glyph glyph-name="uni0430" unicode="&#x430;" horiz-adv-x="1369" 
d="M173 72q125 -92 330 -93q206 0 375 113l-3 -31q-2 -27 13 -44q17 -17 43 -17h193q26 0 45 17q18 16 21 44l54 619q19 223 -115 329q-136 107 -373 107q-544 0 -570 -287q-2 -27 14 -44q17 -17 43 -17h149q72 0 127 60q54 61 177 61q122 0 167 -46q45 -47 35 -163h-331
q-209 0 -349 -90q-140 -89 -155 -258q-15 -168 110 -260zM458 419q43 34 113 34h307l-13 -156q-151 -90 -305 -90q-76 0 -116 35q-39 34 -34 89q4 53 48 88z" />
    <glyph glyph-name="uni0431" unicode="&#x431;" horiz-adv-x="1399" 
d="M65 532q-25 -276 113.5 -414t440.5 -138q294 0 459 126q165 128 186 363q21 236 -118 364t-391 128q-253 0 -391 -173q15 180 108 259q90 80 302 98l423 35q30 2 54 30t27 62l12 131q1 23 -15 41q-17 10 -36 10h-10l-555 -49q-293 -27 -430 -206q-137 -181 -167 -523z
M685 733q121 0 183 -69q61 -67 50 -194q-10 -126 -84 -195q-74 -68 -195 -68q-123 0 -183 68q-61 68 -50 195t84 194q72 69 195 69z" />
    <glyph glyph-name="uni0432" unicode="&#x432;" horiz-adv-x="1336" 
d="M123 61q-2 -27 14 -43q17 -18 42 -18h641q212 0 330 70q119 71 134 244t-152 261q130 76 143 224q12 149 -99 223q-113 74 -303 74h-598q-25 0 -45 -18q-19 -16 -21 -44zM522 668l18 204h293q45 0 71 -29q27 -28 22 -73q-3 -45 -35 -74q-29 -28 -76 -28h-293zM484 223
l19 226h332q55 0 82 -31t22 -82q-4 -50 -36 -82q-32 -31 -88 -31h-331z" />
    <glyph glyph-name="uni0433" unicode="&#x433;" horiz-adv-x="1099" 
d="M123 61q-3 -25 13 -43t42 -18h224q27 0 45 18q19 16 22 43l69 793h463q25 0 45 17q19 18 21 44l11 119q2 28 -14 44q-16 18 -42 18h-748q-26 0 -45 -18q-20 -18 -21 -44z" />
    <glyph glyph-name="uni0434" unicode="&#x434;" horiz-adv-x="1523" 
d="M20 61q-2 -27 14 -43q15 -18 43 -18h1171q26 0 46 18q18 16 21 43l85 973q3 27 -14 44q-15 18 -43 18h-453q-427 0 -529 -303l-185 -551h-78q-26 0 -46 -18q-19 -16 -21 -44zM503 242l158 465q51 147 196 147h181l-53 -612h-482z" />
    <glyph glyph-name="uni0435" unicode="&#x435;" horiz-adv-x="1297" 
d="M182 126q141 -146 417 -146q547 0 572 286q2 28 -14 45q-17 17 -43 17h-149q-71 0 -126 -61q-54 -60 -187 -60t-189 56q-55 56 -55 179h753q27 0 46 18q19 16 21 44l5 57q24 269 -118 412q-141 143 -416 143t-443 -147q-168 -149 -192 -422q-24 -275 118 -421zM425 653
q31 236 254 236q221 0 211 -236h-465z" />
    <glyph glyph-name="uni0436" unicode="&#x436;" horiz-adv-x="1826" 
d="M25 27q6 -27 44 -27h188q105 0 163 94l124 207q79 133 208 133l-32 -373q-3 -25 13 -43q17 -18 42 -18h224q27 0 45 18q19 16 22 43l32 373q129 0 186 -133l87 -207q42 -94 146 -94h188q39 0 50 27q4 7 6 23q1 14 -13 44l-126 275q-66 149 -197 180q79 18 138 67
q59 48 91 113l133 272q14 32 16 54q2 20 -9 30.5t-34 10.5h-188q-49 0 -90 -26q-39 -24 -62 -69l-93 -204q-65 -135 -209 -135l33 372q2 28 -14 44q-17 18 -42 18h-224q-25 0 -45 -18q-19 -16 -21 -44l-33 -372q-146 0 -185 135l-58 204q-12 43 -49 69q-38 26 -86 26h-188
q-49 0 -52 -41q0 -21 9 -54l84 -272q23 -65 73 -113q50 -49 124 -67q-135 -31 -228 -180l-173 -275q-18 -27 -20 -44q-1 -14 2 -23z" />
    <glyph glyph-name="uni0437" unicode="&#x437;" horiz-adv-x="1268" 
d="M42 281q-12 -138 115 -219q125 -82 328 -82h222q233 0 357 75q123 77 138 242q17 189 -150 278q149 69 163 228q15 158 -102 235q-117 78 -328 78h-201q-185 0 -325 -83q-140 -85 -150 -218q-3 -26 13 -44q16 -17 43 -17h149q68 -1 113 67q21 33 59 50q39 18 74 18h184
q66 0 97 -30q31 -31 26 -79q-3 -48 -40 -79q-37 -29 -102 -29h-229q-26 0 -46 -18q-19 -16 -21 -44l-9 -104q-3 -27 13 -45q17 -17 43 -17h248q73 0 106.5 -29.5t28.5 -88.5q-10 -119 -156 -119h-203q-108 0 -141 67q-33 68 -101 68h-150q-25 0 -45 -17q-20 -20 -21 -44z
" />
    <glyph glyph-name="uni0438" unicode="&#x438;" horiz-adv-x="1469" 
d="M123 61q-2 -28 13 -44q17 -17 43 -17h281q32 0 66 22q35 21 53 50l409 645l-58 -656q-2 -27 13 -43q17 -18 43 -18h209q26 0 46 17q20 18 21 44l85 973q3 26 -13 44q-17 18 -43 18h-280q-31 0 -66 -21q-35 -19 -54 -51l-408 -647l57 657q3 26 -13 44t-43 18h-209
q-25 0 -45 -18q-19 -16 -22 -44z" />
    <glyph glyph-name="uni0439" unicode="&#x439;" horiz-adv-x="1384" 
 />
    <glyph glyph-name="uni043A" unicode="&#x43a;" horiz-adv-x="1293" 
d="M1227 44q0 23 -14 50l-146 275q-78 143 -197 180q68 14 128 63q62 50 101 117l152 272q20 35 21 56q2 19 -9.5 29t-36.5 10h-189q-44 0 -87 -26q-40 -25 -65 -69l-113 -204q-76 -135 -250 -135l32 372q3 28 -13 44q-15 18 -42 18h-224q-27 0 -45 -18q-19 -16 -22 -44
l-85 -973q-2 -28 13 -44q17 -17 43 -17h224q25 0 45 17q19 16 21 44l33 373q156 0 226 -133l109 -207q49 -94 145 -94h189q51 0 56 44z" />
    <glyph glyph-name="uni043B" unicode="&#x43b;" horiz-adv-x="1448" 
d="M25 66q-3 -6 -5 -21q-1 -12 11 -29q12 -16 39 -16h205q29 0 58 20q29 22 41 54l212 633q50 147 190 147h188l-70 -793q-2 -27 14 -44q17 -17 42 -17h224q25 0 45 17q19 18 21 44l85 973q3 26 -13 44t-42 18h-473q-425 0 -529 -303z" />
    <glyph glyph-name="uni043C" unicode="&#x43c;" horiz-adv-x="1809" 
d="M123 61q-2 -28 13 -44q17 -17 43 -17h217q26 0 46 17q19 16 21 44l55 625l202 -616q25 -70 88 -70h98q64 0 101 70l310 616l-55 -625q-2 -27 13 -43q17 -18 43 -18h217q26 0 46 17q18 16 21 44l85 973q3 26 -13 44t-43 18h-344q-59 0 -97 -74l-296 -596l-192 596
q-24 74 -83 74h-344q-27 0 -45 -18q-19 -16 -22 -44z" />
    <glyph glyph-name="uni043D" unicode="&#x43d;" horiz-adv-x="1461" 
d="M123 61q-1 -27 13 -44q17 -17 43 -17h224q25 0 45 17q20 18 21 44l33 373h438l-33 -373q-2 -27 14 -43q17 -18 43 -18h223q26 0 45 17q20 18 21 44l85 973q3 26 -13 45q-15 17 -42 17h-223q-27 0 -46 -17t-22 -45l-31 -358h-438l31 358q3 27 -13 45q-15 17 -42 17h-224
q-26 0 -45 -17t-22 -45z" />
    <glyph glyph-name="uni043E" unicode="&#x43e;" horiz-adv-x="1337" 
d="M183 124q143 -144 436 -144q291 0 461 144q168 144 193 424q24 281 -119 424q-144 144 -436 144q-293 0 -461 -144q-169 -145 -193 -424q-24 -281 119 -424zM496 808q69 81 202 81q134 0 189 -81q55 -80 40 -259q-15 -178 -85 -260t-203 -82q-134 0 -189 82
q-54 81 -39 260q15 177 85 259z" />
    <glyph glyph-name="uni043F" unicode="&#x43f;" horiz-adv-x="1461" 
d="M123 61q-2 -28 13 -44q17 -17 43 -17h224q25 0 45 17q20 18 21 44l70 793h437l-69 -793q-2 -27 14 -43q15 -18 43 -18h223q26 0 45 17q18 16 21 44l85 973q3 26 -13 44q-15 18 -42 18h-1008q-27 0 -45 -18q-19 -16 -22 -44z" />
    <glyph glyph-name="uni0440" unicode="&#x440;" horiz-adv-x="1432" 
d="M123 -276q-2 -28 14 -45q17 -17 42 -17h224q25 0 45 17q20 18 21 45l27 307q158 -51 285 -51q247 0 403 146q158 145 182 420t-103 422q-128 148 -336 148q-207 0 -377 -112l3 30q3 26 -14 44q-15 18 -42 18h-193q-26 0 -45 -18q-18 -18 -21 -44zM516 262l46 522
q152 90 259 90q109 0 157 -78q47 -79 32 -248q-15 -172 -79 -249q-65 -78 -201 -78q-91 0 -214 41z" />
    <glyph glyph-name="uni0441" unicode="&#x441;" horiz-adv-x="1286" 
d="M607 -20q282 0 437 88q156 87 171 260q3 25 -14 43q-15 18 -43 18h-149q-67 0 -121 -74q-67 -94 -220 -94q-152 0 -207 77q-55 78 -40 250q17 173 82 249q66 76 215 76q150 0 201 -93q40 -73 108 -73h149q29 0 46 17q19 16 22 44q15 172 -126 259q-140 88 -417 88
t-445 -144q-166 -144 -192 -424q-24 -279 119 -423q144 -144 424 -144z" />
    <glyph glyph-name="uni0442" unicode="&#x442;" horiz-adv-x="1159" 
d="M20 915q-2 -27 14 -44q17 -17 43 -17h319l-70 -793q-2 -27 14 -43q16 -18 43 -18h223q26 0 46 18q19 16 21 43l70 793h319q26 0 45 17q19 18 21 44l10 119q3 28 -13 44q-15 18 -42 18h-985q-26 0 -46 -18q-19 -16 -21 -44z" />
    <glyph glyph-name="uni0443" unicode="&#x443;" horiz-adv-x="1294" 
d="M235 -104h-37q-26 0 -46 -17q-19 -19 -20 -45l-10 -110q-2 -24 13 -40q17 -18 82 -30q67 -12 230 -12q161 0 275 106q113 106 205 354l344 934l3 17q1 9 -10 27q-10 16 -35 16h-211q-29 0 -54 -20q-26 -20 -36 -48l-260 -700q-68 0 -115 60q-46 61 -80 216l-94 424
q-6 28 -30 48q-26 20 -54 20h-209q-26 -2 -39 -16q-13 -15 -15 -26q0 -13 2 -18l106 -483q60 -262 165 -364q104 -103 275 -103q-75 -207 -216 -207z" />
    <glyph glyph-name="uni0444" unicode="&#x444;" horiz-adv-x="1646" 
d="M164 147q142 -138 438 -147l-24 -276q-3 -26 13 -44q17 -18 43 -18h223q27 0 45 18q19 16 22 44l24 276q297 9 463 147q167 137 191 402q23 264 -121 402t-437 145l24 276q2 28 -13 44q-16 18 -43 18h-223q-27 0 -46 -18q-18 -16 -21 -44l-24 -276q-296 -9 -463 -146
q-168 -137 -191 -401q-22 -264 120 -402zM477 797q72 78 208 80l-58 -658q-134 3 -193 81q-59 80 -44 249q15 170 87 248zM961 219l58 658q134 -3 193 -80q59 -79 44 -248t-87 -249q-74 -78 -208 -81z" />
    <glyph glyph-name="uni0445" unicode="&#x445;" horiz-adv-x="1343" 
d="M33 31q6 -31 41 -31h213q92 0 162 88l216 260l169 -260q57 -88 149 -88h212q36 0 46 31q4 7 6 23q2 17 -13 34l-307 461l365 459q35 42 10 74q-11 14 -33 14h-217q-96 0 -163 -88l-188 -252l-144 252q-52 88 -149 88h-217q-21 0 -35 -14q-30 -33 -2 -74l285 -459
l-389 -461q-18 -20 -18 -33q-2 -16 1 -24z" />
    <glyph glyph-name="uni0446" unicode="&#x446;" horiz-adv-x="1431" 
d="M123 61q-3 -26 13 -44q15 -17 42 -17h1155q27 0 46 17q19 18 22 44l10 119q3 27 -14 45q-15 17 -43 17h-98l70 792q3 26 -13 44q-17 18 -43 18h-224q-24 0 -45 -18q-18 -15 -21 -44l-70 -792h-425l69 792q3 26 -13 44q-17 18 -43 18h-224q-26 0 -45 -18q-18 -16 -21 -44z
" />
    <glyph glyph-name="uni0447" unicode="&#x447;" horiz-adv-x="1299" 
d="M90 1034l-26 -295q-19 -213 92 -300q110 -87 360 -87h254l-26 -291q-2 -26 14 -43q16 -18 42 -18h223q27 0 46 18q19 16 21 43l86 973q2 28 -14 44q-16 18 -43 18h-223q-26 0 -45 -18q-19 -16 -21 -44l-39 -440h-254q-62 0 -97 35q-37 35 -29 110l26 295q2 28 -14 44
q-16 18 -43 18h-223q-27 0 -46 -18q-19 -16 -21 -44z" />
    <glyph glyph-name="uni0448" unicode="&#x448;" horiz-adv-x="1995" 
d="M123 61q-3 -25 13 -43t42 -18h1542q26 0 46 18q19 16 21 43l85 973q3 26 -13 44t-43 18h-223q-27 0 -45 -18q-19 -16 -22 -44l-69 -792h-314l69 792q3 28 -13 44q-15 18 -42 18h-223q-26 0 -46 -18q-19 -16 -21 -44l-70 -792h-313l70 792q2 28 -14 44q-16 18 -42 18h-224
q-26 0 -45 -18q-19 -16 -21 -44z" />
    <glyph glyph-name="uni0449" unicode="&#x449;" horiz-adv-x="1979" 
d="M123 61q-2 -28 14 -44q15 -17 42 -17h1702q26 0 46 17q20 18 21 44l11 119q2 28 -14 44q-17 18 -43 18h-98l69 792q3 26 -13 44t-43 18h-223q-27 0 -45 -18q-19 -16 -22 -44l-69 -792h-314l69 792q3 28 -13 44q-15 18 -42 18h-223q-28 0 -46 -18q-19 -16 -22 -44
l-69 -792h-313l69 792q3 28 -13 44q-15 18 -42 18h-224q-25 0 -45 -18q-19 -16 -21 -44z" />
    <glyph glyph-name="uni044A" unicode="&#x44a;" horiz-adv-x="1392" 
d="M20 915q-3 -25 13 -44q17 -17 43 -17h229l-69 -793q-3 -26 14 -43q15 -18 43 -18h566q214 0 337 84q124 84 141 282q18 198 -91 283q-110 84 -322 84h-283l26 301q2 28 -13 44q-16 18 -43 18h-514q-27 0 -46 -18q-18 -16 -21 -44zM596 227l25 279h252q61 0 93 -36
q31 -36 25 -104q-4 -66 -43 -103q-38 -36 -100 -36h-252z" />
    <glyph glyph-name="uni044B" unicode="&#x44b;" horiz-adv-x="1848" 
d="M123 61q-3 -26 13 -44q15 -17 43 -17h522q214 0 337 84q124 84 141 282q18 198 -91 283q-110 84 -322 84h-238l26 301q3 26 -13 44q-17 18 -43 18h-224q-26 0 -45 -18q-18 -16 -21 -44zM1294 61q-3 -26 13 -44q17 -17 43 -17h223q26 0 46 17q18 16 21 44l85 973
q2 28 -13 44q-16 18 -43 18h-223q-26 0 -46 -18q-19 -16 -21 -44zM477 223l25 287h213q131 0 118 -144q-12 -143 -143 -143h-213z" />
    <glyph glyph-name="uni044C" unicode="&#x44c;" horiz-adv-x="1299" 
d="M123 61q-2 -27 14 -43q17 -18 42 -18h588q213 0 337 84t142 282q17 200 -92 283q-111 84 -323 84h-303l26 301q3 26 -13 44q-17 18 -42 18h-224q-27 0 -45 -18q-19 -16 -22 -44zM484 227l24 279h272q63 0 93 -36q32 -37 26 -104q-6 -66 -44 -103q-37 -36 -99 -36h-272z
" />
    <glyph glyph-name="uni044D" unicode="&#x44d;" horiz-adv-x="1298" 
d="M42 306q-14 -159 128 -241q143 -84 424 -84t447 143q165 143 191 424q24 281 -116 425t-417 144q-278 0 -434 -84q-158 -84 -171 -241q-2 -28 14 -44q16 -18 43 -18h149q64 0 128 73q65 72 214 72q233 0 236 -215h-354q-29 0 -46 -17q-19 -16 -22 -44l-9 -104
q-2 -28 14 -44q15 -18 43 -18h354q-23 -109 -90 -159q-67 -52 -205 -52q-137 0 -190 73q-51 73 -115 73h-150q-25 0 -45 -17q-19 -18 -21 -45z" />
    <glyph glyph-name="uni044E" unicode="&#x44e;" horiz-adv-x="1871" 
d="M123 61q-2 -26 14 -43q17 -18 42 -18h224q25 0 45 18q19 16 21 43l33 373h145q6 -222 147 -337q141 -117 398 -117t423 145q167 146 191 423q24 278 -117 423t-395 145q-256 0 -417 -112q-160 -112 -207 -328h-147l32 358q2 28 -14 45q-17 17 -42 17h-224q-25 0 -45 -17
q-20 -18 -21 -45zM1460 548q-30 -341 -261 -341q-232 0 -202 341t261 341q232 0 202 -341z" />
    <glyph glyph-name="uni044F" unicode="&#x44f;" horiz-adv-x="1381" 
d="M135 743q-21 -239 185 -319l-230 -336q-16 -22 -18 -38t2 -23q8 -27 45 -27h180q107 0 164 88l196 303h196l-29 -330q-2 -26 14 -43q16 -18 43 -18h223q26 0 46 17q18 17 20 44l86 973q2 28 -14 44q-15 18 -42 18h-590q-446 -2 -477 -353zM524 834q37 34 99 34h274
l-22 -250h-274q-62 0 -93 34t-27 91q6 58 43 91z" />
    <glyph glyph-name="uni0451" unicode="&#x451;" horiz-adv-x="1290" 
 />
    <glyph glyph-name="uni0452" unicode="&#x452;" horiz-adv-x="1441" 
d="M681 -106h-30q-27 0 -46 -17t-22 -45l-9 -108q-5 -48 56 -62q89 -20 224 -20q386 0 428 471l33 379q21 243 -90 362q-113 119 -306 119q-195 0 -380 -146l20 228h158q26 0 46 17q18 18 21 44l9 109q3 25 -13 43q-15 18 -43 18h-158l8 86q3 27 -14 44q-15 18 -42 18h-223
q-26 0 -46 -18q-18 -16 -21 -44l-7 -86h-137q-27 0 -47 -18q-18 -16 -21 -43l-9 -109q-3 -25 13 -44q17 -17 43 -17h137l-87 -994q-2 -27 14 -43q16 -18 43 -18h223q26 0 45 18q19 16 21 43l46 527q158 143 282 143q190 0 169 -239l-33 -379q-10 -121 -55 -178
q-44 -56 -99 -56z" />
    <glyph glyph-name="uni0453" unicode="&#x453;" horiz-adv-x="1014" 
d="M416 1251q0 26 10 56l70 229q13 45 58 81q43 34 93 34h70q81 0 119 -45q16 -22 16 -49t-21 -62l-129 -209q-70 -115 -157 -115h-27q-102 0 -102 80zM184 0q-26 0 -43 18q-18 16 -18 43v973q0 27 18 45q17 17 43 17h748q25 0 44 -17q17 -19 17 -45v-119q0 -26 -17 -43
q-18 -18 -44 -18h-463v-793q0 -26 -17 -43q-18 -18 -44 -18h-224z" />
    <glyph glyph-name="uni0454" unicode="&#x454;" horiz-adv-x="1288" 
d="M64 546q-24 -280 117 -423q143 -143 423 -143q281 0 438 83q157 84 171 242q3 27 -14 44q-15 18 -43 18h-149q-64 0 -128 -73t-202 -73q-137 0 -196 51q-59 52 -62 160h354q26 0 46 17q19 17 22 45l9 104q2 28 -14 44q-17 17 -43 17h-354q39 215 273 215q149 0 208 -79
q45 -66 109 -66h149q26 0 46 17q19 17 22 45q14 157 -129 241t-419 84q-278 0 -444 -145q-164 -143 -190 -425z" />
    <glyph glyph-name="uni0455" unicode="&#x455;" horiz-adv-x="1241" 
d="M106 793q-9 -116 61 -192q72 -77 179 -111q118 -38 218 -58q108 -24 184 -54q75 -30 71 -75q-7 -96 -237 -96q-145 0 -188 61q-44 60 -115 60h-149q-27 0 -46 -17t-22 -45q-13 -143 118.5 -214.5t406.5 -71.5q549 0 578 323q11 117 -60 194q-72 77 -179 111
q-116 37 -218 58q-111 23 -184 52q-74 30 -71 75q9 96 207 96q144 0 187 -60q43 -61 116 -61h149q27 0 45 18q19 16 21 43q13 143 -118 215t-405 72q-520 0 -549 -323z" />
    <glyph glyph-name="uni0456" unicode="&#x456;" horiz-adv-x="708" 
d="M227 1305q-5 -54 24 -84q28 -31 81 -31h124q54 0 88 31q32 30 37 84l3 34q6 54 -23 84q-28 31 -82 31h-124q-53 0 -87 -31q-32 -30 -38 -84zM123 61q-3 -28 13 -44q15 -17 42 -17h224q26 0 45 17q19 16 22 44l83 949q2 27 -14 43q-15 18 -42 18h-224q-25 0 -45 -17
q-19 -16 -21 -44z" />
    <glyph glyph-name="uni0457" unicode="&#x457;" horiz-adv-x="634" 
d="M368 1311q-4 -54 24 -85q27 -30 80 -30h74q54 0 87 30q34 32 38 85l3 35q6 52 -23 83q-28 31 -82 31h-74q-54 0 -86 -31q-32 -29 -37 -83zM-40 1305q-4 -53 23 -85q29 -30 82 -30h73q54 0 87 30q34 32 38 85l3 34q4 53 -23 84q-28 31 -82 31h-73q-55 0 -87 -31
q-34 -30 -38 -84zM33 61q-2 -27 14 -43q15 -18 43 -18h223q27 0 45 18q19 16 21 43l83 949q3 25 -13 43q-15 18 -43 18h-223q-27 0 -46 -18q-18 -16 -21 -43z" />
    <glyph glyph-name="uni0458" unicode="&#x458;" horiz-adv-x="758" 
d="M277 1305q-4 -52 23 -84q28 -31 82 -31h125q54 0 86 31q35 31 39 84l3 34q5 54 -24 84q-28 31 -81 31h-125q-53 0 -87 -31q-34 -32 -38 -84zM-78 -106h-31q-26 0 -45 -17q-18 -18 -21 -45l-9 -108q-4 -47 55 -62q89 -20 223 -20q388 0 428 471l79 897q2 27 -13 43
q-16 18 -43 18h-223q-26 0 -46 -17q-18 -16 -21 -44l-78 -897q-12 -123 -55 -178q-44 -56 -99 -56z" />
    <glyph glyph-name="uni0459" unicode="&#x459;" horiz-adv-x="1999" 
d="M25 66q-2 -6 -4 -21q0 -13 11 -29q10 -16 38 -16h205q30 0 59 20q30 22 40 54l212 633q51 147 190 147h147l-69 -793q-3 -27 13 -43q15 -18 42 -18h568q213 0 337 84q125 85 141 282q18 199 -92 283q-108 84 -322 84h-283l27 301q2 28 -14 44q-15 18 -42 18h-432
q-426 0 -528 -303zM1214 227l24 279h252q62 0 93 -36q32 -37 26 -104q-6 -68 -44 -103q-37 -36 -99 -36h-252z" />
    <glyph glyph-name="uni045A" unicode="&#x45a;" horiz-adv-x="2008" 
d="M123 61q-2 -28 13 -44q17 -17 43 -17h224q25 0 45 17q18 16 21 44l35 394h396l-34 -394q-3 -26 14 -43q15 -18 43 -18h567q446 0 476 348q15 174 -89 261t-327 87h-283l30 338q3 26 -13 44q-15 18 -43 18h-222q-28 0 -46 -18q-19 -16 -22 -44l-29 -338h-397l29 338
q3 26 -13 44q-15 18 -42 18h-224q-27 0 -45 -18q-19 -16 -22 -44zM1226 227l22 242h252q61 0 93 -32q31 -31 27 -89q-4 -57 -43 -89q-38 -32 -99 -32h-252z" />
    <glyph glyph-name="uni045B" unicode="&#x45b;" horiz-adv-x="1441" 
d="M20 1116q-2 -27 14 -44q15 -17 43 -17h137l-87 -994q-3 -25 13 -43t43 -18h223q27 0 45 18q19 16 22 43l46 527q157 143 281 143q190 0 169 -239l-37 -431q-3 -25 13 -43q17 -18 42 -18h224q27 0 45 18q19 16 22 43l37 431q21 243 -90 362t-306 119q-194 0 -379 -146
l20 228h158q26 0 45 17q18 18 21 44l9 109q3 27 -13 43q-15 18 -42 18h-158l7 86q3 26 -13 44t-42 18h-223q-28 0 -46 -18q-19 -16 -22 -44l-7 -86h-137q-27 0 -46 -18q-19 -16 -21 -43z" />
    <glyph glyph-name="uni045C" unicode="&#x45c;" horiz-adv-x="1249" 
 />
    <glyph glyph-name="uni045E" unicode="&#x45e;" horiz-adv-x="1294" 
 />
    <glyph glyph-name="uni045F" unicode="&#x45f;" horiz-adv-x="1460" 
d="M123 61q-3 -28 13 -44q15 -17 42 -17h348l-23 -260q-2 -28 14 -44q17 -18 43 -18h188q27 0 46 18q19 16 21 44l23 260h348q26 0 46 17q18 17 20 44l85 973q3 28 -13 44q-15 18 -42 18h-223q-27 0 -46 -18q-19 -16 -21 -44l-70 -792h-438l70 792q2 28 -13 44
q-17 18 -43 18h-224q-26 0 -45 -18q-19 -16 -21 -44z" />
    <glyph glyph-name="uni0490" unicode="&#x490;" horiz-adv-x="1447" 
d="M143 92q-3 -39 22 -66q26 -26 65 -26h188q38 0 69 26q30 27 33 66l93 1059h683q41 0 70 26q29 27 33 68l27 314q3 38 -22 65q-24 27 -64 27h-153q-39 0 -69 -27q-31 -28 -34 -65l-11 -125h-718q-40 0 -70 -27t-33 -68z" />
    <glyph glyph-name="uni0491" unicode="&#x491;" horiz-adv-x="1116" 
d="M123 61q-2 -27 14 -43q17 -18 42 -18h224q25 0 45 18q19 16 21 43l70 793h463q25 0 45 17q18 18 21 44l27 308q2 27 -14 43q-17 18 -42 18h-182q-27 0 -46 -18q-19 -16 -21 -43l-11 -127h-504q-27 0 -45 -18q-19 -16 -22 -44z" />
    <glyph glyph-name="endash" unicode="&#x2013;" horiz-adv-x="777" 
d="M41 535q-3 -26 13 -44t42 -18h560q27 0 45 18q19 16 22 44l13 151q3 27 -14 45q-15 17 -42 17h-560q-25 0 -45 -17q-18 -18 -21 -45z" />
    <glyph glyph-name="emdash" unicode="&#x2014;" horiz-adv-x="1267" 
d="M41 569q-3 -26 13 -44q15 -17 43 -17h1052q27 0 46 17q19 16 22 44l10 119q3 26 -13 45q-17 17 -43 17h-1053q-26 0 -45 -17t-22 -45z" />
    <glyph glyph-name="quoteleft" unicode="&#x2018;" horiz-adv-x="586" 
d="M102 1018q-34 -72 -7 -114q29 -42 108 -42h82q51 0 100 34t61 81l88 321q18 70 1 103q-18 33 -81 33h-39q-55 0 -98 -33q-45 -33 -70 -82z" />
    <glyph glyph-name="quoteright" unicode="&#x2019;" horiz-adv-x="586" 
d="M383 1434h-82q-51 0 -100 -34q-49 -35 -62 -81l-87 -322q-6 -25 -9 -54q-1 -29 12 -54q13 -27 77 -27h39q53 0 98 33t70 82l146 301q16 33 19 61q4 47 -26.5 71t-94.5 24z" />
    <glyph glyph-name="quotesinglbase" unicode="&#x201a;" horiz-adv-x="587" 
d="M384 324h-82q-53 0 -100 -34q-50 -35 -62 -81l-88 -322q-7 -28 -8 -54q-3 -28 11 -54q15 -27 78 -27h39q52 0 97 33q46 34 71 82l145 301q18 37 19 61q9 95 -120 95z" />
    <glyph glyph-name="quotedblleft" unicode="&#x201c;" horiz-adv-x="1016" 
d="M454 1434h-39q-55 0 -98 -33q-45 -33 -70 -82l-145 -301q-17 -36 -20 -63q-1 -28 12 -52q29 -41 109 -41h82q51 0 100 34t61 81l88 321q6 26 9 48q6 44 -16 66t-73 22zM532 1018q-17 -32 -20 -63q-2 -30 12 -52q29 -41 109 -41h82q49 0 100 34q49 34 61 81l88 321
q6 26 9 54t-12 55q-13 27 -77 27h-39q-53 0 -98 -33t-70 -82z" />
    <glyph glyph-name="quotedblright" unicode="&#x201d;" horiz-adv-x="1017" 
d="M383 1433h-82q-51 0 -100 -34q-48 -32 -62 -81l-87 -321q-6 -27 -9 -54q-3 -28 12 -55q13 -26 77 -26h39q54 0 98 32t70 83l145 300q17 34 20 61q4 48 -26 71.5t-95 23.5zM482 997q-8 -23 -11 -54q-3 -27 10 -48q17 -33 81 -33h39q56 0 98 32q44 32 70 83l145 300
q14 34 19 64q3 30 -11 51q-28 41 -109 41h-82q-51 0 -100 -34q-49 -33 -61 -81z" />
    <glyph glyph-name="quotedblbase" unicode="&#x201e;" horiz-adv-x="1017" 
d="M384 324h-82q-51 0 -100 -34q-50 -35 -62 -81l-88 -322q-7 -30 -8 -54q-3 -27 11 -55q15 -26 78 -26h39q54 0 97 33q46 34 71 82l145 301q18 37 19 61q9 95 -120 95zM482 -113q-9 -32 -10 -54q-3 -29 9 -48q18 -33 82 -33h38q54 0 99 33q46 35 70 82l145 301q15 34 18 63
q4 27 -10 52q-30 41 -109 41h-82q-51 0 -100 -34q-48 -34 -62 -81z" />
    <glyph glyph-name="dagger" unicode="&#x2020;" horiz-adv-x="1114" 
d="M61 854q-2 -28 14 -44q14 -17 43 -17h256l-94 -1069q-2 -28 14 -45q15 -17 42 -17h224q25 0 45 17q20 20 21 45l94 1069h256q28 0 45 17q18 16 21 44l10 119q3 26 -13 43q-15 18 -42 18h-256l29 338q3 25 -13 44q-17 18 -42 18h-224q-27 0 -45 -18q-19 -18 -22 -44
l-29 -338h-256q-27 0 -46 -18q-20 -18 -21 -43z" />
    <glyph glyph-name="daggerdbl" unicode="&#x2021;" horiz-adv-x="1188" 
d="M61 61q-3 -25 13 -43t43 -18h256l-24 -276q-3 -27 14 -44q15 -18 42 -18h224q25 0 45 18q18 16 21 44l24 276h256q27 0 46 18q18 17 20 43l11 119q2 28 -13 44q-17 18 -43 18h-256l54 612h256q26 0 45 17q19 18 21 44l10 119q3 28 -13 44q-15 18 -42 18h-256l24 276
q3 27 -14 44q-15 18 -41 18h-224q-27 0 -45 -18q-19 -16 -22 -44l-24 -276h-256q-27 0 -46 -18q-19 -16 -21 -44l-11 -119q-2 -27 14 -44q17 -17 43 -17h256l-54 -612h-256q-26 0 -46 -18q-18 -16 -21 -44z" />
    <glyph glyph-name="bullet" unicode="&#x2022;" horiz-adv-x="823" 
d="M141 382q92 -89 242 -89q149 0 256 89q108 90 121 243q14 153 -78 242t-241 89q-150 0 -257 -89q-107 -88 -121 -242q-13 -153 78 -243z" />
    <glyph glyph-name="ellipsis" unicode="&#x2026;" horiz-adv-x="1528" 
d="M359 324h-123q-67 0 -103 -35q-38 -33 -44 -101l-6 -63q-5 -65 27 -99q32 -36 96 -36h123q67 0 104 36q37 35 43 99l6 63q12 136 -123 136zM564 125q-6 -61 27 -99q33 -36 96 -36h123q64 0 103 36q38 35 44 99l6 63q5 68 -27 101q-32 35 -96 35h-123q-64 0 -102 -35
q-39 -33 -45 -101zM1045 125q-6 -62 26 -99q33 -36 98 -36h123q66 0 103 36q38 35 44 99l6 63q5 68 -27 101q-31 35 -97 35h-123q-66 0 -104 -35q-39 -35 -43 -101z" />
    <glyph glyph-name="perthousand" unicode="&#x2030;" horiz-adv-x="2346" 
d="M159 880q92 -89 241 -89t256 89q107 88 121 243q14 153 -78 242t-241 89q-150 0 -257 -89q-107 -88 -121 -242q-14 -155 79 -243zM61 56q-5 -56 48 -56h160q99 0 182 94l1107 1245q20 23 21 39t0 25q-9 31 -48 31h-160q-100 -2 -182 -95l-1106 -1245q-20 -22 -22 -38z
M354 1229q34 39 87 39q54 0 81 -39t21 -106q-6 -69 -40 -107q-33 -39 -87 -39t-81 39t-21 107t40 106zM926 71q92 -89 241 -89t256 89q107 90 120 243q14 153 -77 242q-92 89 -241 89q-148 0 -257 -89q-108 -89 -121 -242q-13 -152 79 -243zM1665 71q92 -89 241 -89t256 89
q108 90 121 243q14 153 -78 242t-241 89q-150 0 -257 -89q-107 -88 -121 -242q-13 -154 79 -243zM1121 420q35 39 87 39t81 -39q27 -39 21 -106q-6 -69 -40 -107q-34 -39 -87 -39t-80 39q-28 38 -22 107q6 66 40 106zM1860 420q34 39 87 39q54 0 81 -39t21 -106
q-6 -69 -40 -107q-33 -39 -87 -39t-81 39t-21 107t40 106z" />
    <glyph glyph-name="guilsinglleft" unicode="&#x2039;" horiz-adv-x="906" 
d="M62 522q-6 -66 50 -108l534 -404q33 -22 60 -9q28 12 31 50l15 172q7 73 -76 135l-249 189l282 188q94 61 100 135l15 172q3 37 -22 50q-26 14 -62 -9l-605 -403q-63 -44 -69 -109z" />
    <glyph glyph-name="guilsinglright" unicode="&#x203a;" horiz-adv-x="905" 
d="M82 51q-3 -37 22 -50q10 -5 24 -5q15 0 38 14l604 404q64 42 70 108l4 49q5 67 -50 109l-534 403q-21 15 -35 15q-16 0 -25 -5q-27 -13 -32 -51l-15 -172q-6 -74 76 -135l250 -188l-282 -189q-94 -60 -100 -135z" />
    <glyph glyph-name="Euro" unicode="&#x20ac;" horiz-adv-x="1787" 
d="M40 745h1126l4 48q3 26 -14 43q-15 18 -41 18h-553q24 169 114 236q90 69 280 69h179q177 0 233 -137q45 -111 134 -111h118q33 0 71 26q37 25 42 85q12 128 -67 227q-78 99 -203 146q-126 47 -269 47h-223q-671 0 -786 -588h-74q-27 0 -45 -18q-19 -16 -22 -43zM0 643
q-2 -28 14 -44q17 -17 42 -17h105q8 -590 683 -590h244q141 0 276 47q132 46 229 146q95 96 107 227q3 41 -21 76q-24 34 -72 34h-119q-89 0 -152 -110q-81 -138 -258 -138h-199q-189 0 -269 69t-72 239h522q26 0 45 17q18 15 21 44l4 47h-1126z" />
    <glyph glyph-name="uni2116" unicode="&#x2116;" horiz-adv-x="2498" 
d="M1837 880q92 -89 242 -89q149 0 256 89q107 88 120 243q14 153 -78 242t-240 89q-150 0 -257 -89q-107 -88 -121 -242q-13 -155 78 -243zM143 94q-3 -40 23 -66q25 -28 64 -28h176q40 0 69 28q30 27 33 66l74 844l438 -844q21 -38 59 -66t78 -28h332q40 0 69 28
q30 27 33 66l109 1245q3 41 -21 68q-25 27 -65 27h-172q-40 0 -68 -27q-29 -26 -34 -66l-80 -917l-483 915q-19 37 -57 66t-72 29h-294q-40 0 -69 -28q-28 -27 -33 -67zM2033 1229q33 39 87 39t81 -39t21 -106q-6 -69 -40 -107q-33 -39 -87 -39t-81 39t-21 107t40 106z
M1753 543q-2 -28 14 -44q17 -18 43 -18h483q27 0 45 18q19 16 21 44l11 119q2 27 -13 44q-17 17 -43 17h-483q-26 0 -46 -17q-19 -16 -21 -44z" />
    <glyph glyph-name="trademark" unicode="&#x2122;" horiz-adv-x="1656" 
d="M0 1327q-4 -37 31 -37h190l-41 -477q-2 -15 8 -25q9 -12 25 -12h133q15 0 27 12q13 11 13 25l42 477h191q36 0 39 37l7 70q3 37 -33 37h-588q-35 0 -38 -37zM663 813q0 -16 8 -25q9 -12 25 -12h129q15 0 27 12q13 11 13 25l33 375l120 -369q18 -43 53 -43h58q34 0 61 43
l183 369l-33 -375q0 -15 10 -25q10 -12 24 -12h129q17 0 28 12q10 10 12 25l51 584q4 37 -33 37h-204q-36 0 -58 -43l-176 -359l-114 359q-15 43 -50 43h-205q-36 0 -39 -37z" />
    <glyph glyph-name="uniE000" unicode="&#xe000;" horiz-adv-x="1191" 
d="M96 1096l-96 -1096h1096l95 1096h-1095z" />
    <glyph glyph-name="CR" horiz-adv-x="682" 
 />
    </font>
</defs>
</svg>
