<svg xmlns="http://www.w3.org/2000/svg" viewBox="0 0 75.92 75.92"><defs><style>.cls-1{fill:#f07e0a;stroke:#f07e0a;}.cls-1,.cls-2{stroke-linecap:round;stroke-linejoin:round;stroke-width:1.7px;}.cls-2{fill:none;stroke:#fff;}</style></defs><g id="Ebene_2" data-name="Ebene 2"><g id="Ebene_1-2" data-name="Ebene 1"><circle class="cls-1" cx="37.96" cy="37.96" r="37.11"/><g id="Ebene_2-2" data-name="Ebene 2"><path class="cls-2" d="M37.68,26.46H48.36a1.09,1.09,0,0,1,1,1.52L42.9,50.57H28.17m-8.53,0H14.22l1.41-4.89m33.79,4.89H42.9m6.06-21H60.1a1.84,1.84,0,0,1,2,1.69,1.46,1.46,0,0,1,0,.51L60.82,39a2,2,0,0,0,.43,1.62L63.34,43a2.2,2.2,0,0,1,.24,2.32l-2.16,5.3H58m-30.54,0a3.89,3.89,0,1,1-3.88-4,3.89,3.89,0,0,1,3.88,4v0m29.78,0a3.89,3.89,0,1,1-3.88-4,3.89,3.89,0,0,1,3.88,4v0"/><line class="cls-2" x1="34.83" y1="30.49" x2="30.55" y2="30.49"/><line class="cls-2" x1="32.69" y1="32.63" x2="32.69" y2="28.35"/><line class="cls-2" x1="26.99" y1="24.78" x2="22.72" y2="24.78"/><line class="cls-2" x1="24.86" y1="26.92" x2="24.86" y2="22.64"/><path class="cls-2" d="M23.73,35.89a8.22,8.22,0,0,1-8.22-8.22h0a8.1,8.1,0,0,1,.64-3.18,8.21,8.21,0,1,0,11,10.64A8.09,8.09,0,0,1,23.73,35.89Z"/></g></g></g></svg>