<svg xmlns="http://www.w3.org/2000/svg" viewBox="0 0 75.92 75.92"><defs><style>.cls-1{fill:#fdc900;stroke:#fdc900;stroke-width:1.7px;}.cls-1,.cls-2{stroke-linecap:round;stroke-linejoin:round;}.cls-2{fill:none;stroke-width:2px;}.cls-2,.cls-3{stroke:#fff;}.cls-3{fill:#fff;stroke-miterlimit:10;}</style></defs><g id="Ebene_2" data-name="Ebene 2"><g id="Ebene_1-2" data-name="Ebene 1"><circle class="cls-1" cx="37.96" cy="37.96" r="37.11"/><path class="cls-2" d="M29,45V25.19a4.43,4.43,0,0,0-8.85-.3V45A8,8,0,1,0,31.2,47.16,8.15,8.15,0,0,0,29,45Z"/><path class="cls-2" d="M29,45V25.19a4.43,4.43,0,0,0-8.85-.3V45A8,8,0,1,0,31.2,47.16,8.15,8.15,0,0,0,29,45Z"/><path class="cls-3" d="M27.34,52a3,3,0,1,1-3-3h0a3,3,0,0,1,2.95,3"/><line class="cls-2" x1="24.57" y1="52" x2="24.57" y2="32.54"/><polyline class="cls-2" points="34.7 37.12 40.15 37.12 41.95 33.61 47.75 52.48 52.88 36.03 59.82 36.03"/><line class="cls-2" x1="34.7" y1="28.65" x2="59.82" y2="28.65"/></g></g></svg>