<svg xmlns="http://www.w3.org/2000/svg" viewBox="0 0 75.92 75.92"><defs><style>.cls-1{fill:#f07e0a;stroke:#f07e0a;}.cls-1,.cls-2{stroke-linecap:round;stroke-linejoin:round;stroke-width:1.7px;}.cls-2{fill:none;stroke:#fff;}.cls-3{fill:#fff;}</style></defs><g id="Ebene_2" data-name="Ebene 2"><g id="Ebene_1-2" data-name="Ebene 1"><circle class="cls-1" cx="37.96" cy="37.96" r="37.11"/><g id="Ebene_2-2" data-name="Ebene 2"><path class="cls-2" d="M35.64,26.06H50.49a1.09,1.09,0,0,1,1.16,1,1.18,1.18,0,0,1-.07.45L45,50.14H30.31m-8.53,0H16.36l2.12-7.35m33.1,7.35H45m6.05-21H62.24a1.85,1.85,0,0,1,1.95,1.75,2,2,0,0,1,0,.48l-1.24,7.24a2,2,0,0,0,.44,1.62l2.08,2.3a2.19,2.19,0,0,1,.25,2.32l-2.1,5.29H60.09m-30.51,0a3.89,3.89,0,1,1-3.89-4,3.89,3.89,0,0,1,3.89,4v0m29.78,0a3.89,3.89,0,1,1-3.89-4,3.89,3.89,0,0,1,3.89,4v0"/></g><path class="cls-3" d="M16.76,37.91a3.78,3.78,0,0,1-1.4-3.58,4.11,4.11,0,0,1,2.38-3.47A3.23,3.23,0,0,1,16.54,28a4.56,4.56,0,0,1,.66-2.09,4,4,0,0,1,1.46-1.39,8.69,8.69,0,0,1,4.29-1h2a7.69,7.69,0,0,1,4.12,1,3.12,3.12,0,0,1,1.22,1.39A4.13,4.13,0,0,1,30.62,28a3.91,3.91,0,0,1-1.71,2.83,3.31,3.31,0,0,1,1.76,3.46,4.53,4.53,0,0,1-2,3.59,7.92,7.92,0,0,1-4.53,1.23h-3A7,7,0,0,1,16.76,37.91Zm3.38-4.82a1.56,1.56,0,0,0-.73,1.32,1.29,1.29,0,0,0,.5,1.32,3.63,3.63,0,0,0,1.9.38h2.11a4,4,0,0,0,2-.38,1.57,1.57,0,0,0,.74-1.32,1.29,1.29,0,0,0-.5-1.32,3.63,3.63,0,0,0-1.9-.38H22.11A4,4,0,0,0,20.14,33.09Zm1-6.14a1.45,1.45,0,0,0-.72,1.23,1.17,1.17,0,0,0,.5,1.22,3.69,3.69,0,0,0,1.91.37H24a4,4,0,0,0,2-.37,1.42,1.42,0,0,0,.72-1.22,1.19,1.19,0,0,0-.5-1.23,4,4,0,0,0-1.91-.35h-1.1A4.29,4.29,0,0,0,21.16,27Z"/></g></g></svg>