<svg xmlns="http://www.w3.org/2000/svg" viewBox="0 0 75.92 75.92"><defs><style>.cls-1{fill:#f07e0a;stroke:#f07e0a;}.cls-1,.cls-2{stroke-linecap:round;stroke-linejoin:round;stroke-width:1.7px;}.cls-2{fill:none;stroke:#fff;}.cls-3{fill:#fff;}</style></defs><g id="Ebene_2" data-name="Ebene 2"><g id="Ebene_1-2" data-name="Ebene 1"><circle class="cls-1" cx="37.96" cy="37.96" r="37.11"/><g id="Ebene_2-2" data-name="Ebene 2"><path class="cls-2" d="M35.64,26.06H50.49a1.09,1.09,0,0,1,1.16,1,1.18,1.18,0,0,1-.07.45L45,50.14H30.31m-8.53,0H16.36l2.12-7.35m33.1,7.35H45m6.05-21H62.24a1.85,1.85,0,0,1,1.95,1.75,2,2,0,0,1,0,.48l-1.24,7.24a2,2,0,0,0,.44,1.62l2.08,2.3a2.19,2.19,0,0,1,.25,2.32l-2.1,5.29H60.09m-30.51,0a3.89,3.89,0,1,1-3.89-4,3.89,3.89,0,0,1,3.89,4v0m29.78,0a3.89,3.89,0,1,1-3.89-4,3.89,3.89,0,0,1,3.89,4v0"/></g><path class="cls-3" d="M22.36,23.56h2.35a7.24,7.24,0,0,1,4.57,1.19c1,.79,1.37,2.16,1.2,4.1l-.42,4.74q-.27,3.06-1.92,4.31a7.85,7.85,0,0,1-4.75,1.24H20.66a6.74,6.74,0,0,1-3.94-1.07,2.84,2.84,0,0,1-1.38-2.67,1.19,1.19,0,0,1,.46-.92,1.32,1.32,0,0,1,.74-.27h1.28a1.49,1.49,0,0,1,1.32.95c.33.64,1.05,1,2.17,1h2a3,3,0,0,0,2-.53,2.8,2.8,0,0,0,.77-2l0-.39H21.51A7.57,7.57,0,0,1,17,32.09c-1-.74-1.41-2-1.26-3.71a4.61,4.61,0,0,1,1.9-3.7A8.62,8.62,0,0,1,22.36,23.56Zm-.2,6.61h4.15l.12-1.32A2,2,0,0,0,26,27.06a3.12,3.12,0,0,0-1.92-.46h-1.6a4,4,0,0,0-2,.39,1.63,1.63,0,0,0-.73,1.39,1.41,1.41,0,0,0,.49,1.4A3.54,3.54,0,0,0,22.16,30.17Z"/></g></g></svg>