<svg xmlns="http://www.w3.org/2000/svg" viewBox="0 0 75.92 75.92"><defs><style>.cls-1{fill:#f07e0a;stroke:#f07e0a;}.cls-1,.cls-2{stroke-linecap:round;stroke-linejoin:round;stroke-width:1.7px;}.cls-2{fill:none;stroke:#fff;}.cls-3{fill:#fff;}</style></defs><g id="Ebene_2" data-name="Ebene 2"><g id="Ebene_1-2" data-name="Ebene 1"><circle class="cls-1" cx="37.96" cy="37.96" r="37.11"/><g id="Ebene_2-2" data-name="Ebene 2"><path class="cls-2" d="M35.64,26.06H50.49a1.09,1.09,0,0,1,1.16,1,1.18,1.18,0,0,1-.07.45L45,50.14H30.31m-8.53,0H16.36l2.12-7.35m33.1,7.35H45m6.05-21H62.24a1.85,1.85,0,0,1,1.95,1.75,2,2,0,0,1,0,.48l-1.24,7.24a2,2,0,0,0,.44,1.62l2.08,2.3a2.19,2.19,0,0,1,.25,2.32l-2.1,5.29H60.09m-30.51,0a3.89,3.89,0,1,1-3.89-4,3.89,3.89,0,0,1,3.89,4v0m29.78,0a3.89,3.89,0,1,1-3.89-4,3.89,3.89,0,0,1,3.89,4v0"/></g><g id="_10" data-name="10"><path class="cls-3" d="M10.78,29.45a.61.61,0,0,1-.08-.39.8.8,0,0,1,.36-.49l2.57-2.05a2.27,2.27,0,0,1,1.47-.47h1.44a.79.79,0,0,1,.64.27.83.83,0,0,1,.23.65L16.34,39.13a1,1,0,0,1-.34.65,1,1,0,0,1-.69.27H13.49a.82.82,0,0,1-.62-.26.76.76,0,0,1-.21-.64l.82-9.44-1.19.82a.62.62,0,0,1-.46.09.63.63,0,0,1-.39-.23Z"/><path class="cls-3" d="M19.45,33.05a10.1,10.1,0,0,1,.83-3.37A5.7,5.7,0,0,1,22,27.48,8.24,8.24,0,0,1,27.08,26h.69a7.15,7.15,0,0,1,4.8,1.51c1.3,1.12,1.83,3,1.6,5.57s-1.09,4.48-2.56,5.57a8.28,8.28,0,0,1-5.08,1.51h-.69A7.1,7.1,0,0,1,21,38.62C19.75,37.53,19.21,35.67,19.45,33.05Zm7.73-4.32c-2.45,0-3.8,1.45-4.05,4.33s.85,4.31,3.3,4.31,3.81-1.43,4.06-4.31S29.64,28.73,27.18,28.73Z"/></g></g></g></svg>