<svg xmlns="http://www.w3.org/2000/svg" viewBox="0 0 75.92 75.92"><defs><style>.cls-1{fill:#f07e0a;stroke:#f07e0a;}.cls-1,.cls-2{stroke-linecap:round;stroke-linejoin:round;stroke-width:1.7px;}.cls-2{fill:none;stroke:#fff;}.cls-3{fill:#fff;}</style></defs><g id="Ebene_2" data-name="Ebene 2"><g id="Ebene_1-2" data-name="Ebene 1"><circle class="cls-1" cx="37.96" cy="37.96" r="37.11"/><g id="Ebene_2-2" data-name="Ebene 2"><path class="cls-2" d="M35.64,26.06H50.49a1.09,1.09,0,0,1,1.16,1,1.18,1.18,0,0,1-.07.45L45,50.14H30.31m-8.53,0H16.36l2.12-7.35m33.1,7.35H45m6.05-21H62.24a1.85,1.85,0,0,1,1.95,1.75,2,2,0,0,1,0,.48l-1.24,7.24a2,2,0,0,0,.44,1.62l2.08,2.3a2.19,2.19,0,0,1,.25,2.32l-2.1,5.29H60.09m-30.51,0a3.89,3.89,0,1,1-3.89-4,3.89,3.89,0,0,1,3.89,4v0m29.78,0a3.89,3.89,0,1,1-3.89-4,3.89,3.89,0,0,1,3.89,4v0"/></g><g id="_12" data-name="12"><path class="cls-3" d="M10.78,29.45a.61.61,0,0,1-.08-.39.8.8,0,0,1,.36-.49l2.57-2.05a2.27,2.27,0,0,1,1.47-.47h1.44a.79.79,0,0,1,.64.27.83.83,0,0,1,.23.65L16.34,39.13a1,1,0,0,1-.34.65,1,1,0,0,1-.69.27H13.49a.82.82,0,0,1-.62-.26.76.76,0,0,1-.21-.64l.82-9.44-1.19.82a.62.62,0,0,1-.46.09.63.63,0,0,1-.39-.23Z"/><path class="cls-3" d="M19.41,39.13l.12-1.42a4.59,4.59,0,0,1,2.13-3.58,12.31,12.31,0,0,1,1.86-.89,17.52,17.52,0,0,1,2-.59c.67-.16,1.28-.31,1.83-.47,1.24-.36,1.89-.88,1.95-1.55a1.63,1.63,0,0,0-.44-1.5,3.28,3.28,0,0,0-1.87-.4h-.7a2.72,2.72,0,0,0-2.58,1.2,1.57,1.57,0,0,1-1.4.92H21.16a.8.8,0,0,1-.72-.34,1.15,1.15,0,0,1-.2-.74,3.13,3.13,0,0,1,1-2,6.06,6.06,0,0,1,2.24-1.35A8.25,8.25,0,0,1,26.2,26h1.31c2.87,0,4.6.8,5.23,2.38A4.78,4.78,0,0,1,33,30.53a4.36,4.36,0,0,1-.69,2.11A4.51,4.51,0,0,1,30.87,34,10.17,10.17,0,0,1,29,34.9a16.46,16.46,0,0,1-2,.62L25.19,36c-1.25.34-1.89.78-1.94,1.32h8.1a.85.85,0,0,1,.65.27.86.86,0,0,1,.21.65l-.09.92a.94.94,0,0,1-.33.66,1,1,0,0,1-.68.26H20.27a.87.87,0,0,1-.64-.26A.8.8,0,0,1,19.41,39.13Z"/></g></g></g></svg>