<svg width="32" height="51" viewBox="0 0 32 51" fill="none" xmlns="http://www.w3.org/2000/svg">
  <path d="M27.64 19C25.32 19.2 21.93 19.34 18.06 19.38H15.57C10.84 19.38 6.62 19.24 3.81 19.02C5.81 17.08 11.9 14.26 11.9 11.02C11.9 10.95 11.9 10.88 11.9 10.81C11.8262 10.2 11.5991 9.61861 11.24 9.12001C10.8341 8.53342 10.3572 7.99936 9.82 7.53001C11.7339 7.33807 13.6566 7.24795 15.58 7.26001C17.584 7.25063 19.587 7.35077 21.58 7.56001C21.0914 8.01756 20.6584 8.5311 20.29 9.09001C19.9427 9.60306 19.7421 10.2013 19.71 10.82V10.88C19.71 14.1 25.8 16.97 27.6 18.95L27.64 19Z" fill="#12100B"/>
  <path d="M31.05 46.23V46.38C31.0502 46.5774 31.0057 46.7722 30.92 46.95V47.06L30.79 47.18C29.9937 48.0721 28.949 48.7058 27.79 49C24.6867 49.9752 21.4619 50.5104 18.21 50.59C17.45 50.59 16.68 50.59 15.89 50.59H15.72C11.762 50.6846 7.812 50.1892 3.99999 49.12C1.76999 48.38 0.429993 47.42 0.429993 46.38V46.23C0.429993 46.23 0.429993 39.52 0.429993 32.57C0.429993 25.62 0.429993 18.87 0.429993 18.87V18.72C0.43363 18.522 0.48146 18.3272 0.569992 18.15V18L0.699993 17.88C1.81999 16.24 6.29999 14.94 12.08 14.54C12.47 14.54 12.86 14.54 13.27 14.48C14.02 14.48 14.8 14.42 15.58 14.42H15.76C17.21 14.42 18.61 14.48 19.94 14.58C26.37 15.09 31.08 16.73 31.08 18.68V18.83C31.08 18.83 31.08 25.54 31.08 32.49C31.08 39.44 31.08 46.19 31.08 46.19L31.05 46.23Z" fill="#12100B"/>
  <path d="M11.22 32.05L15.03 27.93H13.54L9.76 32.18V27.93H8.53V37.16H9.76V33.47L10.3 32.86L13.66 37.16H15.26L11.22 32.05Z" fill="white"/>
  <path d="M19.58 32.52V33.6H21.71V36C21.4301 36.1087 21.1379 36.1825 20.84 36.22C20.5089 36.27 20.1748 36.2967 19.84 36.3C19.3905 36.2919 18.9476 36.1897 18.54 36C18.171 35.8336 17.8458 35.5837 17.59 35.27C17.3167 34.9311 17.1158 34.5397 17 34.12C16.8474 33.5938 16.7732 33.0479 16.78 32.5C16.7349 31.5418 17.0249 30.5978 17.6 29.83C17.8576 29.507 18.187 29.2485 18.5619 29.0749C18.9368 28.9013 19.347 28.8175 19.76 28.83C20.0976 28.8293 20.4338 28.873 20.76 28.96C21.055 29.0279 21.3405 29.132 21.61 29.27C21.8542 29.3795 22.0884 29.51 22.31 29.66C22.4735 29.7815 22.6304 29.9117 22.78 30.05H22.88V28.56L22.27 28.27C22.01 28.17 21.78 28.08 21.58 28.02C21.3107 27.9403 21.0369 27.8768 20.76 27.83C20.4653 27.7861 20.1679 27.7627 19.87 27.76C19.2511 27.7528 18.6365 27.8648 18.06 28.09C17.5318 28.2946 17.0566 28.616 16.67 29.03C16.2759 29.4692 15.9734 29.9825 15.78 30.54C15.5626 31.1839 15.4577 31.8605 15.47 32.54C15.4572 33.2457 15.5619 33.9487 15.78 34.62C15.96 35.1865 16.2641 35.7058 16.67 36.14C17.0596 36.5409 17.5348 36.8486 18.06 37.04C18.6341 37.2456 19.2402 37.3472 19.85 37.34C20.1482 37.3461 20.4464 37.3227 20.74 37.27C20.98 37.22 21.26 37.16 21.56 37.07C21.8078 36.9964 22.0515 36.9096 22.29 36.81L22.92 36.55V32.55L19.58 32.52Z" fill="white"/>
  <path d="M24.26 5.00001C24.26 6.46001 22.76 7.74001 20.5 8.50001C18.9574 8.98796 17.3478 9.23091 15.73 9.22001C14.2625 9.23264 12.8008 9.03393 11.39 8.63001C8.87998 7.90001 7.19998 6.55001 7.19998 5.00001C7.19998 3.77001 8.26998 2.66001 9.96998 1.89001C11.7944 1.13269 13.7549 0.758285 15.73 0.790006C17.8148 0.74826 19.8824 1.17545 21.78 2.04001C23.31 2.80001 24.26 3.85001 24.26 5.04001V5.00001Z" fill="#12100B"/>
</svg>
