<svg xmlns="http://www.w3.org/2000/svg" viewBox="0 0 75.94 75.97"><defs><style>.cls-1{fill:#fed01c;}.cls-2{fill:#010101;}</style></defs><g id="Ebene_2" data-name="Ebene 2"><g id="Ebene_1-2" data-name="Ebene 1"><ellipse class="cls-1" cx="37.97" cy="37.98" rx="37.97" ry="37.98"/><path class="cls-2" d="M38,72.57a34.58,34.58,0,0,1-24.44-59A34.57,34.57,0,0,1,62.41,62.44,34.34,34.34,0,0,1,38,72.57ZM38,6.12A31.87,31.87,0,1,0,69.83,38,31.89,31.89,0,0,0,38,6.12Z"/><circle class="cls-2" cx="37.97" cy="37.98" r="5.6"/><path class="cls-2" d="M38,46.57a8.77,8.77,0,0,1-4.59-1.3l-8.68,15a26.05,26.05,0,0,0,26.53,0l-8.68-15A8.71,8.71,0,0,1,38,46.57Z"/><path class="cls-2" d="M33.82,30.14l-8.68-15A26.12,26.12,0,0,0,11.88,37.32H29.25A8.73,8.73,0,0,1,33.82,30.14Z"/><path class="cls-2" d="M46.69,37.32H64.06A26.14,26.14,0,0,0,50.8,15.1l-8.68,15A8.75,8.75,0,0,1,46.69,37.32Z"/></g></g></svg>