<svg xmlns="http://www.w3.org/2000/svg" width="152.769" height="96.5" viewBox="0 0 152.769 96.5">
  <g id="Gruppe_74" data-name="Gruppe 74" transform="translate(-1072 -623)">
    <path id="Pfad_2413" data-name="Pfad 2413" d="M112.011,32.534h26.211a3.048,3.048,0,0,1,3.048,4.111L122.981,99.872H81.79m-23.853,0H42.78l4.91-14.793m93.58,14.793H122.981M139.9,41.147h31.18a5.173,5.173,0,0,1,5.341,6.236l-3.468,20.246a5.593,5.593,0,0,0,1.23,4.53L180,78.591a6.152,6.152,0,0,1,.7,6.488l-5.872,14.793h-9.76m-85.319,0a10.962,10.962,0,1,1-3.1-7.867,10.878,10.878,0,0,1,3.1,7.867m83.277,0a10.962,10.962,0,1,1-3.1-7.866,10.878,10.878,0,0,1,3.1,7.866" transform="translate(1040.337 606.058)" fill="none" stroke="#fff" stroke-linecap="round" stroke-linejoin="round" stroke-width="6"/>
    <g id="Rechteck_2819" data-name="Rechteck 2819" transform="translate(1072 623)" fill="none" stroke="#fff" stroke-width="6">
      <rect width="63.983" height="54.543" stroke="none"/>
      <rect x="3" y="3" width="57.983" height="48.543" fill="none"/>
    </g>
    <text id="_" data-name="!" transform="translate(1098.77 663.25)" fill="#fff" font-size="39" font-family="PTSans-Bold, PT Sans" font-weight="700"><tspan x="0" y="0">!</tspan></text>
  </g>
</svg>
