<svg xmlns="http://www.w3.org/2000/svg" width="171.534" height="81.098" viewBox="0 0 171.534 81.098">
  <g id="Gruppe_75" data-name="Gruppe 75" transform="translate(-651.838 -639.274)">
    <path id="Pfad_2408" data-name="Pfad 2408" d="M58.082,32.532H115.7a2.329,2.329,0,0,1,2.329,3.141L104.057,83.981H72.585m-18.225,0H42.78l15.3-51.449M118.03,83.981H104.057m12.926-44.868h23.823a3.953,3.953,0,0,1,4.081,4.765l-2.649,15.469a4.273,4.273,0,0,0,.94,3.461l4.444,4.914a4.7,4.7,0,0,1,.534,4.957l-4.487,11.3h-7.457m-65.187,0a8.375,8.375,0,1,1-2.369-6.01,8.311,8.311,0,0,1,2.369,6.01m63.627,0a8.375,8.375,0,1,1-2.369-6.01,8.311,8.311,0,0,1,2.369,6.01" transform="translate(642.346 610.472)" fill="none" stroke="#fff" stroke-linecap="round" stroke-linejoin="round" stroke-width="6"/>
    <line id="Linie_49" data-name="Linie 49" x2="11" y2="42" transform="translate(655.5 674.5)" fill="none" stroke="#fff" stroke-linecap="round" stroke-width="6"/>
    <line id="Linie_50" data-name="Linie 50" x2="137" transform="translate(666.5 716.5)" fill="none" stroke="#fff" stroke-linecap="round" stroke-width="6"/>
    <line id="Linie_51" data-name="Linie 51" x1="16" y2="42" transform="translate(803.5 674.5)" fill="none" stroke="#fff" stroke-linecap="round" stroke-width="6"/>
  </g>
</svg>
