<svg id="Ebene_1" data-name="Ebene 1" xmlns="http://www.w3.org/2000/svg" viewBox="0 0 280.79 280.79"><defs><style>.cls-1{fill:#ed1c24;}</style></defs><path class="cls-1" d="M140.39,280.79C63,280.79,0,217.79,0,140.39S63,0,140.39,0s140.4,63,140.4,140.39S217.81,280.79,140.39,280.79ZM140.39,3C64.63,3,3,64.63,3,140.39s61.63,137.4,137.39,137.4,137.4-61.63,137.4-137.4S216.16,3,140.39,3Z" transform="translate(0 0)"/><path class="cls-1" d="M60.38,96.1h52.7v15.49H77.78v22h32.51v15.5H77.78V185H60.38Z" transform="translate(0 0)"/><path class="cls-1" d="M200.21,138.9l1.9-17.65h-.76l-5.46,14.22L177,168.62h-5.58l-19.94-33.28-5.59-14.09h-.64l2.54,17.52V185h-16.5V96.1h15.87l23.75,40.64,4.19,10.16h.51l3.81-10.41L201.86,96.1h15.75V185h-17.4Z" transform="translate(0 0)"/></svg>