<!-- <svg xmlns="http://www.w3.org/2000/svg" width="144.653" height="84.639" viewBox="0 0 144.653 84.639">
  <path id="Pfad_2409" data-name="Pfad 2409" d="M62.808,32.534h75.414a3.048,3.048,0,0,1,3.048,4.111L122.981,99.872H81.79m-23.853,0H42.78L62.808,32.534M141.27,99.872H122.981M139.9,41.147h31.18a5.173,5.173,0,0,1,5.341,6.236l-3.468,20.246a5.593,5.593,0,0,0,1.23,4.53L180,78.591a6.152,6.152,0,0,1,.7,6.488l-5.872,14.793h-9.76m-85.319,0a10.962,10.962,0,1,1-3.1-7.867,10.878,10.878,0,0,1,3.1,7.867m83.277,0a10.962,10.962,0,1,1-3.1-7.866,10.878,10.878,0,0,1,3.1,7.866" transform="translate(-39.78 -28.803)" fill="none" stroke="#fff" stroke-linecap="round" stroke-linejoin="round" stroke-width="6"/>
</svg> -->

<svg xmlns="http://www.w3.org/2000/svg" width="20" height="20" viewBox="0 0 144.653 84.639">
  <path id="Pfad_2409" data-name="Pfad 2409" d="M62.808,32.534h75.414a3.048,3.048,0,0,1,3.048,4.111L122.981,99.872H81.79m-23.853,0H42.78L62.808,32.534M141.27,99.872H122.981M139.9,41.147h31.18a5.173,5.173,0,0,1,5.341,6.236l-3.468,20.246a5.593,5.593,0,0,0,1.23,4.53L180,78.591a6.152,6.152,0,0,1,.7,6.488l-5.872,14.793h-9.76m-85.319,0a10.962,10.962,0,1,1-3.1-7.867,10.878,10.878,0,0,1,3.1,7.867m83.277,0a10.962,10.962,0,1,1-3.1-7.866,10.878,10.878,0,0,1,3.1,7.866" transform="translate(-39.78 -28.803)" fill="none" stroke="#fff" stroke-linecap="round" stroke-linejoin="round" stroke-width="6"/>
</svg>

