<svg xmlns="http://www.w3.org/2000/svg" width="144.653" height="95.61" viewBox="0 0 144.653 95.61">
  <g id="Gruppe_76" data-name="Gruppe 76" transform="translate(-457.126 -620.348)">
    <path id="Pfad_2301" data-name="Pfad 2301" d="M96.695,32.534h41.527a3.048,3.048,0,0,1,3.048,4.111L122.981,99.872H81.79m-23.853,0H42.78l5.928-20.554M141.27,99.872H122.981M139.9,41.147h31.18a5.173,5.173,0,0,1,5.341,6.236l-3.468,20.246a5.593,5.593,0,0,0,1.23,4.53L180,78.591a6.152,6.152,0,0,1,.7,6.488l-5.872,14.793h-9.76m-85.319,0a10.962,10.962,0,1,1-3.1-7.867,10.878,10.878,0,0,1,3.1,7.867m83.277,0a10.962,10.962,0,1,1-3.1-7.866,10.878,10.878,0,0,1,3.1,7.866" transform="translate(417.346 602.515)" fill="none" stroke="#fff" stroke-linecap="round" stroke-linejoin="round" stroke-width="6"/>
    <g id="Icon_feather-arrow-down" data-name="Icon feather-arrow-down" transform="translate(475.349 671.991) rotate(-135)">
      <path id="Pfad_2406" data-name="Pfad 2406" d="M18,7.5v31" fill="none" stroke="#fff" stroke-linecap="round" stroke-linejoin="round" stroke-width="5"/>
      <path id="Pfad_2407" data-name="Pfad 2407" d="M28.5,18,18,28.5,7.5,18" transform="translate(0 10)" fill="none" stroke="#fff" stroke-linecap="round" stroke-linejoin="round" stroke-width="5"/>
    </g>
    <g id="Icon_feather-arrow-down-2" data-name="Icon feather-arrow-down" transform="translate(499.92 632.393) rotate(45)">
      <path id="Pfad_2406-2" data-name="Pfad 2406" d="M18,7.5v31" fill="none" stroke="#fff" stroke-linecap="round" stroke-linejoin="round" stroke-width="5"/>
      <path id="Pfad_2407-2" data-name="Pfad 2407" d="M28.5,18,18,28.5,7.5,18" transform="translate(0 10)" fill="none" stroke="#fff" stroke-linecap="round" stroke-linejoin="round" stroke-width="5"/>
    </g>
  </g>
</svg>
