<svg id="Ebene_1" data-name="Ebene 1" xmlns="http://www.w3.org/2000/svg" viewBox="0 0 30.65 49.81"><defs><style>.cls-1{fill:#676b6e;}.cls-2{fill:#fff;}</style></defs><path class="cls-1" d="M52.64,34c-2.32.2-5.71.34-9.58.38H40.57c-4.73,0-8.95-.14-11.76-.36,2-1.94,8.09-4.76,8.09-8v-.21a3.6,3.6,0,0,0-.66-1.69,8.6,8.6,0,0,0-1.42-1.59,55.39,55.39,0,0,1,5.76-.27,54.67,54.67,0,0,1,6,.3,8.58,8.58,0,0,0-1.29,1.53,3.34,3.34,0,0,0-.58,1.73v.06C44.71,29.1,50.8,32,52.6,34Z" transform="translate(-25.43 -15.79)"/><path class="cls-1" d="M56.05,61.23v.15a1.25,1.25,0,0,1-.13.57v.11l-.13.12a6,6,0,0,1-3,1.82,34.62,34.62,0,0,1-9.58,1.59H40.72A40,40,0,0,1,29,64.12c-2.23-.74-3.57-1.7-3.57-2.74V33.72a1.26,1.26,0,0,1,.14-.57V33l.13-.12c1.12-1.64,5.6-2.94,11.38-3.34.39,0,.78-.05,1.19-.06.75,0,1.53-.06,2.31-.06h.18c1.45,0,2.85.06,4.18.16,6.43.51,11.14,2.15,11.14,4.1V61.19Z" transform="translate(-25.43 -15.79)"/><polygon class="cls-2" points="10.79 31.26 14.6 27.14 13.11 27.14 9.33 31.39 9.33 27.14 8.1 27.14 8.1 36.37 9.33 36.37 9.33 32.68 9.87 32.07 13.23 36.37 14.83 36.37 10.79 31.26 10.79 31.26"/><path class="cls-2" d="M44.58,47.52V48.6h2.13V51a3.7,3.7,0,0,1-.87.22,6.74,6.74,0,0,1-1,.08,3.25,3.25,0,0,1-1.3-.3,2.72,2.72,0,0,1-.95-.73A3.31,3.31,0,0,1,42,49.12a5.56,5.56,0,0,1-.22-1.62,4.08,4.08,0,0,1,.82-2.67,2.65,2.65,0,0,1,2.16-1,3.76,3.76,0,0,1,1,.13,3.6,3.6,0,0,1,.85.31,4.8,4.8,0,0,1,.7.39,5.71,5.71,0,0,1,.47.39h.1V43.56l-.61-.29c-.26-.1-.49-.19-.69-.25a7.51,7.51,0,0,0-.82-.19,6.54,6.54,0,0,0-.89-.07,4.68,4.68,0,0,0-1.81.33,3.77,3.77,0,0,0-1.39.94,4.43,4.43,0,0,0-.89,1.51,5.89,5.89,0,0,0-.31,2,6.36,6.36,0,0,0,.31,2.08,3.89,3.89,0,0,0,.89,1.52,3.67,3.67,0,0,0,1.39.9,5,5,0,0,0,1.79.3,4.4,4.4,0,0,0,.89-.07c.24-.05.52-.11.82-.2a6.34,6.34,0,0,0,.73-.26l.63-.26v-4Z" transform="translate(-25.43 -15.79)"/><path class="cls-1" d="M49.26,20c0,1.46-1.5,2.74-3.76,3.5a15.41,15.41,0,0,1-4.77.72,15.51,15.51,0,0,1-4.34-.59c-2.51-.72-4.19-2.07-4.19-3.63,0-1.23,1.07-2.34,2.77-3.11a14.37,14.37,0,0,1,5.76-1.1A14,14,0,0,1,46.78,17c1.53.76,2.48,1.81,2.48,3Z" transform="translate(-25.43 -15.79)"/></svg>