<?xml version="1.0" encoding="utf-8"?>
<!-- Generator: Adobe Illustrator 23.0.1, SVG Export Plug-In . SVG Version: 6.00 Build 0)  -->
<svg version="1.1" id="Ebene_1" xmlns="http://www.w3.org/2000/svg" xmlns:xlink="http://www.w3.org/1999/xlink" x="0px" y="0px"
	 viewBox="0 0 239.4 37.5" style="enable-background:new 0 0 239.4 37.5;" xml:space="preserve">
<g>
	<g>
		<defs>
			<path id="SVGID_5_" d="M200.6,7.4c-6.2,0-11.2,5.1-11.2,11.4c0,6.3,5,11.3,11.2,11.3h38.8v0l-6.3-6.2h-32.6c-2.8,0-5-2.3-5-5.1
				c0-2.8,2.3-5.1,5.1-5.1c3.2,0,6.7,2.7,6.8,8.6v0.1h5.8v-0.1c0-5.3-1.4-9.2-4-11.7C207,8.5,204.1,7.4,200.6,7.4
				C200.6,7.4,200.6,7.4,200.6,7.4 M200.6,0c-10.2,0-18.5,8.4-18.5,18.8c0,10.3,8.3,18.7,18.5,18.7h32.6l6.3-6.2v0h-38.8
				c-6.8,0-12.3-5.6-12.3-12.5c0-6.9,5.5-12.5,12.3-12.5c2.6,0,6.4,0.6,9.4,3.5c2.8,2.8,4.3,7,4.3,12.5l0,0.1h6l0-0.1
				C220.2,7,210,0,200.6,0L200.6,0z"/>
		</defs>
		<clipPath id="SVGID_2_">
			<use xlink:href="#SVGID_5_"  style="overflow:visible;"/>
		</clipPath>
		<g style="clip-path:url(#SVGID_2_);">
			<g>
				<defs>
					<rect id="SVGID_7_" x="182.1" y="0" width="57.3" height="37.5"/>
				</defs>
				<clipPath id="SVGID_4_">
					<use xlink:href="#SVGID_7_"  style="overflow:visible;"/>
				</clipPath>
				<g style="clip-path:url(#SVGID_4_);">
					
						<image style="overflow:visible;" width="240" height="157" xlink:href="AA5E10D2DF9E66FA.jpg"  transform="matrix(0.24 0 0 0.24 181.934 -0.137)">
					</image>
				</g>
			</g>
		</g>
	</g>
	<g>
		<defs>
			<path id="SVGID_9_" d="M24.9,12.7L24.9,12.7c-0.4,0.1-0.7,0.2-1,0.3c-1,0.4-2.1,0.9-3.3,1.7l0.2-1c0.1-0.3,0-0.5-0.1-0.7
				c-0.1-0.2-0.3-0.3-0.6-0.3h-3.4c-0.3,0-0.5,0.1-0.7,0.3c-0.2,0.2-0.3,0.4-0.4,0.7l-2.8,15.4c-0.1,0.3,0,0.5,0.1,0.7
				c0.1,0.2,0.3,0.3,0.6,0.3h3.4c0.3,0,0.5-0.1,0.7-0.3c0.2-0.2,0.3-0.4,0.4-0.7L19.8,19c1.5-1.6,3-2.4,4.3-2.4c0.3,0,0.6,0,1.1,0h0
				c0,0,0,0,0.1,0l0,0c0.3,0,0.5-0.1,0.7-0.3c0.2-0.2,0.3-0.4,0.4-0.7l0.4-2.2c0.1-0.3,0-0.5-0.1-0.7c-0.1-0.2-0.4-0.3-0.6-0.3
				L24.9,12.7z"/>
		</defs>
		<clipPath id="SVGID_6_">
			<use xlink:href="#SVGID_9_"  style="overflow:visible;"/>
		</clipPath>
		
			<linearGradient id="SVGID_8_" gradientUnits="userSpaceOnUse" x1="500.3759" y1="281.5243" x2="501.3759" y2="281.5243" gradientTransform="matrix(-8.000000e-07 -17.6581 -17.6581 8.000000e-07 4991.0195 8865.8135)">
			<stop  offset="0" style="stop-color:#656B6F"/>
			<stop  offset="1" style="stop-color:#94999C"/>
		</linearGradient>
		<rect x="12.7" y="12.4" style="clip-path:url(#SVGID_6_);fill:url(#SVGID_8_);" width="14.2" height="17.7"/>
	</g>
	<g>
		<defs>
			<path id="SVGID_12_" d="M126.6,7.1L126.6,7.1c-3.2,0-5.6,0.6-7.1,1.8c-1.5,1.2-2.5,3.3-3,6.3l-2.5,14c-0.1,0.3,0,0.5,0.1,0.7
				c0.1,0.2,0.3,0.3,0.6,0.3h3.4c0.3,0,0.5-0.1,0.7-0.3c0.2-0.2,0.3-0.4,0.4-0.7l1.8-9.9h5.4c0.3,0,0.5-0.1,0.7-0.3
				c0.2-0.2,0.3-0.4,0.4-0.7l0.3-1.9c0.1-0.3,0-0.5-0.1-0.7c-0.1-0.2-0.3-0.3-0.6-0.3h-5.4l0-0.2c0.3-1.7,0.8-2.9,1.5-3.4
				c0.7-0.5,2-0.8,3.9-0.8l0,0h1.1c0.3,0,0.5-0.1,0.7-0.3c0.2-0.2,0.3-0.4,0.4-0.7l0.3-1.9c0-0.3,0-0.5-0.1-0.7
				c-0.1-0.2-0.3-0.3-0.6-0.3H126.6z"/>
		</defs>
		<clipPath id="SVGID_10_">
			<use xlink:href="#SVGID_12_"  style="overflow:visible;"/>
		</clipPath>
		
			<linearGradient id="SVGID_11_" gradientUnits="userSpaceOnUse" x1="501.5038" y1="274.1062" x2="502.5038" y2="274.1062" gradientTransform="matrix(-1.000000e-06 -23.026 -23.026 1.000000e-06 6433.3452 11577.7412)">
			<stop  offset="0" style="stop-color:#656B6F"/>
			<stop  offset="1" style="stop-color:#94999C"/>
		</linearGradient>
		<rect x="113.9" y="7.1" style="clip-path:url(#SVGID_10_);fill:url(#SVGID_11_);" width="15.8" height="23"/>
	</g>
	<g>
		<defs>
			<path id="SVGID_15_" d="M170.9,12.7c-1,0-1.8,0.5-2.6,1.4l-3.2,4l-1.8-4c-0.4-0.9-1.1-1.4-2.1-1.4h-3.3c-0.2,0-0.4,0.1-0.6,0.2
				c-0.2,0.2-0.2,0.3-0.3,0.5c0,0.2,0,0.4,0.1,0.6l3.6,7.3l-6.5,7.3c-0.2,0.2-0.3,0.4-0.4,0.6c0,0.1,0,0.2,0,0.3
				c0,0.3,0.2,0.5,0.6,0.5h3.2c0.9,0,1.8-0.5,2.6-1.4l3.6-4.1l2.1,4.1c0.5,0.9,1.2,1.4,2.1,1.4h3.2c0.4,0,0.6-0.2,0.8-0.5
				c0-0.1,0.1-0.2,0.1-0.3c0-0.2,0-0.4-0.1-0.6l-3.9-7.3l6.2-7.3c0.2-0.2,0.3-0.4,0.4-0.6c0-0.2,0-0.4-0.1-0.5
				c-0.1-0.2-0.3-0.2-0.5-0.2H170.9z"/>
		</defs>
		<clipPath id="SVGID_13_">
			<use xlink:href="#SVGID_15_"  style="overflow:visible;"/>
		</clipPath>
		
			<linearGradient id="SVGID_14_" gradientUnits="userSpaceOnUse" x1="500.2917" y1="282.0777" x2="501.2917" y2="282.0777" gradientTransform="matrix(-8.000000e-07 -17.356 -17.356 8.000000e-07 5060.0405 8713.1885)">
			<stop  offset="0" style="stop-color:#656B6F"/>
			<stop  offset="1" style="stop-color:#94999C"/>
		</linearGradient>
		<rect x="153.9" y="12.7" style="clip-path:url(#SVGID_13_);fill:url(#SVGID_14_);" width="20.9" height="17.4"/>
	</g>
	<g>
		<defs>
			<path id="SVGID_18_" d="M146.9,16c2.2,0,3.2,1.2,2.8,3.7h-7C143.3,17.3,144.7,16,146.9,16 M140.7,14.8c-1.8,1.6-3,3.8-3.5,6.7
				c-0.5,2.9-0.2,5.1,1.1,6.7c1.3,1.5,3.3,2.3,6.1,2.3c5.5,0,8.5-1.5,9-4.5c0.1-0.3,0-0.6-0.1-0.7c-0.1-0.2-0.3-0.3-0.6-0.3h-2.2
				c-0.7,0-1.4,0.3-1.9,0.9c-0.7,0.7-1.7,1.1-3.1,1.1c-1.3,0-2.1-0.3-2.6-0.8c-0.5-0.5-0.7-1.4-0.6-2.6h11.3c0.3,0,0.5-0.1,0.7-0.3
				c0.2-0.2,0.3-0.4,0.4-0.7l0.2-0.9c0.5-2.9,0.2-5.1-1.1-6.7c-1.3-1.5-3.3-2.3-6-2.3C144.8,12.4,142.5,13.2,140.7,14.8"/>
		</defs>
		<clipPath id="SVGID_16_">
			<use xlink:href="#SVGID_18_"  style="overflow:visible;"/>
		</clipPath>
		
			<linearGradient id="SVGID_17_" gradientUnits="userSpaceOnUse" x1="500.4647" y1="280.9364" x2="501.4653" y2="280.9364" gradientTransform="matrix(-8.000000e-07 -17.9906 -17.9906 8.000000e-07 5200.1743 9034.1133)">
			<stop  offset="0" style="stop-color:#656B6F"/>
			<stop  offset="1" style="stop-color:#94999C"/>
		</linearGradient>
		<rect x="136.6" y="12.4" style="clip-path:url(#SVGID_16_);fill:url(#SVGID_17_);" width="18.6" height="18"/>
	</g>
	<g>
		<defs>
			<path id="SVGID_21_" d="M132.8,7.4c-0.3,0-0.5,0.1-0.7,0.3c-0.2,0.2-0.3,0.4-0.4,0.7L128,29.1c-0.1,0.3,0,0.5,0.1,0.7
				c0.1,0.2,0.3,0.3,0.6,0.3h3.4c0.3,0,0.5-0.1,0.7-0.3c0.2-0.2,0.3-0.4,0.4-0.7l3.7-20.8c0-0.3,0-0.5-0.1-0.7
				c-0.1-0.2-0.3-0.3-0.6-0.3H132.8z"/>
		</defs>
		<clipPath id="SVGID_19_">
			<use xlink:href="#SVGID_21_"  style="overflow:visible;"/>
		</clipPath>
		
			<linearGradient id="SVGID_20_" gradientUnits="userSpaceOnUse" x1="501.4519" y1="274.4475" x2="502.4519" y2="274.4475" gradientTransform="matrix(-1.000000e-06 -22.7083 -22.7083 1.000000e-06 6364.6802 11417.2451)">
			<stop  offset="0" style="stop-color:#656B6F"/>
			<stop  offset="1" style="stop-color:#94999C"/>
		</linearGradient>
		<rect x="127.9" y="7.4" style="clip-path:url(#SVGID_19_);fill:url(#SVGID_20_);" width="9.1" height="22.7"/>
	</g>
	<g>
		<defs>
			<path id="SVGID_24_" d="M94.7,25.5c-0.5-0.9-0.5-2.2-0.2-4.1c0.3-1.9,0.9-3.2,1.7-4.1c0.8-0.9,1.8-1.3,3.2-1.3
				c1.3,0,2.2,0.4,2.7,1.3c0.5,0.9,0.5,2.2,0.2,4.1c-0.3,1.9-0.9,3.3-1.7,4.1c-0.8,0.9-1.8,1.3-3.2,1.3
				C96.1,26.8,95.1,26.4,94.7,25.5 M92.8,14.7c-1.8,1.5-3,3.8-3.6,6.7s-0.2,5.2,1.1,6.7c1.3,1.5,3.4,2.3,6.3,2.3s5.3-0.8,7.2-2.3
				c1.8-1.5,3-3.8,3.6-6.7c0.5-3,0.2-5.2-1.1-6.7c-1.3-1.5-3.4-2.3-6.3-2.3C97,12.4,94.7,13.2,92.8,14.7"/>
		</defs>
		<clipPath id="SVGID_22_">
			<use xlink:href="#SVGID_24_"  style="overflow:visible;"/>
		</clipPath>
		
			<linearGradient id="SVGID_23_" gradientUnits="userSpaceOnUse" x1="500.4654" y1="280.9363" x2="501.4653" y2="280.9363" gradientTransform="matrix(-8.000000e-07 -17.9906 -17.9906 8.000000e-07 5152.5991 9034.1133)">
			<stop  offset="0" style="stop-color:#656B6F"/>
			<stop  offset="1" style="stop-color:#94999C"/>
		</linearGradient>
		<rect x="88.7" y="12.4" style="clip-path:url(#SVGID_22_);fill:url(#SVGID_23_);" width="19.3" height="18"/>
	</g>
	<g>
		<defs>
			<path id="SVGID_27_" d="M111.2,19c-0.4,0-0.8,0.1-1,0.4c-0.3,0.2-0.4,0.6-0.5,1l-0.1,0.7c-0.1,0.4,0,0.8,0.1,1
				c0.2,0.2,0.5,0.4,0.9,0.4h1.2c0.4,0,0.7-0.1,1-0.4c0.3-0.2,0.4-0.6,0.5-1l0.1-0.7c0.1-0.5,0-0.8-0.1-1c-0.2-0.2-0.5-0.4-0.9-0.4
				H111.2z"/>
		</defs>
		<clipPath id="SVGID_25_">
			<use xlink:href="#SVGID_27_"  style="overflow:visible;"/>
		</clipPath>
		
			<linearGradient id="SVGID_26_" gradientUnits="userSpaceOnUse" x1="480.5922" y1="411.6489" x2="481.5923" y2="411.6489" gradientTransform="matrix(-2.000000e-07 -3.4697 -3.4697 2.000000e-07 1539.7568 1689.9636)">
			<stop  offset="0" style="stop-color:#656B6F"/>
			<stop  offset="1" style="stop-color:#94999C"/>
		</linearGradient>
		<rect x="109.4" y="19" style="clip-path:url(#SVGID_25_);fill:url(#SVGID_26_);" width="4" height="3.5"/>
	</g>
	<g>
		<defs>
			<path id="SVGID_30_" d="M84.5,19c-0.4,0-0.8,0.1-1,0.4c-0.3,0.2-0.4,0.6-0.5,1L82.8,21c-0.1,0.4,0,0.8,0.1,1
				c0.2,0.2,0.5,0.4,0.9,0.4H85c0.4,0,0.7-0.1,1-0.4c0.3-0.2,0.4-0.6,0.5-1l0.1-0.7c0.1-0.5,0-0.8-0.1-1c-0.2-0.2-0.5-0.4-0.9-0.4
				H84.5z"/>
		</defs>
		<clipPath id="SVGID_28_">
			<use xlink:href="#SVGID_30_"  style="overflow:visible;"/>
		</clipPath>
		
			<linearGradient id="SVGID_29_" gradientUnits="userSpaceOnUse" x1="480.5922" y1="411.6484" x2="481.5923" y2="411.6484" gradientTransform="matrix(-2.000000e-07 -3.4697 -3.4697 2.000000e-07 1513.0625 1689.9636)">
			<stop  offset="0" style="stop-color:#656B6F"/>
			<stop  offset="1" style="stop-color:#94999C"/>
		</linearGradient>
		<rect x="82.8" y="19" style="clip-path:url(#SVGID_28_);fill:url(#SVGID_29_);" width="4" height="3.5"/>
	</g>
	<g>
		<defs>
			<path id="SVGID_33_" d="M73.8,12.4c-5.2,0-8.1,1.7-8.7,5.1c-0.2,1.2,0,2.2,0.6,3c0.6,0.8,1.5,1.4,2.5,1.8c1,0.4,2.1,0.7,3.2,0.9
				c1.1,0.2,2,0.5,2.7,0.8c0.7,0.3,1,0.7,1,1.2c-0.2,1-1.4,1.5-3.7,1.5c-1.4,0-2.4-0.3-2.8-1.1c-0.3-0.6-0.8-0.9-1.6-0.9h-2.2
				c-0.3,0-0.5,0.1-0.7,0.3c-0.2,0.2-0.3,0.4-0.4,0.7c-0.5,3,1.9,4.5,7.4,4.5c5.5,0,8.6-1.7,9.2-5.1c0.2-1.2,0-2.3-0.6-3.1
				c-0.6-0.8-1.5-1.4-2.5-1.8c-1-0.4-2.1-0.7-3.2-0.9c-1.1-0.2-2-0.5-2.7-0.8c-0.7-0.3-1-0.7-1-1.2c0.2-1,1.3-1.5,3.3-1.5
				c1.4,0,2.1,0.4,2.5,1.1c0.3,0.6,0.9,0.8,1.6,0.8h2.2c0.3,0,0.5-0.1,0.7-0.3c0.2-0.2,0.3-0.4,0.4-0.7
				C81.6,13.9,79.4,12.4,73.8,12.4C73.9,12.4,73.9,12.4,73.8,12.4"/>
		</defs>
		<clipPath id="SVGID_31_">
			<use xlink:href="#SVGID_33_"  style="overflow:visible;"/>
		</clipPath>
		
			<linearGradient id="SVGID_32_" gradientUnits="userSpaceOnUse" x1="500.4647" y1="280.9365" x2="501.4653" y2="280.9365" gradientTransform="matrix(-8.000000e-07 -17.9906 -17.9906 8.000000e-07 5126.5698 9034.1133)">
			<stop  offset="0" style="stop-color:#656B6F"/>
			<stop  offset="1" style="stop-color:#94999C"/>
		</linearGradient>
		<rect x="63.1" y="12.4" style="clip-path:url(#SVGID_31_);fill:url(#SVGID_32_);" width="18.5" height="18"/>
	</g>
	<g>
		<defs>
			<path id="SVGID_36_" d="M51.6,14.7l0.2-1c0.1-0.3,0-0.5-0.1-0.7c-0.1-0.2-0.3-0.3-0.6-0.3h-3.4c-0.3,0-0.5,0.1-0.7,0.3
				c-0.2,0.2-0.3,0.4-0.4,0.7l-2.8,15.4c0,0.3,0,0.5,0.1,0.7c0.1,0.2,0.3,0.3,0.6,0.3h3.4c0.3,0,0.5-0.1,0.7-0.3
				c0.2-0.2,0.3-0.4,0.4-0.7L51,18.5c1.7-1.5,3.2-2.3,4.4-2.3c1.9,0,2.6,1.3,2.2,3.8l-1.6,9.1c-0.1,0.3,0,0.5,0.1,0.7
				c0.1,0.2,0.3,0.3,0.6,0.3H60c0.3,0,0.5-0.1,0.7-0.3c0.2-0.2,0.3-0.4,0.4-0.7l1.6-9.1c0.5-2.6,0.2-4.5-0.8-5.7
				c-1-1.3-2.6-1.9-4.7-1.9C55.5,12.4,53.6,13.2,51.6,14.7"/>
		</defs>
		<clipPath id="SVGID_34_">
			<use xlink:href="#SVGID_36_"  style="overflow:visible;"/>
		</clipPath>
		
			<linearGradient id="SVGID_35_" gradientUnits="userSpaceOnUse" x1="500.3804" y1="281.4889" x2="501.3804" y2="281.4889" gradientTransform="matrix(-8.000000e-07 -17.6745 -17.6745 8.000000e-07 5028.6899 8874.0684)">
			<stop  offset="0" style="stop-color:#656B6F"/>
			<stop  offset="1" style="stop-color:#94999C"/>
		</linearGradient>
		<rect x="43.8" y="12.4" style="clip-path:url(#SVGID_34_);fill:url(#SVGID_35_);" width="19.5" height="17.7"/>
	</g>
	<g>
		<defs>
			<path id="SVGID_39_" d="M30.2,26.3c-0.4-0.4-0.5-0.8-0.4-1.4c0.1-0.6,0.4-1,0.9-1.4c0.5-0.4,1.1-0.5,1.8-0.5H37l-0.4,2.5
				c-1.6,1-3.2,1.4-4.7,1.4C31.1,26.8,30.5,26.6,30.2,26.3 M27.2,17c0,0.3,0,0.5,0.1,0.7c0.1,0.2,0.3,0.3,0.6,0.3h2.2
				c0.7,0,1.3-0.3,1.9-0.8c0.7-0.7,1.7-1.1,3.1-1.1c1.1,0,1.8,0.2,2.2,0.7c0.4,0.5,0.5,1.3,0.3,2.6h-5c-2.1,0-3.9,0.5-5.4,1.4
				c-1.5,0.9-2.4,2.3-2.7,4.1c-0.3,1.8,0.1,3.1,1.2,4.1c1.2,1,2.8,1.5,4.9,1.5c2,0,4-0.6,5.8-1.8l-0.1,0.5c-0.1,0.3,0,0.5,0.1,0.7
				c0.1,0.2,0.3,0.3,0.6,0.3H40c0.3,0,0.5-0.1,0.7-0.3c0.2-0.2,0.3-0.4,0.4-0.7l1.8-9.8c0.4-2.4,0-4.1-1.2-5.2
				c-1.2-1.1-3.1-1.7-5.4-1.7C30.8,12.4,27.8,13.9,27.2,17"/>
		</defs>
		<clipPath id="SVGID_37_">
			<use xlink:href="#SVGID_39_"  style="overflow:visible;"/>
		</clipPath>
		
			<linearGradient id="SVGID_38_" gradientUnits="userSpaceOnUse" x1="500.4647" y1="280.9351" x2="501.4653" y2="280.9351" gradientTransform="matrix(-8.000000e-07 -17.9906 -17.9906 8.000000e-07 5087.9917 9034.1133)">
			<stop  offset="0" style="stop-color:#656B6F"/>
			<stop  offset="1" style="stop-color:#94999C"/>
		</linearGradient>
		<rect x="24.3" y="12.4" style="clip-path:url(#SVGID_37_);fill:url(#SVGID_38_);" width="19.1" height="18"/>
	</g>
	<g>
		<defs>
			<path id="SVGID_42_" d="M4,7.4c-0.3,0-0.5,0.1-0.7,0.3C3.1,7.9,3,8.1,2.9,8.4L0.2,23.3c-0.9,4.8,0.9,7.1,5.2,7.1
				c1.6,0,3-0.1,4.1-0.3c0.3,0,0.5-0.1,0.7-0.3c0.2-0.2,0.3-0.4,0.4-0.6l0.3-1.6c0-0.3,0-0.5-0.1-0.7c-0.1-0.2-0.4-0.3-0.6-0.3H9.5
				c-0.2,0-0.5,0-1,0.1c-0.5,0.1-0.8,0.1-1.1,0.1c-0.8,0-1.4-0.3-1.8-0.9c-0.4-0.6-0.5-1.4-0.3-2.5l1.2-6.7h4.2
				c0.3,0,0.5-0.1,0.7-0.3c0.2-0.2,0.3-0.4,0.4-0.7l0.3-1.9c0-0.3,0-0.5-0.1-0.7c-0.1-0.2-0.3-0.3-0.6-0.3H7.3l0.8-4.4
				c0-0.3,0-0.5-0.1-0.7C7.8,7.5,7.6,7.4,7.4,7.4H4z"/>
		</defs>
		<clipPath id="SVGID_40_">
			<use xlink:href="#SVGID_42_"  style="overflow:visible;"/>
		</clipPath>
		
			<linearGradient id="SVGID_41_" gradientUnits="userSpaceOnUse" x1="501.5031" y1="274.1211" x2="502.5036" y2="274.1211" gradientTransform="matrix(-1.000000e-06 -23.0245 -23.0245 1.000000e-06 6317.3262 11577.2891)">
			<stop  offset="0" style="stop-color:#656B6F"/>
			<stop  offset="1" style="stop-color:#94999C"/>
		</linearGradient>
		<rect x="-0.6" y="7.4" style="clip-path:url(#SVGID_40_);fill:url(#SVGID_41_);" width="12.9" height="23"/>
	</g>
</g>
</svg>
